<svg xmlns="http://www.w3.org/2000/svg" width="100" height="100" viewBox="0 0 100 100"><ellipse cx="50" cy="50.505" opacity=".35" rx="48" ry="32.157"/><ellipse cx="48" cy="48.495" fill="#f2f2f2" rx="48" ry="32.157"/><ellipse cx="48.051" cy="48.5" fill="#ffc571" rx="41.551" ry="26"/><path fill="#40396e" d="M48.051,24c10.934,0,21.172,2.693,28.827,7.583c7.238,4.624,11.224,10.632,11.224,16.917 s-3.986,12.294-11.224,16.917C69.223,70.307,58.985,73,48.051,73s-21.172-2.693-28.827-7.583C11.986,60.794,8,54.786,8,48.5 s3.986-12.294,11.224-16.917C26.879,26.693,37.117,24,48.051,24 M48.051,21C24.275,21,5,33.312,5,48.5S24.275,76,48.051,76 s43.051-12.312,43.051-27.5S71.827,21,48.051,21L48.051,21z"/><g><path fill="#40396e" d="M42.71,29l-1.081,10.977C39.105,50.954,24.5,42.209,33.515,29.93 c-12.802,2.977-21.456,10.42-21.636,18.234c0.18,3.535,2.164,7.255,5.409,10.418c2.344,2.233,5.409,5.209,9.015,6.697 c-5.95-8.93,5.589-13.395,10.818-3.721c1.983-7.814,8.835-2.419,10.818,7.442c1.983-9.86,8.835-15.256,10.818-7.442 c5.229-9.674,16.768-5.209,10.818,3.721c3.606-1.488,6.671-4.465,9.015-6.512C81.836,55.605,83.82,51.884,84,48.35 c-0.18-7.814-8.835-15.257-21.636-18.419c9.015,12.279-5.589,20.838-8.114,10.047L53.169,29l-2.525,2.791h-2.705h-2.705L42.71,29 z"/></g></svg>