<svg xmlns="http://www.w3.org/2000/svg"  viewBox="0 0 48 48" width="48px" height="48px"><path fill="#d6e5e5" d="M26.755,2.839c-4.41-0.56-8.813-0.065-13.25,0.212c-0.971,0.061-2.004,0.155-2.772,0.752 C9.939,4.421,9.598,5.45,9.374,6.433c-0.574,2.519-0.651,5.122-0.726,7.705c-0.095,3.288-0.191,6.577-0.286,9.865 C8.179,30.332,7.931,36.635,9.331,42.81c0.176,0.777,0.414,1.607,1.043,2.097c0.464,0.362,1.061,0.562,1.649,0.573 c8.113,0.163,15.582,0.029,22.601-0.169c1.426-0.04,3.889,0.049,4.958-0.895c1.504-1.328,0.661-3.957,0.806-5.958 c0.605-8.377-2.022-16.989-1.061-25.333c0.104-0.906,0.335-1.837,0.063-2.708c-0.202-0.646-0.394-1.239-0.799-1.782 c-0.635-0.852-1.098-1.705-1.733-2.557c-1.034-1.388-2.186-2.86-3.851-3.334C30.964,2.163,28.864,3.106,26.755,2.839z"/><path fill="#bcbcbc" d="M31.692,2.589c0,0-0.661,5.177,0.183,6.622s0.624,1.321,3.281,1.314s4.422,0.005,4.422,0.005 s-1.952-3.944-3.525-5.494C34.48,3.485,34.387,2.302,31.692,2.589z"/><path fill="#010101" d="M40.933,40.312c-0.044-0.648-0.085-1.262-0.044-1.817c0.289-4.016-0.16-8.128-0.594-12.105 c-0.477-4.362-0.969-8.873-0.47-13.206c0.02-0.176,0.045-0.353,0.07-0.529c0.11-0.777,0.225-1.58-0.027-2.386 c-0.191-0.611-0.408-1.304-0.875-1.932c-0.311-0.417-0.579-0.834-0.847-1.251c-0.281-0.436-0.562-0.871-0.886-1.307 c-0.936-1.256-2.217-2.977-4.115-3.516c-1.236-0.349-2.465-0.192-3.654-0.04c-0.927,0.118-1.804,0.231-2.674,0.12 c-3.7-0.469-7.442-0.203-11.06,0.054c-0.761,0.054-1.522,0.107-2.285,0.155c-1.116,0.069-2.188,0.188-3.047,0.856 C9.482,4.143,9.108,5.351,8.887,6.321C8.3,8.9,8.223,11.556,8.148,14.123c-0.031,1.095-0.082,2.188-0.132,3.283 c-0.099,2.162-0.202,4.398-0.154,6.607c0.036,1.683,0.023,3.383,0.011,5.026c-0.036,4.563-0.072,9.282,0.971,13.881 c0.19,0.84,0.458,1.785,1.223,2.381c0.544,0.424,1.235,0.664,1.946,0.679c2.58,0.052,5.078,0.073,7.486,0.073 c5.587,0,10.681-0.116,15.14-0.242l0.555-0.011c1.537-0.024,3.642-0.058,4.72-1.009C41.158,43.692,41.038,41.896,40.933,40.312z M36.458,6.376c0.31,0.417,0.578,0.834,0.847,1.251c0.28,0.436,0.561,0.871,0.885,1.307c0.248,0.333,0.409,0.708,0.543,1.089 l-4.669-0.029c-0.358-0.002-0.728-0.004-1.018-0.135c-0.485-0.218-0.804-0.816-0.977-1.828c-0.2-1.178-0.144-2.443-0.084-3.782 c0.017-0.39,0.028-0.781,0.039-1.172c0.285,0.025,0.568,0.069,0.847,0.149C34.326,3.638,35.356,4.896,36.458,6.376z M39.252,44.042 c-0.801,0.707-2.77,0.738-4.073,0.759l-0.568,0.011c-6.369,0.181-14.032,0.342-22.578,0.169c-0.49-0.01-0.982-0.181-1.352-0.468 c-0.505-0.393-0.71-1.142-0.862-1.813c-1.018-4.486-0.983-8.938-0.947-13.652c0.013-1.651,0.026-3.358-0.01-5.056 c-0.047-2.175,0.055-4.395,0.153-6.541c0.05-1.1,0.101-2.199,0.133-3.299c0.073-2.52,0.148-5.125,0.713-7.608 c0.196-0.859,0.489-1.81,1.179-2.347c0.634-0.494,1.542-0.588,2.496-0.647c0.765-0.048,1.529-0.103,2.293-0.156 c2.149-0.152,4.343-0.309,6.535-0.309c1.448,0,2.895,0.068,4.328,0.25c0.998,0.126,1.979,0.001,2.927-0.12 c0.48-0.062,0.947-0.115,1.406-0.142c-0.011,0.377-0.021,0.755-0.038,1.131c-0.059,1.333-0.121,2.712,0.098,3.995 c0.232,1.365,0.74,2.206,1.55,2.572c0.484,0.218,1.005,0.221,1.425,0.223l4.934,0.03c0.001,0,0.002,0,0.003,0 c0.002,0,0.004-0.001,0.007-0.001c0.047,0.466-0.024,0.967-0.099,1.49c-0.026,0.186-0.053,0.371-0.074,0.555 c-0.512,4.445-0.013,9.013,0.47,13.43c0.43,3.934,0.873,8,0.59,11.925c-0.045,0.625,0,1.302,0.044,1.956 C40.034,41.864,40.128,43.269,39.252,44.042z"/><path fill="#4b7bb2" d="M27.708,32.5c-3.972,0.039-7.741-0.139-11.713-0.099c-0.651,0.006-1.323,0.009-1.924-0.241 c-1.218-0.507-1.823-2.126-1.235-3.307c0.588-1.181,2.243-1.676,3.383-1.01c-0.341-1.475-0.011-3.07,0.604-4.453 c0.615-1.383,2.169-2.67,3.677-2.795c1.581-0.131,2.343,0.36,3.281,1.64s0.782,2.756,0.782,4.323c0.025-1.886,1.552-2.64,3-2.973 c1.325-0.305,2.97,0.226,3.742,1.344c0.772,1.119,0.676,2.864,0.088,4.09c1.292-0.623,2.866,0.339,3.045,1.761 c0.04,0.314,0.008,0.649-0.163,0.914c-0.371,0.575-1.098,0.866-1.781,0.821C31.004,32.417,29.198,32.597,27.708,32.5z"/><path fill="#010101" d="M28.761,33.029c-0.365,0-0.723-0.008-1.066-0.029c-1.987,0.021-3.952-0.016-5.852-0.05 S17.98,32.882,16,32.9c-0.664,0.006-1.417,0.016-2.122-0.28c-0.707-0.294-1.28-0.909-1.57-1.687 c-0.291-0.778-0.261-1.617,0.08-2.304c0.342-0.687,0.994-1.217,1.789-1.454c0.475-0.143,0.963-0.168,1.422-0.085 c-0.119-1.506,0.328-2.919,0.766-3.904c0.724-1.629,2.484-2.958,4.093-3.091c1.888-0.155,2.762,0.527,3.726,1.842 c0.54,0.737,0.756,1.53,0.839,2.337c0.516-0.492,1.288-0.916,2.427-1.179c1.572-0.361,3.407,0.304,4.266,1.548 c0.737,1.068,0.767,2.506,0.458,3.681c0.437,0.006,0.904,0.098,1.328,0.328c0.788,0.428,1.323,1.199,1.432,2.063 c0.061,0.479-0.022,0.911-0.239,1.248c-0.451,0.696-1.333,1.111-2.233,1.049c-0.721-0.048-1.548-0.027-2.347-0.006 C29.665,33.018,29.208,33.029,28.761,33.029z M27.708,32c0.011,0,0.021,0,0.032,0.001c0.723,0.049,1.549,0.027,2.348,0.006 c0.821-0.02,1.67-0.042,2.438,0.008c0.548,0.038,1.076-0.202,1.329-0.594c0.086-0.134,0.117-0.34,0.087-0.58 c-0.069-0.545-0.412-1.035-0.917-1.311c-0.463-0.251-0.979-0.274-1.415-0.063c-0.191,0.092-0.42,0.054-0.57-0.097 c-0.15-0.149-0.189-0.378-0.098-0.569c0.495-1.032,0.637-2.597-0.049-3.59c-0.628-0.911-2.043-1.414-3.218-1.142 c-1.741,0.401-2.596,1.217-2.612,2.493c-0.003,0.273-0.227,0.493-0.5,0.493c-0.001,0-0.002,0-0.003,0 c-0.275-0.002-0.497-0.226-0.497-0.5V26.55c0-0.001,0-0.002,0-0.002l0.005-0.584c0.017-1.315,0.031-2.45-0.69-3.436 c-0.896-1.222-1.529-1.545-2.836-1.437c-1.251,0.104-2.684,1.202-3.261,2.501c-0.649,1.46-0.853,2.929-0.574,4.137 c0.045,0.194-0.03,0.396-0.191,0.515c-0.16,0.118-0.376,0.131-0.548,0.029c-0.424-0.246-0.971-0.298-1.503-0.14 c-0.531,0.159-0.961,0.502-1.18,0.941s-0.233,0.989-0.039,1.509c0.194,0.519,0.565,0.925,1.019,1.113 c0.517,0.217,1.135,0.211,1.727,0.203c1.993-0.021,3.964,0.016,5.871,0.05c1.9,0.034,3.864,0.069,5.843,0.05 C27.705,32,27.707,32,27.708,32z"/></svg>