<svg xmlns="http://www.w3.org/2000/svg"  viewBox="0 0 48 48" width="48px" height="48px"><path fill="#d6e5e5" d="M4.447,33.494c6.165-0.14,10.401-0.209,16.559,0.118c6.683,0.355,13.771,1.521,20.218-0.246 c1.491-0.409,3.038-0.989,3.969-2.203c0.498-0.65,0.781-1.439,0.936-2.239c0.647-3.347-1.338-7.833-4.352-9.521 c-0.57-0.319-1.188-0.58-1.664-1.025c-0.467-0.437-0.761-1.02-0.995-1.61c-0.982-2.474-1.142-5.295-3.014-7.211 c-0.96-0.983-2.283-1.575-3.644-1.837c-2.109-0.407-4.393-0.031-6.171,1.155s-2.995,3.099-3.057,5.208 c-0.885-3.339-5.933-4.375-9.044-2.77c-3.111,1.605-4.043,5.006-3.4,8.397c-2.359-1.685-5.596-0.919-7.225,1.457 c-1.629,2.376-1.098,5.866,1.013,7.842c-1.295-0.395-3.096,0.85-3.033,2.179C1.604,32.517,3.074,33.525,4.447,33.494z"/><path fill="#010101" d="M33.101,34.817c-2.607,0-5.236-0.205-7.824-0.407c-1.443-0.112-2.88-0.225-4.297-0.3 c-6.055-0.321-10.281-0.258-16.521-0.116c-0.023,0-0.048,0.001-0.071,0.001c-1.535,0-3.268-1.126-3.345-2.784 c-0.036-0.751,0.363-1.508,1.094-2.075c0.407-0.316,0.865-0.532,1.324-0.634c-1.633-2.218-1.82-5.417-0.311-7.618 c0.9-1.313,2.3-2.223,3.839-2.494c1.088-0.193,2.18-0.06,3.156,0.378c-0.36-3.552,1.023-6.46,3.813-7.899 c1.96-1.012,4.691-1.06,6.799-0.126c0.942,0.418,1.701,1.008,2.232,1.721c0.464-1.576,1.528-3.008,3.022-4.004 c1.839-1.229,4.226-1.678,6.543-1.23c1.591,0.308,2.941,0.991,3.906,1.979c1.365,1.397,1.875,3.227,2.368,4.996 c0.222,0.795,0.45,1.617,0.754,2.381c0.18,0.453,0.44,1.025,0.871,1.429c0.309,0.289,0.705,0.497,1.125,0.718 c0.148,0.077,0.297,0.155,0.442,0.237c3.144,1.76,5.293,6.457,4.598,10.051c-0.189,0.98-0.536,1.804-1.03,2.448 c-1.044,1.362-2.726,1.968-4.233,2.381C38.683,34.58,35.904,34.817,33.101,34.817z M12.328,32.878c2.768,0,5.477,0.063,8.704,0.234 c1.426,0.075,2.87,0.188,4.322,0.302c5.284,0.411,10.746,0.838,15.737-0.531c1.347-0.368,2.84-0.897,3.704-2.024 c0.398-0.521,0.682-1.203,0.841-2.029c0.611-3.159-1.345-7.444-4.104-8.989c-0.138-0.077-0.277-0.15-0.418-0.225 c-0.46-0.241-0.937-0.491-1.344-0.872c-0.576-0.54-0.899-1.24-1.117-1.791c-0.323-0.813-0.56-1.66-0.788-2.48 c-0.48-1.724-0.934-3.352-2.119-4.565c-1.038-1.063-2.411-1.509-3.381-1.695c-2.063-0.397-4.176-0.005-5.799,1.08 c-1.721,1.147-2.781,2.944-2.835,4.807c-0.008,0.248-0.196,0.453-0.442,0.482c-0.258,0.025-0.478-0.129-0.541-0.369 c-0.37-1.396-1.508-2.16-2.397-2.555c-1.845-0.819-4.231-0.779-5.934,0.101c-2.642,1.362-3.814,4.301-3.138,7.859 c0.038,0.201-0.05,0.405-0.222,0.515c-0.171,0.11-0.393,0.105-0.561-0.014c-0.964-0.688-2.149-0.952-3.333-0.743 C5.887,19.6,4.725,20.356,3.975,21.45c-1.453,2.119-1.031,5.347,0.942,7.193c0.17,0.159,0.207,0.414,0.091,0.615 s-0.356,0.294-0.579,0.229c-0.482-0.152-1.146,0.022-1.679,0.438c-0.463,0.36-0.729,0.823-0.709,1.239 c0.05,1.044,1.291,1.831,2.347,1.831c0.017,0,0.032,0,0.048-0.001l0,0C7.379,32.928,9.877,32.878,12.328,32.878z"/><path fill="#febf10" d="M16.782,21.834c0.165,4.766-0.326,9.362-0.16,14.127c0.005,0.156,0.01,0.318-0.048,0.463 c-0.356,0.895-3.335,0.164-3.403,1.125c1.621,1.476,4.076,3.483,5.705,4.951c1.246-1.405,3.392-3.562,4.638-4.968 c-0.466-0.544-3.152-0.623-3.177-1.132c-0.212-4.444,0.282-9.628,0.07-14.073c-0.015-0.313-0.294-0.551-0.561-0.715 c-0.162-0.099-0.365-0.095-0.555-0.087C18.516,21.557,17.557,21.803,16.782,21.834z"/><path fill="#010101" d="M18.875,43c-0.123,0-0.242-0.046-0.335-0.129c-0.773-0.696-1.733-1.515-2.701-2.341 c-1.072-0.914-2.153-1.836-3.005-2.612c-0.113-0.103-0.173-0.252-0.162-0.404c0.066-0.929,1.155-0.995,2.116-1.054 c0.42-0.025,1.2-0.073,1.326-0.229c0.015-0.041,0.011-0.162,0.007-0.251c-0.083-2.401,0-4.79,0.081-7.1 c0.08-2.293,0.162-4.664,0.08-7.029c-0.009-0.275,0.205-0.507,0.48-0.518c0.358-0.014,0.785-0.082,1.197-0.148 c0.439-0.07,0.895-0.143,1.31-0.16c0.216-0.007,0.543-0.02,0.838,0.162c0.51,0.313,0.778,0.689,0.798,1.117 c0.107,2.242,0.035,4.701-0.034,7.079c-0.067,2.294-0.137,4.664-0.044,6.82c0.228,0.094,0.741,0.199,1.098,0.272 c1.015,0.21,1.653,0.363,1.968,0.73c0.162,0.189,0.16,0.47-0.006,0.657c-0.627,0.708-1.482,1.606-2.337,2.504 c-0.842,0.884-1.683,1.767-2.301,2.464c-0.088,0.1-0.213,0.16-0.346,0.167C18.894,43,18.885,43,18.875,43z M13.919,37.55 c0.768,0.685,1.672,1.455,2.568,2.22c0.825,0.703,1.645,1.402,2.349,2.025c0.577-0.633,1.283-1.375,1.989-2.116 c0.662-0.695,1.324-1.391,1.879-1.996c-0.305-0.087-0.7-0.168-0.981-0.227c-1.077-0.222-1.855-0.383-1.886-1.031 c-0.107-2.24-0.035-4.695,0.034-7.07c0.069-2.358,0.142-4.798,0.036-7.003c-0.002-0.04-0.072-0.158-0.323-0.313 c-0.042-0.023-0.205-0.017-0.276-0.014c-0.354,0.014-0.778,0.082-1.188,0.147c-0.273,0.044-0.552,0.089-0.823,0.12 c0.059,2.24-0.02,4.465-0.095,6.622c-0.08,2.293-0.162,4.664-0.08,7.029c0.006,0.176,0.016,0.419-0.082,0.664 c-0.292,0.733-1.257,0.793-2.189,0.85C14.58,37.475,14.188,37.498,13.919,37.55z"/><path fill="#ef4823" d="M29.031,20.594c-1.45,1.467-3.725,3.931-4.5,5.852c0.863-0.065,2.347-0.014,2.717,0.779 c0.122,0.262,0.137,0.56,0.15,0.849c0.171,3.901,0.014,8.43,0.185,12.33c0.014,0.312,0.045,0.662,0.282,0.862 c0.203,0.171,0.493,0.175,0.757,0.17c0.626-0.011,1.843-0.023,2.469-0.034c0.163-0.003,0.343-0.012,0.463-0.124 c0.148-0.137,0.148-0.369,0.137-0.572c-0.228-4.111-0.456-9.223-0.683-13.334c-0.013-0.227-0.022-0.469,0.094-0.663 c0.416-0.703,2.656,0.063,3.265-0.476C32.869,24.185,30.529,22.643,29.031,20.594z"/><path fill="#010101" d="M28.508,41.938c-0.274,0-0.656-0.029-0.965-0.288c-0.422-0.357-0.446-0.921-0.46-1.224 c-0.085-1.961-0.089-4.108-0.093-6.187c-0.003-2.066-0.006-4.203-0.092-6.144c-0.01-0.237-0.021-0.483-0.103-0.658 c-0.177-0.377-1.096-0.58-2.227-0.492c-0.174,0.007-0.34-0.063-0.441-0.204c-0.103-0.14-0.125-0.321-0.061-0.482 c0.612-1.517,2.163-3.541,4.608-6.017c0.103-0.104,0.25-0.161,0.393-0.147c0.146,0.012,0.28,0.086,0.366,0.204 c0.721,0.986,1.68,1.883,2.605,2.75c0.961,0.898,1.953,1.827,2.729,2.89c0.152,0.208,0.121,0.498-0.071,0.669 c-0.441,0.39-1.17,0.35-1.942,0.31c-0.383-0.021-1.092-0.06-1.234,0.061c-0.032,0.059-0.021,0.252-0.015,0.367 c0.114,2.058,0.229,4.364,0.342,6.671c0.114,2.305,0.229,4.609,0.342,6.664c0.012,0.215,0.035,0.659-0.296,0.966 c-0.269,0.247-0.611,0.254-0.795,0.257l-2.468,0.034C28.594,41.938,28.552,41.938,28.508,41.938z M25.333,25.932 c0.876,0.034,1.98,0.252,2.368,1.081c0.167,0.355,0.184,0.734,0.197,1.04c0.085,1.96,0.089,4.108,0.092,6.186 c0.004,2.066,0.007,4.204,0.093,6.145c0.005,0.117,0.019,0.429,0.105,0.502c0.069,0.059,0.306,0.057,0.425,0.052l2.468-0.034 c0.024,0,0.084-0.001,0.127-0.006c-0.012-0.019-0.011-0.073-0.016-0.163c-0.114-2.056-0.229-4.362-0.342-6.669 c-0.114-2.305-0.229-4.609-0.342-6.664c-0.014-0.243-0.034-0.612,0.163-0.945c0.375-0.633,1.271-0.585,2.138-0.537 c0.186,0.011,0.459,0.022,0.688,0.022c-0.643-0.76-1.401-1.47-2.141-2.162c-0.817-0.765-1.659-1.552-2.37-2.424 C27.248,23.153,26.004,24.713,25.333,25.932z"/></svg>