<svg xmlns="http://www.w3.org/2000/svg" width="48" height="48" viewBox="0 0 48 48"><path fill="#73a1b2" d="M21.968,37.695l-5.114-1.342c-1.543-0.405-3.153-0.487-4.729-0.241l-7.766,1.211l0.652,2.236	l6.287-1.671c0.713-0.189,1.447-0.282,2.185-0.275L21.968,37.695z"/><path fill="#73a1b2" d="M27.651,37.229l7.733,0.186l7.454,1.863l0.28-1.957l-4.389-1.045	c-2.261-0.538-4.616-0.545-6.88-0.021L27.651,37.229z"/><path fill="#d6e5e5" d="M24.017,38.347c0,0,5.859-2.216,7.92-2.422c4.659-0.466,11.833,1.398,11.833,1.398l0.186-12.764	L42.652,7.135l-9.597-0.652l-8.944,2.888L24.017,38.347z"/><path fill="#c0e6ed" d="M23.831,38.161l-6.925-1.748c-1.763-0.445-3.598-0.53-5.394-0.25l-7.433,1.159L3.877,8.349	C3.881,7.66,4.416,7.09,5.104,7.041l9.145-0.235c0.422-0.03,4.329,0.309,4.737,0.421l4.752,1.957L23.831,38.161z"/><polygon fill="#16b7b8" points="19.941 30.84 13.061 31.295 15.977 25.964 19.987 26.146"/><polygon fill="#febf10" points="10.828 31.432 6.636 31.605 6.636 26.112 13.334 26.42"/><polygon fill="#febf10" points="33.024 23.72 27.09 24.154 26.8 19.451 32.3 18.944"/><rect width="13.384" height="4.694" x="7.035" y="19.32" fill="#cbdb2d"/><polygon fill="#cbdb2d" points="40.043 17.135 27.524 17.135 27.307 13.589 29.044 11.418 40.188 11.707"/><rect width="5.294" height="5.094" x="14.926" y="11.529" fill="#8a4581"/><polygon fill="#8a4581" points="40.261 30.74 33.096 31.029 27.524 32.621 27.662 26.219 39.994 26.219"/><rect width="5.993" height="5.693" x="7.068" y="11.511" fill="#fcbf95"/><polygon fill="#fcbf95" points="40.333 24.154 35.195 24.372 34.712 18.965 39.971 19.306"/><path fill="#010101" d="M24.363,39.291l-0.345-0.098c-3.259-2.646-8.875-2.831-10.522-2.822	c-3.225,0.013-5.644,0.591-8.707,1.321l-1.38,0.328l0.04-0.671c0.545-9.141,0.589-18.416,0.13-27.567	C3.526,8.73,3.594,7.571,4.5,6.953c0.406-0.277,0.86-0.352,1.329-0.41l0,0c3.271-0.407,8.629-0.535,11.931-0.046	c3.517,0.521,5.652,1.78,6.351,2.251c0.877-0.381,3.771-1.582,6.822-2.245c4.262-0.925,11.489-0.317,12.328,0.359l0.187,0.15	l0.046,0.312c0,4.956,0.264,8.083,0.543,11.394c0.221,2.623,0.45,5.335,0.545,9.067c0.053,2.094-0.164,7.873-0.472,9.871	l-0.103,0.668l-0.609-0.294c-3.132-1.516-7.092-1.72-9.799-1.742c-0.044,0-0.088,0-0.131,0c-3.363,0-6.491,1.03-8.821,2.907	L24.363,39.291z M13.581,35.371c1.778,0,7.267,0.224,10.751,2.8c2.502-1.89,5.797-2.922,9.274-2.884	c2.628,0.021,6.406,0.212,9.599,1.558c0.255-2.351,0.423-7.17,0.376-9.035c-0.094-3.702-0.321-6.4-0.541-9.008	c-0.276-3.274-0.537-6.37-0.546-11.216c-1.237-0.42-7.426-0.959-11.348-0.104c-3.475,0.755-6.853,2.28-6.886,2.295l-0.275,0.125	l-0.24-0.186c-0.021-0.017-2.14-1.637-6.131-2.228C14.439,7.016,9.089,7.146,5.952,7.536l0,0C5.597,7.58,5.285,7.628,5.063,7.779	C4.566,8.119,4.539,8.957,4.579,9.732c0.449,8.963,0.418,18.045-0.092,27.005l0.071-0.017c3.126-0.746,5.595-1.335,8.935-1.349	C13.521,35.371,13.55,35.371,13.581,35.371z"/><path fill="#010101" d="M42.968,40.021l-0.458-0.175c-5.537-2.117-11.098-2.613-16.527-1.476	c-0.297,0.062-0.956,0.525-1.196,0.839l-0.212,0.278l-0.334-0.104c-6.477-2.021-13.4-1.87-18.521,0.403	c-0.271,0.12-0.576,0.116-0.864-0.007c-0.34-0.146-0.616-0.443-0.74-0.794c-0.123-0.347-0.112-0.701-0.066-1.015	c-0.229-0.163-0.31-0.458-0.194-0.728c0.127-0.298,0.438-0.462,0.74-0.386c0.369,0.092,0.599,0.492,0.513,0.892	c-0.079,0.369-0.132,0.669-0.049,0.904c0.03,0.086,0.111,0.174,0.192,0.209c5.317-2.323,12.369-2.519,18.981-0.526	c0.417-0.408,1.074-0.845,1.545-0.943c5.46-1.146,11.044-0.695,16.604,1.339c0.129-0.464,0.183-0.951,0.155-1.431l0.998-0.058	c0.046,0.789-0.087,1.593-0.384,2.325L42.968,40.021z"/><path fill="#010101" d="M23.797,38.722c-0.003-0.792-0.147-1.949-0.287-3.069c-0.143-1.148-0.291-2.334-0.294-3.185	c-0.004-0.923,0.042-1.721,0.085-2.493c0.042-0.756,0.086-1.539,0.083-2.432c-0.008-1.93,0.039-3.888,0.083-5.782	c0.045-1.883,0.091-3.83,0.083-5.741c-0.004-1.13-0.063-2.285-0.12-3.402c-0.057-1.129-0.116-2.296-0.121-3.45l1-0.004	c0.004,1.13,0.063,2.286,0.12,3.403c0.057,1.128,0.116,2.295,0.121,3.449c0.008,1.925-0.039,3.879-0.083,5.769	c-0.045,1.887-0.091,3.839-0.083,5.754c0.004,0.923-0.042,1.721-0.085,2.493c-0.042,0.756-0.086,1.539-0.083,2.432	c0.003,0.79,0.147,1.947,0.287,3.065c0.143,1.149,0.291,2.337,0.294,3.189L23.797,38.722z"/><path fill="#010101" d="M10.407,17.784c-0.94,0-1.88-0.09-2.812-0.27c-0.122-0.023-0.376-0.072-0.566-0.277	c-0.193-0.208-0.221-0.471-0.234-0.598c-0.017-0.149-0.045-0.354-0.078-0.593c-0.297-2.141-0.497-4.121,0.322-4.821	c0.621-0.531,2.175-0.494,4.137-0.393c0.491,0.026,0.912,0.049,1.163,0.039h0c0.146-0.006,0.449-0.018,0.699,0.187	c0.295,0.242,0.31,0.611,0.316,0.77c0.069,1.759,0.041,3.54-0.083,5.294l-0.027,0.393l-0.389,0.065	C12.042,17.716,11.225,17.784,10.407,17.784z M9.328,11.772c-0.749,0-1.445,0.046-1.639,0.213c-0.313,0.268-0.307,1.587,0.018,3.923	c0.035,0.251,0.064,0.465,0.082,0.624c1.492,0.288,3.01,0.33,4.512,0.121c0.098-1.587,0.117-3.194,0.055-4.782	c-0.274,0.009-0.718-0.013-1.231-0.04C10.693,11.809,9.99,11.772,9.328,11.772z"/><path fill="#010101" d="M19.004,17.577c-0.045,0-0.091-0.001-0.137-0.004c-0.396-0.025-0.75-0.144-1.091-0.258l-0.239-0.079	c-0.869-0.273-1.809-0.37-2.716-0.279l-0.375,0.038l-0.141-0.351c-0.064-0.161-0.514-4.352,0.544-5.156	c0.932-0.71,2.756-0.478,4.221-0.29c0.435,0.056,0.824,0.106,1.114,0.118l0.384,0.015l0.083,0.375	c0.315,1.411,0.17,2.889,0.042,4.192c-0.028,0.29-0.064,0.649-0.271,0.977C20.146,17.315,19.61,17.577,19.004,17.577z M15.491,15.924c0.796,0,1.595,0.121,2.348,0.358l0.255,0.084c0.294,0.099,0.572,0.192,0.838,0.208	c0.238,0.014,0.531-0.051,0.647-0.234c0.081-0.127,0.102-0.347,0.121-0.54c0.114-1.166,0.232-2.368,0.046-3.516	c-0.239-0.023-0.511-0.058-0.802-0.095c-1.147-0.146-2.882-0.367-3.489,0.094c-0.33,0.326-0.328,2.531-0.241,3.645	C15.307,15.925,15.398,15.924,15.491,15.924z"/><path fill="#010101" d="M15.264,24.767c-1,0-1.999-0.095-2.975-0.188c-1.869-0.178-3.635-0.345-5.342,0.106l-0.286,0.075	l-0.204-0.213c-0.348-0.365,0.288-5.364,0.301-5.407l0.138-0.452L7.354,18.8c3.025,0.736,6.936,0.321,10.385-0.043	c1.03-0.109,2.026-0.214,2.957-0.286l0.536-0.041l0.002,0.538c0.005,1.179-0.049,2.369-0.16,3.535	c-0.045,0.479-0.106,0.945-0.339,1.381c-0.214,0.401-0.517,0.833-1.22,0.802l-0.189,0c-0.3,0.004-0.55-0.001-0.746-0.055	c-0.457-0.124-0.968-0.056-1.51,0.014l-0.362,0.045C16.228,24.745,15.745,24.767,15.264,24.767z M9.438,23.398	c0.988,0,1.975,0.094,2.945,0.186c1.396,0.133,2.839,0.269,4.212,0.113l0.346-0.043c0.616-0.08,1.252-0.163,1.901,0.012	c0.081,0.022,0.348,0.019,0.479,0.02l0.229,0.001c0.135,0.001,0.155,0.005,0.303-0.274c0.146-0.274,0.189-0.617,0.226-1.005	c0.091-0.955,0.142-1.927,0.153-2.895c-0.763,0.067-1.564,0.152-2.388,0.239c-3.335,0.353-7.091,0.75-10.191,0.138	c-0.093,0.874-0.238,2.71-0.303,3.683C8.042,23.445,8.741,23.398,9.438,23.398z"/><path fill="#010101" d="M8.625,32.384c-0.292,0-0.574-0.017-0.836-0.033c-0.314-0.019-0.842-0.05-1.21-0.43	c-0.223-0.23-0.312-0.514-0.379-0.762c-0.406-1.516-1.162-4.337,0.962-5.325c0.597-0.278,6.132-0.109,6.578,0.349l0.248,0.255	l-0.155,0.334L12.414,29.6c-0.397,0.792-0.942,1.877-1.961,2.408C9.868,32.312,9.226,32.384,8.625,32.384z M8.68,26.674	c-0.545,0-0.961,0.021-1.108,0.072c-1.245,0.579-0.863,2.448-0.406,4.154c0.026,0.098,0.071,0.262,0.133,0.326	c0.097,0.1,0.381,0.117,0.55,0.127c0.862,0.052,1.566,0.067,2.144-0.233c0.676-0.352,1.092-1.1,1.528-1.968l1.135-2.262	C11.732,26.778,9.89,26.674,8.68,26.674z"/><path fill="#010101" d="M13.832,32.168c-0.599,0-1.013-0.254-1.132-0.707c-0.081-0.314,0.033-0.597,0.094-0.749l0,0	c0.093-0.231,0.192-0.498,0.299-0.784c0.489-1.315,1.098-2.952,2.032-3.763c0.981-0.852,2.249-0.724,3.367-0.613	c0.253,0.025,0.503,0.05,0.746,0.063c0.258,0.014,0.738,0.04,1.061,0.394c0.257,0.28,0.297,0.645,0.319,0.841	c0.136,1.22,0.083,2.448-0.159,3.65c-0.04,0.198-0.096,0.426-0.268,0.625c-0.275,0.318-0.686,0.369-0.906,0.396l-5.162,0.629	C14.021,32.162,13.924,32.168,13.832,32.168z M13.694,31.158c0.065,0.011,0.17,0.015,0.307-0.001l5.161-0.629	c0.057-0.007,0.232-0.029,0.275-0.061c0.011-0.021,0.033-0.129,0.04-0.165c0.221-1.101,0.271-2.226,0.146-3.343	c-0.021-0.196-0.046-0.258-0.062-0.276c-0.032-0.035-0.158-0.058-0.376-0.069c-0.257-0.014-0.523-0.04-0.792-0.067	c-1.006-0.102-1.956-0.197-2.612,0.373c-0.741,0.644-1.324,2.211-1.75,3.356c-0.11,0.296-0.212,0.572-0.309,0.81l0,0	C13.716,31.1,13.704,31.129,13.694,31.158z"/><path fill="#010101" d="M29.049,17.836c-0.429,0-1.059-0.032-1.513-0.453c-0.918-0.85-1.209-2.278-0.761-3.728	c0.426-1.378,1.423-2.375,2.539-2.541c2.251-0.333,4.722-0.169,7.11-0.011c1.177,0.078,2.289,0.152,3.366,0.168	c0.153,0.003,0.467,0.009,0.706,0.243c0.227,0.221,0.249,0.518,0.26,0.661c0.083,1.152,0.125,2.321,0.123,3.477	c0,0.395-0.001,1.129-0.494,1.62c-0.486,0.483-1.199,0.489-1.625,0.492l-9.593,0.071C29.129,17.836,29.09,17.836,29.049,17.836z M32.3,11.922c-0.978,0-1.932,0.048-2.839,0.183c-0.737,0.109-1.417,0.834-1.73,1.847c-0.262,0.845-0.271,1.998,0.485,2.699l0,0	c0.19,0.176,0.57,0.187,0.943,0.186l9.593-0.071c0.37-0.003,0.746-0.021,0.927-0.201c0.183-0.183,0.199-0.567,0.199-0.913	c0.002-1.124-0.038-2.26-0.119-3.379c-1.097-0.018-2.269-0.095-3.402-0.17C35.009,12.013,33.634,11.922,32.3,11.922z"/><path fill="#010101" d="M28.862,24.804c-0.577,0-1.154-0.024-1.73-0.073l-0.347-0.029l-0.093-0.336	c-0.44-1.587-0.468-3.273-0.081-4.874c0.042-0.173,0.119-0.495,0.396-0.717c0.207-0.167,0.448-0.208,0.592-0.233l0.139-0.024	c1.356-0.24,3.881-0.688,4.985,0.423c0.624,0.629,0.86,4.457,0.686,5.04l-0.085,0.285l-0.33,0.121	C31.63,24.664,30.247,24.804,28.862,24.804z M27.569,23.761c1.641,0.106,3.288,0.009,4.905-0.293	c0.042-0.896-0.231-3.461-0.482-3.848c-0.713-0.714-3.072-0.297-4.08-0.118l-0.142,0.025c-0.033,0.006-0.121,0.021-0.146,0.035l0,0	c0.007,0-0.012,0.043-0.042,0.165C27.263,21.05,27.259,22.438,27.569,23.761z"/><path fill="#010101" d="M37.943,25.046c-0.869,0-1.738-0.081-2.6-0.242l-0.222-0.042l-0.115-0.193	c-1.015-1.701-1.263-3.843-0.663-5.73l0,0c0.12-0.378,0.527-0.471,0.661-0.502c0.958-0.22,4.531,0.054,5.15,0.708	c0.877,0.928,0.771,2.897,0.586,4.835l-0.076,0.906l-0.386,0.065C39.502,24.981,38.723,25.046,37.943,25.046z M35.753,23.861	c1.318,0.224,2.655,0.244,3.979,0.062l0.012-0.137c0.104-1.097,0.321-3.378-0.317-4.054c-0.44-0.307-3.438-0.611-4.18-0.43	C34.817,20.809,35.003,22.485,35.753,23.861z"/><path fill="#010101" d="M27.181,33.413l-0.101-0.748c-0.217-1.614-0.352-3.256-0.4-4.879c-0.013-0.43-0.003-0.883,0.26-1.283	c0.334-0.51,0.902-0.683,1.465-0.793l0,0c1.96-0.385,3.975-0.537,5.991-0.445c0.824,0.037,1.674,0.206,2.496,0.369	c1.076,0.214,2.091,0.416,3.031,0.342l0.384-0.03l0.127,0.364c0.359,1.03,0.389,2.238,0.417,3.406	c0.01,0.416,0.021,0.824,0.046,1.209l0.037,0.557l-0.558-0.024c-2.965-0.126-5.956,0.034-8.886,0.478	c-1.179,0.179-2.532,0.425-3.661,1.093L27.181,33.413z M33.257,26.239c-1.57,0-3.133,0.151-4.659,0.452h0	c-0.349,0.068-0.69,0.159-0.822,0.36c-0.104,0.158-0.104,0.424-0.096,0.705c0.04,1.353,0.141,2.718,0.302,4.069	c1.109-0.504,2.301-0.718,3.359-0.878c2.813-0.427,5.681-0.599,8.531-0.509c-0.008-0.229-0.014-0.462-0.02-0.698	c-0.023-0.951-0.048-1.93-0.257-2.75c-0.973,0.002-1.94-0.185-2.898-0.375c-0.822-0.163-1.598-0.317-2.346-0.351	C33.986,26.248,33.622,26.239,33.257,26.239z"/></svg>