<svg xmlns="http://www.w3.org/2000/svg"  viewBox="0 0 512 512" width="48px" height="48px"><path fill="#D6E5E5" d="M208.1,312.5c-6.1-8.5-13.9-16.2-24.3-19c-10.1-2.7-20.7-2.1-30.5,1.6c-22.1,8.4-38.5,28.4-38,52.7c0.5,24.6,16.2,45.1,36.5,57.6c1.6-0.7,3.5-0.6,5.2,0.9c10.8,9.8,27.4,5.6,38.9-0.8c12.9-7.1,23.5-17.3,26.8-32.2C227.2,352.4,220.4,329.6,208.1,312.5z"/><path fill="#127274" d="M366.9,434.1c-2.9,0-5.8,0-8.8,0c-2.3,0-3.9-1.1-4.8-2.7c-5.7,3.2-11.5,6.1-17.4,8.8c-0.1,2.6-1.6,5.2-4.8,5.9c1.8-0.4,2.6-1,2.8-1.2c-0.1,0.1-0.2,0.2-0.3,0.5c-0.5,1-0.9,2-1.3,3c-0.9,2.5-1.7,5-2.4,7.6c-0.7,2.7-1.4,5.4-2,8.2c-0.2,1.1-0.4,2.2-0.6,3.3c0,0.1-0.2,2.2-0.1,0.8c0,0.6-0.1,1.2-0.3,1.7c4,0.2,7.9,0.3,11.9,0.4c7.1,0.1,14.3,0,21.4-0.4c-3.3-4.4,1.3-15.2,2.3-19.3C364,445.1,365.5,439.6,366.9,434.1z"/><path fill="#D6E5E5" d="M214.3 163.4c-.9-10.4-3.6-21-11.1-28.8-7.3-7.5-16.7-12.4-27-14.2-23.2-4.1-47.6 4.7-59.7 25.8-12.2 21.4-9.2 47 1.8 68.2 1.7.2 3.3 1.2 4 3.4 4.3 14 20.7 18.8 33.9 19.2 14.7.5 29-2.9 39.4-13.9C210.3 207.6 216.1 184.5 214.3 163.4zM369.3 137.3c-5-9.2-12.7-16.4-22.2-21-21.3-10.2-47.1-8.3-64.4 8.8-17.5 17.3-21.5 42.8-16.7 66.1 1.6.6 2.9 2.1 2.9 4.4.3 14.6 14.8 23.7 27.4 27.7 14 4.4 28.7 5.1 41.7-2.8 18.4-11.1 30.1-31.7 34.1-52.5C374.2 157.7 374.4 146.8 369.3 137.3z"/><path fill="#127274" d="M451.5 440.3c-.5-3.4-1-6.8-1.2-10.2-.5-6.6.2-13.2.7-19.8-9.3 8.6-20.5 14.8-32.8 18.3-.1 10.7-.8 21.3-.9 32 4.7-1.4 9.3-3 13.9-4.7 6.5-2.5 13.7-5 19.8-8.8.3-.6.7-1.1 1.3-1.6C452 443.7 451.7 442 451.5 440.3zM407.2 431.1c-9.6 1.7-19.2 2.5-28.9 2.8-1.4 5.3-2.8 10.5-4.2 15.8-1 3.7-1.9 7.5-2.8 11.3-.3 1.4-.6 2.7-.9 4.1 0 .2-.1.4-.1.5.2 1.3-.2 2.6-.9 3.7 10.7-.9 21.3-2.4 31.9-4.6 1.4-.3 2.9-.6 4.3-1-.2-1.4.1-2.7.7-3.9C406.5 450.3 407.1 440.7 407.2 431.1zM271.6 459.2c-2.9.4-5.7.8-8.6 1.1 2.6.6 5.3 1.1 7.9 1.7.5-1 .9-1.9 1.3-2.9C272 459.1 271.8 459.1 271.6 459.2zM321.4 446.3c-12.1 4.5-24.5 8.1-37.2 10.7.1 1 0 2.1-.5 3.1-.7 1.4-1.2 2.8-1.8 4.2 11.4 2.3 22.8 3.9 34.4 4.9 0 0 0-.1 0-.1.2-6.6 2.1-13.2 4.1-19.4C320.7 448.6 321 447.5 321.4 446.3z"/><path fill="#BCBCBC" d="M432.6,195c-9.9-31.2-33.2-54.7-60.4-72.4c10.3,12.7,14,29.2,10.8,46.2c-4,21-14.6,42-31.6,55.5c-16.2,12.8-36.4,16-55.9,9.8c-14-4.4-29.3-13-34.9-26.8c-0.8-0.6-1.5-1.4-1.9-2.7c-10.3-31.7-5.7-70.9,22.5-92.1c14-10.5,31.3-14.6,48-12.7c-2.7-1.2-5.4-2.3-8-3.4c-27.8-11.3-59.6-18.3-89.6-16.8c-27.7,1.4-54.4,11-77.7,25.9c-3,1.9-6,3.9-8.9,6c14.3-4.4,30.1-4.1,44.6,1.5c20.9,8,33.5,26.1,35.4,48.2c1.8,21.3-2.7,44.4-15.4,62c-12.1,16.7-30.7,25.2-51.2,24.5c-14.7-0.5-31.7-4.6-40.9-16.4c-1-0.3-1.9-1-2.6-2.1c-13.6-20.5-20.6-47.1-14.6-70.9c-0.6,1-1.1,1.9-1.7,2.9C85.9,184,81.2,209.4,79.1,235c-0.1,1.4-0.6,2.4-1.3,3.1c-6.7,31.4-6.7,65,2.7,95.8c8.9,28.8,25.8,56.5,51.9,72.5c2.9,1.8,5.8,3.3,8.7,4.8c-22.8-16.2-39.5-41.9-36.1-70.8c3.4-29.5,26.7-53.3,55.9-58.4c22.1-3.8,42.2,5.3,55.1,23.3c12.5,17.4,20.4,39.5,18.5,61.1c-1.9,20.5-13.5,37.4-31.4,47.3c-6.8,3.8-14.7,7-22.7,8.4c6.4,0.7,12.9,1,19.4,1c30.5,0,60.1-5.8,89.7-12.5c9.7-2.2,19.3-4.9,28.7-8.2c-10.6-0.6-21-4.2-30.4-10.5c-12.2-8.1-24.5-20.6-26.1-35.5c-0.7-0.8-1.1-1.8-1.1-3.1c-1.1-33.3,14.1-69.7,47.1-82.3c27.8-10.5,59.6-0.9,77.6,22.7c13.6,17.8,14.8,39.9,4.7,59.6c-0.8,1.6-1.6,3.1-2.5,4.6c8.3-9,15.6-18.9,21.9-29.5C432.4,289.6,446.7,239.6,432.6,195z M243.2,266.1c-3.6,0.8-7.3,1-10.9,0c-1.7-0.5-3.3-1.3-4.8-2.2c-1-0.7-2.5-2.4-3.5-2.8c-2-0.8-4-3.4-5.2-6c-1.4-0.7-2.3-2.1-2.4-4.2c-0.2-10.5,6.4-20.1,16.8-22.7c8.8-2.2,19.4-0.5,23.8,8.3C263.1,248.4,256.1,263.1,243.2,266.1z"/><path fill="#D6E5E5" d="M385.5,319.3c-2.2-10.2-7.7-19.3-15.5-26.3c-17.6-15.7-43-21.1-64.3-9.4c-21.6,11.8-32.5,35.1-34.3,58.9c1.4,1.1,2.2,2.8,1.6,5c-3.7,14.1,7.7,26.9,18.7,34.2c12.2,8.1,26.2,12.8,40.9,8.9c20.7-5.6,37.8-22.2,47.3-41C384.5,340.3,387.8,329.8,385.5,319.3z"/><path fill="#127274" d="M452,171.1c-19.8-40.1-57-71.8-96.5-91.7c-39.6-20-85.4-30.6-129.7-23.6c-84.5,13.3-166,83-170.7,172c-0.1,2-1.3,3.4-2.7,4.2c-1.2,7.9-2,15.9-2.7,23.9c-0.8,8.5-1.1,17-1,25.6c0.3,16.7,2.2,33.5,6.4,49.7c8,30.9,23.6,60,48.1,80.9c16.9,14.3,36.6,23.8,57.8,29.9c23.2,6.7,47.2,10.6,71.4,10.6c47.7,0.1,95.5-12.9,134.8-40.5C439.8,361,494.6,257.7,452,171.1z M433.4,304.2c-8.8,21.2-20.9,41.4-36,58.8c-16.6,19.1-38.3,33.7-61.4,43.7c-25,10.9-52.3,16.8-79,21.6c-28.9,5.2-59.8,8.3-88.9,3c-41.1-7.6-73.1-36-90.1-73.5c-17.4-38.3-19.5-82.4-10.5-123.2c-0.2-0.8-0.2-1.6,0.1-2.6c0.3-1.2,0.7-2.3,1.3-3.3c0-0.2,0-0.4,0-0.5c2.4-25.2,7.7-50.8,20.6-72.9c13.1-22.4,32.6-41.5,54.1-55.9c22-14.7,47.5-26,74-29.2c30.4-3.7,61.1,1.3,90.1,10.5c25.6,8.1,50.3,19.9,72.6,35c20.9,14.1,41.2,32.1,53.2,54.6C455.8,211.9,451.1,261.8,433.4,304.2z"/><path fill="#127274" d="M246.4,239.8c-6.9-5.7-17.8,0.5-19.1,8.5c0.1,0.1,0.3,0.3,0.4,0.4c0.2,0.2,0.4,0.5,0.5,0.7c0.3,0.4,0.5,0.9,0.7,1.3c0.2,0.3,0.4,0.6,0.6,0.8c-0.2-0.4,2.4,2.2,2.9,2.6c3.2,2.4,8.2,2.5,11.6,0.2C248.1,251.6,251,243.7,246.4,239.8z"/><path d="M469.9,282.8c12.1-44.5,6.3-91.7-18.2-131c-23.3-37.4-61.1-66.3-100.6-84.8c-40.1-18.7-86-27.3-129.9-19.7c-84.1,14.6-164,82-174.4,169.5c-0.1,1.2-0.3,2.4-0.4,3.5c-0.9,0.6-1.6,1.5-1.9,2.9c-2.5,12.3-3.6,24.9-4.5,37.4c-0.8,10.6-0.8,21.2-0.2,31.8C41,313,45.1,333.6,52.2,353c14.2,38.7,42.1,70.9,79.7,88.2c21.4,9.9,45.1,15.5,68.4,18.5c4.5,0.6,8.9,1,13.4,1.4c0.7,2.2,2.5,4,5.4,4.1c20.6,0.2,40.6,5.8,60.7,10c20.3,4.3,41.1,5.9,61.8,6.2c20.9,0.3,41.9-1.7,62.4-6c10.6-2.2,20.7-5.4,30.8-9.1c8.7-3.2,18.7-6.9,25.9-12.6c1.2-0.9,1.8-2,2.2-3.1c2-5-0.8-13.3-1.4-17.8c-1.5-12.5,1.6-25,0.7-37.5c-0.3-4.5-6.7-7.1-9.6-3.2c-10.7,14.4-25.1,23-42.3,27.3c-14,3.5-28.8,3.8-43.3,3.8c10.8-7.1,21.1-15.1,30.6-24C431.3,367.8,457.8,327.4,469.9,282.8z M418.2,428.6c12.3-3.5,23.5-9.7,32.8-18.3c-0.5,6.6-1.2,13.2-0.7,19.8c0.2,3.4,0.7,6.8,1.2,10.2c0.3,1.7,0.5,3.4,0.7,5.1c-0.6,0.5-1,1-1.3,1.6c-6.1,3.8-13.3,6.4-19.8,8.8c-4.6,1.7-9.2,3.3-13.9,4.7C417.5,450,418.1,439.3,418.2,428.6z M370.3,465.6c0-0.2,0.1-0.3,0.1-0.5c0.3-1.4,0.6-2.7,0.9-4.1c0.9-3.8,1.8-7.5,2.8-11.3c1.4-5.3,2.8-10.5,4.2-15.8c9.7-0.3,19.4-1.1,28.9-2.8c-0.1,9.6-0.7,19.2-0.9,28.8c-0.7,1.2-1,2.5-0.7,3.9c-1.4,0.3-2.9,0.7-4.3,1c-10.5,2.2-21.2,3.7-31.9,4.6C370.2,468.2,370.6,466.9,370.3,465.6z M270.9,462c-2.6-0.6-5.3-1.2-7.9-1.7c2.9-0.3,5.7-0.7,8.6-1.1c0.2,0,0.4-0.1,0.6-0.1C271.8,460.1,271.4,461,270.9,462z M320.4,449.7c-2,6.2-3.9,12.9-4.1,19.4c0,0,0,0.1,0,0.1c-11.5-1-23-2.6-34.4-4.9c0.6-1.4,1.1-2.8,1.8-4.2c0.5-1,0.6-2.1,0.5-3.1c12.7-2.5,25.2-6.1,37.2-10.7C321,447.5,320.7,448.6,320.4,449.7z M362.6,450.6c-1,4.1-5.6,14.9-2.3,19.3c-7.1,0.4-14.3,0.5-21.4,0.4c-4,0-7.9-0.2-11.9-0.4c0.2-0.5,0.3-1.1,0.3-1.7c0,1.4,0.1-0.7,0.1-0.8c0.1-1.1,0.4-2.2,0.6-3.3c0.5-2.8,1.2-5.5,2-8.2c0.7-2.6,1.5-5.1,2.4-7.6c0.4-1,0.8-2,1.3-3c0.1-0.3,0.2-0.4,0.3-0.5c-0.2,0.2-1,0.9-2.8,1.2c3.1-0.6,4.7-3.3,4.8-5.9c5.9-2.7,11.7-5.6,17.4-8.8c0.9,1.5,2.6,2.7,4.8,2.7c2.9,0,5.8,0,8.8,0C365.5,439.6,364,445.1,362.6,450.6z M232.4,452.6c-24.1-0.1-48.2-3.9-71.4-10.6c-21.2-6.2-40.9-15.6-57.8-29.9c-24.5-20.9-40.1-50-48.1-80.9c-4.2-16.2-6.1-33-6.4-49.7c-0.2-8.5,0.2-17.1,1-25.6c0.7-8,1.5-16,2.7-23.9c1.5-0.8,2.6-2.2,2.7-4.2c4.7-89.1,86.2-158.7,170.7-172c44.3-7,90.1,3.6,129.7,23.6C395,99.4,432.2,131,452,171.1c42.6,86.5-12.2,189.9-84.8,241C328,439.8,280.1,452.8,232.4,452.6z"/><path d="M257.1,236.5c-4.5-8.8-15.1-10.5-23.8-8.3c-10.4,2.7-17,12.2-16.8,22.7c0,2.1,1,3.4,2.4,4.2c1.1,2.6,3.2,5.1,5.2,6c1,0.4,2.5,2.2,3.5,2.8c1.5,0.9,3.1,1.7,4.8,2.2c3.6,1,7.3,0.8,10.9,0C256.1,263.1,263.1,248.4,257.1,236.5z M243.9,254.4c-3.4,2.3-8.4,2.2-11.6-0.2c-0.5-0.4-3.1-3-2.9-2.6c-0.2-0.3-0.4-0.6-0.6-0.8c-0.2-0.4-0.4-0.9-0.7-1.3c-0.2-0.3-0.3-0.5-0.5-0.7c-0.1-0.2-0.3-0.3-0.4-0.4c1.3-8,12.2-14.2,19.1-8.5C251,243.7,248.1,251.6,243.9,254.4z"/><path d="M433.7,170.2c-12-22.5-32.3-40.5-53.2-54.6c-22.3-15.1-47-26.9-72.6-35c-29-9.2-59.7-14.2-90.1-10.5c-26.5,3.2-52,14.6-74,29.2c-21.6,14.4-41,33.4-54.1,55.9c-12.9,22.1-18.2,47.7-20.6,72.9c0,0.2,0,0.4,0,0.5c-0.6,1-1,2.1-1.3,3.3c-0.3,1-0.3,1.8-0.1,2.6c-8.9,40.8-6.8,84.9,10.5,123.2c17,37.5,49,66,90.1,73.5c29.1,5.3,60,2.2,88.9-3c26.8-4.8,54-10.7,79-21.6c23.1-10.1,44.8-24.6,61.4-43.7c15.1-17.4,27.2-37.6,36-58.8C451.1,261.8,455.8,211.9,433.7,170.2z M369.3,137.3c5.1,9.5,4.9,20.4,2.9,30.7c-4,20.7-15.7,41.4-34.1,52.5c-13,7.8-27.8,7.2-41.7,2.8c-12.6-4-27.1-13.1-27.4-27.7c0-2.3-1.3-3.8-2.9-4.4c-4.9-23.3-0.9-48.8,16.7-66.1c17.3-17.1,43.2-19,64.4-8.8C356.6,120.9,364.3,128.1,369.3,137.3z M116.5,146.3c12-21.1,36.4-29.9,59.7-25.8c10.3,1.8,19.7,6.7,27,14.2c7.5,7.7,10.2,18.4,11.1,28.8c1.8,21-4,44.1-18.7,59.8c-10.4,11.1-24.8,14.4-39.4,13.9c-13.2-0.4-29.6-5.3-33.9-19.2c-0.7-2.2-2.3-3.3-4-3.4C107.4,193.3,104.3,167.7,116.5,146.3z M156.9,406.3c-1.7-1.6-3.6-1.7-5.2-0.9c-20.3-12.6-36-33-36.5-57.6c-0.5-24.3,16-44.4,38-52.7c9.8-3.7,20.4-4.3,30.5-1.6c10.4,2.8,18.2,10.5,24.3,19c12.3,17.2,19.2,39.9,14.5,60.9c-3.3,14.8-13.9,25.1-26.8,32.2C184.3,411.9,167.7,416.2,156.9,406.3z M379.8,349.6c-9.6,18.8-26.6,35.4-47.3,41c-14.7,3.9-28.7-0.8-40.9-8.9c-11-7.3-22.4-20.1-18.7-34.2c0.6-2.2-0.2-4-1.6-5c1.8-23.8,12.7-47.1,34.3-58.9c21.4-11.6,46.8-6.3,64.3,9.4c7.8,7,13.2,16.1,15.5,26.3C387.8,329.8,384.5,340.3,379.8,349.6z M409.3,328.4c-6.4,10.7-13.6,20.6-21.9,29.5c0.9-1.5,1.7-3.1,2.5-4.6c10-19.8,8.9-41.8-4.7-59.6c-18-23.6-49.8-33.3-77.6-22.7c-33,12.5-48.2,49-47.1,82.3c0,1.3,0.5,2.4,1.1,3.1c1.6,14.9,13.9,27.3,26.1,35.5c9.4,6.3,19.8,9.8,30.4,10.5c-9.4,3.3-19,6-28.7,8.2c-29.6,6.7-59.2,12.5-89.7,12.5c-6.6,0-13-0.3-19.4-1c8-1.4,15.9-4.6,22.7-8.4c18-9.9,29.6-26.7,31.4-47.3c2-21.6-6-43.7-18.5-61.1c-12.9-18-33-27.2-55.1-23.3c-29.2,5.1-52.5,28.9-55.9,58.4c-3.4,29,13.3,54.6,36.1,70.8c-3-1.4-5.9-3-8.7-4.8c-26.2-16.1-43.1-43.8-51.9-72.5c-9.5-30.7-9.4-64.4-2.7-95.8c0.7-0.7,1.2-1.7,1.3-3.1c2.1-25.6,6.9-51,19.4-73.7c0.5-1,1.1-1.9,1.7-2.9c-5.9,23.8,1,50.4,14.6,70.9c0.7,1.1,1.6,1.8,2.6,2.1c9.2,11.8,26.2,15.9,40.9,16.4c20.5,0.7,39.1-7.8,51.2-24.5c12.7-17.6,17.2-40.6,15.4-62c-1.9-22.1-14.5-40.2-35.4-48.2c-14.5-5.6-30.3-5.8-44.6-1.5c2.9-2.1,5.9-4.1,8.9-6c23.3-15,49.9-24.5,77.7-25.9c30-1.5,61.8,5.5,89.6,16.8c2.7,1.1,5.3,2.2,8,3.4c-16.7-2-34,2.2-48,12.7c-28.2,21.2-32.8,60.4-22.5,92.1c0.4,1.3,1.1,2.1,1.9,2.7c5.6,13.8,20.9,22.4,34.9,26.8c19.5,6.2,39.8,3,55.9-9.8c17-13.5,27.6-34.5,31.6-55.5c3.2-17-0.5-33.5-10.8-46.2c27.3,17.8,50.5,41.2,60.4,72.4C446.7,239.6,432.4,289.6,409.3,328.4z"/></svg>