<svg xmlns="http://www.w3.org/2000/svg" width="48" height="48" viewBox="0 0 512 512"><path fill="#14B6B9" d="M442.7,289.6c-0.8-15-1.6-30-2.7-45c-1.2-16.1-2.5-32.1-2.8-48.2c0-2.6-0.1-5.2-0.1-7.7H316.8v-1L287,176.1l-1.2-63.8c-19.5,0.1-39,0.3-58.5,1.2c-32.3,1.4-64.6,4.3-96.4,10.3c-7.7,1.5-15.7,2-23.5,3.1c-7.5,1.1-15.1,2.1-22.6,2.9c-3.6,0.4-7.1,0.3-10.6,0.5c-1.8,0.1-3.6,0.2-5.4,0.4c-0.2,0-0.3,0-0.5,0.1c-0.3,0.4-0.6,0.7-0.9,1c0.3,1.3,0.1,2.8-0.9,4.2c-4.7,6.2-5.3,15.4-5.3,22.8c-0.1,9.8,0.8,19.7,2.2,29.4c3.1,22.8,7.1,45.5,10.3,68.3c2,14.9,4.3,29.9,5.2,44.9c0.6,10.8-0.4,25.5,6.8,34.5c3.7,4.5,7.4,7.7,13.2,9.1c5.3,1.3,10.6,1.7,16,1.7c14.6,0.1,29.2-0.2,43.7-1c32.4-1.7,64.7-5.5,97.1-8.6c32.7-3.1,65.5-4.3,98.2-6.9c16.5-1.3,33-2.8,49.5-4.3c9.9-0.9,21.5-1.4,30.2-6.7C443.9,313,443.3,300.6,442.7,289.6z"/><path fill="#127274" d="M67.4 124.4c1.6 1.3 2 2.9 1.7 4.4C69.7 127.7 69.7 126.2 67.4 124.4zM324.6 371.2c-11.4 1.2-22.8 2.7-34.3 4.2-18.8 2.6-37.7 4.5-56.7 5.9 2.4 4.1 4 8.8 5.1 13.4 1.8 7.8 3 15.9 3.2 23.9.7.7 1.1 1.8 1.1 3.1 0 1-.1 1.9-.2 2.9 1.1 1.1 1.8 2.7 1.5 4.3.1 0 .1.1.1.1 2.6.8 5.3 1.2 8 1.6 6.4.8 12.8 1 19.2.8 2.3-.1 4.7-.1 7-.5 1.5-.2-2.7-.2 1.1-.2 1 0 2.1 0 3.1 0 2.7 0 5.4.1 8.1.1 9.5.1 19.2.1 28.3-2.4.6-1.2 1.8-2.1 3.6-2.2C318.5 408.7 313.6 386.6 324.6 371.2z"/><path fill="#127274" d="M398.1 432.1c-1.9-11.5-17.6-16.8-27.3-18.6-13.7-2.6-27.5-2.8-41.4-2.9.8 4 1.7 7.9 2.6 11.5.5.5.9 1 1.3 1.6 1.4 2.2 1.1 5.5-1.3 6.9-.2.1-.4.2-.6.3.1 1.9-.8 4-3.2 5-13 5.5-27.5 5-41.4 4.8-7.1-.1-14.3.8-21.5.7-5.9-.1-29.8-.8-31.8-9.5-1.3-1.1-2.1-2.7-1.9-4.6.3-2.5.4-5.1.4-7.8-3.7 1.7-7.8 2.5-11.6 3.8-14.7 5-30.3 9.4-44.1 16.6-9 4.8-23 13.2-17.6 25.7 4.4 10.1 18.8 12.1 28.4 13.4 24.5 3.2 49.8 3 74.5 1.8 27-1.4 54.3-4.8 80.1-13.4 12.4-4.2 23.5-10.1 35.2-15.8C384 448 399.8 442.4 398.1 432.1zM474.6 268.2c-.3-15.7.2-31.4.4-47.1.1-10.7.4-21.6.4-32.4h-28.3c.3 28.9 3 57.8 4.7 86.7.8 12.7 2.9 26.5-1.3 38.9-3.2 9.4-12.1 15-21.2 17.7-11.4 3.3-23.4 4-35.2 5-16.5 1.5-33 2.9-49.5 4.1-32.7 2.3-65.4 3.9-98 7.1-32.3 3.2-64.6 6.8-97.1 8.1-13.5.5-27.3 1.1-40.8.3-10.7-.6-22.1-3.1-29.1-11.9-7.5-9.4-9.6-20.3-10.3-32-.9-14.1-2.2-28-4-42-3.5-27.3-8.4-54.4-12-81.7-1.5-11-2.6-22.1-2-33.3.4-9.2 1.9-18.7 7.6-26.2-1.8-3.8 2.7-7.7 6.9-8.4 4.6-.8 9.4-.9 14-.9 10.1 0 20.6-2.4 30.6-3.8 11.1-1.5 22.2-3.2 33.3-4.9 45.9-7.3 92.3-8.9 138.7-9.2 1.2 0 2.3 0 3.5 0V87.7c-1.1-.1-2.3-.2-3.4-.2-32.8-2.1-65.3-3.4-98.2-1.1-30.9 2.2-61.6 6.5-92.5 8.7C78.4 96 64.5 97 51.9 101.9c-4.5 1.8-8.3 4.3-12 7.5-1.6 1.4-3.2 2.9-4.4 4.7-1 1.5-1 1.5-.4 2.3 1.9 2.3 1.2 4.7-.6 6.1 1.3 48.3 7.7 96.2 14.1 144.1 3 22.1 6.8 44.4 7.7 66.8.3 8.4-.1 18.4 5.1 25.6 4.1 5.6 10.5 9.1 17.1 11 9.3 2.7 19 3.7 28.7 3.8 15.5.2 31 .7 46.5.6 32.9-.2 66.2-.9 99-4.3 32.2-3.3 64.1-9.5 96.4-11.1 16.5-.8 32.9 0 49.4-1.3 7.8-.6 15.4-2.4 23.2-3.1 1.3-1.6 3.5-2.4 5.8-1.3 11 5.2 25.1 3.5 34.6-4.2 10.9-8.8 12.7-25.9 13.1-39C476 296 474.8 282.2 474.6 268.2zM270.8 361.8c-.5.3-1 .7-1.4 1 0 0 0 0 0 0-1 .9-1.9 1.5-3.3 1.7-1 .1-1.2-.1-1.9-.2-.3-.1-.6-.1-1-.1-.2 0-.5 0-.7 0-2.6 0-5.4-1.7-5.4-4.6v-1.5c0-1.8.6-3.5 2.2-4.5 1.2-.8 2.4-.9 3.8-.8.2 0 .4 0 .6.1.3-.1.7-.2 1.1-.2h3c2.3 0 4.3 1.1 5.1 3.3C273.5 358.1 272.7 360.6 270.8 361.8z"/><path fill="#010101" d="M484.6,265.9c-0.4-25.7,0.6-51.5,0.6-77.2h-9.7c0,10.8-0.2,21.7-0.4,32.4c-0.2,15.7-0.7,31.4-0.4,47.1c0.2,13.9,1.4,27.8,0.9,41.8c-0.4,13.1-2.2,30.2-13.1,39c-9.5,7.7-23.6,9.5-34.6,4.2c-2.4-1.1-4.5-0.3-5.8,1.3c-7.8,0.7-15.4,2.4-23.2,3.1c-16.5,1.3-32.9,0.5-49.4,1.3c-32.3,1.6-64.2,7.8-96.4,11.1c-32.8,3.3-66.1,4-99,4.3c-15.5,0.1-31-0.4-46.5-0.6c-9.7-0.1-19.4-1-28.7-3.8c-6.6-1.9-13-5.4-17.1-11c-5.2-7.1-4.8-17.2-5.1-25.6c-0.8-22.3-4.7-44.6-7.7-66.8c-6.4-47.8-12.8-95.8-14.1-144.1c1.8-1.4,2.5-3.9,0.6-6.1c-0.7-0.8-0.7-0.9,0.4-2.3c1.2-1.7,2.8-3.3,4.4-4.7c3.7-3.2,7.4-5.7,12-7.5C64.5,97,78.4,96,91.7,95.1c30.9-2.1,61.6-6.4,92.5-8.7c32.8-2.3,65.4-1,98.2,1.1c1.1,0.1,2.3,0.2,3.4,0.2v-9.9c-10.8-0.7-21.6-1.4-32.3-1.9c-32.5-1.7-64.6-0.2-96.9,2.9c-16.1,1.6-32.3,3.4-48.4,5c-13.7,1.4-27.5,1.6-41.2,3.9c-11.1,1.9-21.9,5-30.9,12c-5.2,4.1-13.5,11.8-11,19.1c-0.3,0.7-0.5,1.4-0.5,2.3c1.5,65.1,12.6,129.3,20.3,193.8c1.5,12.7,0.5,26,3.4,38.5c2.4,10.1,9.2,17.5,18.2,22.3c8.9,4.8,19.4,6.5,29.3,7.4c12.2,1,24.7,0.9,37,1.1c28.6,0.4,57.2-0.1,85.7-1.8c0.9,0.8,2,1.3,3.5,1.3h1c0,0,0.1,0.1,0.1,0.1c1.2,1,2,2.6,2.8,4c2.1,3.8,3.1,8.4,4,12.6c0.5,2.6,1,5.2,1.3,7.9c-2.2-0.2-4,1.1-4.9,2.8c-0.6,0.2-1.2,0.4-1.8,0.6c-1.9,0.6-3.8,1.1-5.8,1.7c-5.9,1.7-11.6,3.9-17.4,5.9c-12.6,4.3-25.3,8.9-36.7,15.8c-8.4,5.1-16,12.8-16.7,23.1c-0.8,10.9,5.3,19.3,14.6,24.3c9.1,4.9,20,6,30.1,7.1c12,1.2,24.1,1.4,36.1,1.6c27,0.4,54.2-0.9,80.8-5.7c18.7-3.3,37.2-8.5,54.6-16.3c7.8-3.5,15.1-7.8,22.7-11.6c6.7-3.3,13.7-7.2,18-13.5c10.3-15.1-4.4-29.1-16.9-35.9c-8.6-4.6-19.7-5.6-29.2-6.5c-10.2-1-20.4-1-30.7-1.1c-0.9-10.3,0.7-20.5,8.3-27.7c1-0.9,1.4-2,1.5-3c10-0.8,19.9-1.3,30-1.4c6.6,0,13.2-0.2,19.8-0.4c5.9-0.2,12.2-0.1,17.9-1.5c7-1.6,14.7-2.4,21.9-2.5c0.3,0,0.5,0,0.8-0.1c18.4,5.9,40.7-1.3,49.9-18.8c5.9-11.3,7-25.2,7.4-37.7C486,293.6,484.8,279.8,484.6,265.9z M290.3,375.4c11.5-1.6,22.9-3,34.3-4.2c-11,15.4-6.1,37.5-1.8,55c-1.8,0.1-2.9,1-3.6,2.2c-9.1,2.5-18.8,2.5-28.3,2.4c-2.7,0-5.4-0.1-8.1-0.1c-1,0-2.1,0-3.1,0c-3.8,0,0.4,0-1.1,0.2c-2.3,0.4-4.7,0.4-7,0.5c-6.4,0.2-12.8,0-19.2-0.8c-2.7-0.3-5.4-0.8-8-1.6c0,0-0.1,0-0.1-0.1c0.2-1.6-0.5-3.2-1.5-4.3c0.1-0.9,0.2-1.9,0.2-2.9c0-1.3-0.4-2.4-1.1-3.1c-0.1-8.1-1.4-16.2-3.2-23.9c-1.1-4.7-2.7-9.3-5.1-13.4C252.6,379.9,271.5,378,290.3,375.4z M328.2,435.9c2.4-1,3.3-3,3.2-5c0.2-0.1,0.4-0.2,0.6-0.3c2.4-1.4,2.7-4.8,1.3-6.9c-0.4-0.6-0.8-1.1-1.3-1.6c-0.9-3.6-1.9-7.5-2.6-11.5c13.9,0,27.7,0.3,41.4,2.9c9.6,1.8,25.3,7.1,27.3,18.6c1.7,10.3-14.1,15.9-21.2,19.4c-11.7,5.7-22.8,11.6-35.2,15.8c-25.7,8.7-53,12.1-80.1,13.4c-24.6,1.2-50,1.4-74.5-1.8c-9.6-1.2-24-3.3-28.4-13.4c-5.4-12.5,8.5-20.9,17.6-25.7c13.8-7.2,29.4-11.6,44.1-16.6c3.8-1.3,7.9-2.1,11.6-3.8c0,2.6-0.1,5.2-0.4,7.8c-0.2,1.9,0.6,3.5,1.9,4.6c2,8.7,25.9,9.4,31.8,9.5c7.2,0.2,14.4-0.8,21.5-0.7C300.7,440.9,315.2,441.4,328.2,435.9z"/><path fill="#010101" d="M451.8 275.4c-1.7-28.8-4.5-57.8-4.7-86.7h-10c0 2.6 0 5.2.1 7.7.3 16.1 1.6 32.2 2.8 48.2 1.1 15 1.9 30 2.7 45 .6 11 1.2 23.4-9.2 29.8-8.7 5.3-20.4 5.8-30.2 6.7-16.5 1.5-33 3-49.5 4.3-32.7 2.6-65.5 3.8-98.2 6.9-32.3 3.1-64.6 6.8-97.1 8.6-14.6.8-29.2 1-43.7 1-5.4 0-10.8-.4-16-1.7-5.8-1.4-9.6-4.6-13.2-9.1-7.2-9-6.3-23.7-6.8-34.5-.8-15-3.1-30-5.2-44.9-3.1-22.8-7.1-45.5-10.3-68.3-1.3-9.7-2.3-19.6-2.2-29.4.1-7.4.7-16.6 5.3-22.8 1.1-1.4 1.3-2.9.9-4.2.3-.3.7-.6.9-1 .2 0 .4 0 .5-.1 1.8-.2 3.6-.3 5.4-.4 3.6-.2 7.1-.2 10.6-.5 7.6-.8 15.1-1.8 22.6-2.9 7.8-1.1 15.8-1.6 23.5-3.1 31.8-6 64.1-8.9 96.4-10.3 19.5-.9 39-1.1 58.5-1.2v-10c-1.2 0-2.3 0-3.5 0-46.4.3-92.8 1.9-138.7 9.2-11.1 1.8-22.2 3.4-33.3 4.9-10 1.4-20.5 3.8-30.6 3.8-4.7 0-9.4.1-14 .9-4.2.8-8.7 4.6-6.9 8.4-5.6 7.5-7.2 17-7.6 26.2-.5 11.1.6 22.2 2 33.3 3.6 27.3 8.5 54.4 12 81.7 1.8 14 3.1 27.9 4 42 .7 11.7 2.8 22.7 10.3 32 7 8.8 18.5 11.3 29.1 11.9 13.5.8 27.3.2 40.8-.3 32.5-1.2 64.8-4.9 97.1-8.1 32.6-3.2 65.3-4.7 98-7.1 16.5-1.2 33-2.6 49.5-4.1 11.8-1.1 23.8-1.7 35.2-5 9.1-2.7 18-8.3 21.2-17.7C454.7 301.9 452.6 288 451.8 275.4zM69.1 128.8c.3-1.5-.1-3.1-1.7-4.4C69.7 126.2 69.7 127.7 69.1 128.8zM272.8 356c-.8-2.2-2.8-3.3-5.1-3.3h-3c-.4 0-.7.1-1.1.2-.2 0-.4-.1-.6-.1-1.4-.1-2.6 0-3.8.8-1.6 1.1-2.2 2.7-2.2 4.5v1.5c0 2.9 2.8 4.6 5.4 4.6.2 0 .5 0 .7 0 .3 0 .6.1 1 .1.7.2.9.3 1.9.2 1.4-.1 2.4-.8 3.3-1.7 0 0 0 0 0 0 .5-.4.9-.7 1.4-1C272.7 360.6 273.5 358.1 272.8 356z"/><g><path d="M505.7,96.3c0.9-11.5,2.3-23.2,0-34.6c-2.3-10.9-8.5-19.1-17.9-24.8c-18.6-11.3-44-8.1-64.6-7.1c-15.4,0.8-30.2-0.6-45.3-3.5c-16.3-3.1-32.7-7.7-49.3-8.3c-10.6-0.4-22.1,0.4-31.7,5.2c-8.5,4.2-14.1,12.2-15,21.1c-0.9,0.9-1.5,2.2-1.5,3.7c-0.7,16.2,0.9,32.2,2.1,48.3c1,13.2,0.5,25.6-0.6,38.7c-1,11.6-1.9,23.9,2.2,35c3.4,9.2,10.8,15.3,19.8,18.7c9.8,3.7,20.4,4.6,30.7,5.1c11.5,0.5,23.1,0.3,34.5-0.4c15.9-1,31.8-2.8,47.7-3.4c12.3-0.4,24,1.1,36.2,2.2c10.7,1,22,1.1,31.9-3.6c10.2-4.8,16-14.1,19.2-24.6C510.8,142.1,504,118.8,505.7,96.3z M494.5,110.8c0.7,11.7,1.8,23.3,1.3,35c-0.4,10.3-2.5,22.9-10.7,30c-8,6.9-20.1,6.7-30.1,5.9c-11.8-1-23.3-2.7-35.2-2.5c-28,0.4-55.6,4.7-83.7,4c-9.9-0.3-20.3-1.1-29.6-4.9c-9.6-4-13.4-11.9-14.4-21.9c-1.5-15.3,2.5-30.5,2.1-45.8c-0.4-18.3-3.1-36.5-3.2-54.8c1.6-1.3,2.5-3.3,1.8-5.8c-2.9-10.8,7-17,15.7-19.3c9.2-2.4,19.4-2.1,28.7-0.8c15.4,2.1,30.4,6,45.7,8.6c13.2,2.3,26.4,3,39.7,2.4c11.2-0.5,22.3-1.3,33.5-0.8c10,0.5,21.1,2.3,29.3,8.5C503.9,62.4,493.3,91.7,494.5,110.8z"/></g><g><path d="M380.3,143.3c-1.4-12.7-0.4-25.7-1-38.4c-0.5-12.2-0.1-24.4-0.1-36.6c0-7.1-11-6.2-11,0.8c0,10.8-0.3,21.6,0,32.4c-8.7-2.1-17.4-4.9-26.3-5.9c-0.3-10.8-0.7-21.6-0.7-32.3c0-7.1-11-6.2-11,0.8c0,24.7,1.9,49.3,1,74c-0.3,7.1,10.7,6.2,11-0.8c0.4-10.2,0.3-20.5,0-30.7c8.9,1.1,17.6,4.3,26.3,6.3c0.3,14.7-0.5,29.2,3,43.7c1.2,5.2,10.2,4.6,10.6-0.8c0.2-2.4,0.8-4.6,1-7C383.4,146.2,382.1,144.3,380.3,143.3z"/></g><g><path d="M440.6,67.8c-4.9-5.1-11.9-8.3-18.9-8.6c-6.2-0.2-14.2,0.3-16.9,7c-0.3,0.9-0.5,1.7-0.4,2.5c-2.2,0.7-4,2.6-4.1,5.4c-0.9,23.7,2.9,47.3,3,71c0,3.7,3.7,5.4,6.8,4.8c0.7,1.1,1.9,2,3.7,2.1c26.5,2.5,41.8-24.4,41.9-47.9C455.7,91.1,449.6,77.2,440.6,67.8z M415.8,141.3c-0.2,0-0.4,0-0.6,0c0.2-1.6-0.3-3-1.1-4c-0.6-20.4-3.4-40.7-2.9-61.1c0-0.3,0.1-0.6,0.1-0.9v-1.1c1.4-0.3,2.7-1.2,3.4-3c0.9-2.2,9.4-0.7,11.3,0c5,1.8,8.7,6,11.5,10.3c4.9,7.4,7.4,16.9,7.1,25.8C444.1,122.3,433.4,142.9,415.8,141.3z"/></g></svg>