<svg xmlns="http://www.w3.org/2000/svg"  viewBox="0 0 100 100" width="100px" height="100px"><path fill="#f05b6c" d="M69.19,81H30.81C24.287,81,19,75.713,19,69.19V30.81C19,24.287,24.287,19,30.81,19h38.38	C75.713,19,81,24.287,81,30.81v38.38C81,75.713,75.713,81,69.19,81z"/><path fill="#fefdef" d="M61.78,32.62c-4.82-0.66-9.18,1.43-11.78,4.9c-2.6-3.47-6.96-5.56-11.78-4.9	C31.1,33.61,26.3,40.66,27.76,47.7c0.66,3.18,2.58,5.64,5.74,8.8l12,11.32V57c0-1.24,0.5-2.37,1.32-3.18	C47.63,53,48.76,52.5,50,52.5c2.49,0,4.5,2.01,4.5,4.5v10.82l12-11.32c3.16-3.16,5.08-5.62,5.74-8.8	C73.7,40.66,68.9,33.61,61.78,32.62z M50,48.5c-1.93,0-3.5-1.57-3.5-3.5s1.57-3.5,3.5-3.5s3.5,1.57,3.5,3.5S51.93,48.5,50,48.5z"/><path fill="#1f212b" d="M43.043,24c0.005,0,0.009,0,0.014,0h6.963c0.276,0.004,0.503-0.217,0.507-0.493	c0.004-0.276-0.217-0.503-0.493-0.507c-0.005,0-0.009,0-0.014,0h-6.963c-0.276-0.004-0.503,0.217-0.507,0.493	S42.767,23.996,43.043,24z"/><path fill="#1f212b" d="M68.5,23H53.02c-0.276-0.004-0.503,0.217-0.507,0.493S52.73,23.996,53.006,24	c0.005,0,0.009,0,0.014,0H68.5c4.127,0,7.5,3.373,7.5,7.5v37c0,4.148-3.352,7.5-7.5,7.5h-37c-4.148,0-7.5-3.352-7.5-7.5v-3.926	c0.004-0.276-0.217-0.503-0.493-0.507S23.004,64.284,23,64.56c0,0.005,0,0.009,0,0.014V68.5c0,4.688,3.812,8.5,8.5,8.5h37	c4.688,0,8.5-3.812,8.5-8.5v-37C77,26.827,73.173,23,68.5,23z"/><path fill="#1f212b" d="M69.189,18H30.811C23.769,18,18,23.769,18,30.811V69.19C18,76.231,23.769,82,30.811,82H69.19	C76.231,82,82,76.231,82,69.189V30.811C82,23.769,76.231,18,69.189,18z M80,69.189C80,75.14,75.14,80,69.189,80H30.811	C24.86,80,20,75.14,20,69.189V30.811C20,24.86,24.86,20,30.811,20H69.19C75.14,20,80,24.86,80,30.811V69.189z"/><path fill="#1f212b" d="M23.493,62.081c0.276,0.004,0.503-0.217,0.507-0.493c0-0.005,0-0.009,0-0.014v-3	c0.004-0.276-0.216-0.503-0.492-0.508c-0.005,0-0.01,0-0.016,0c-0.276,0.004-0.497,0.232-0.492,0.508v3	C22.996,61.85,23.217,62.077,23.493,62.081z"/><path fill="#1f212b" d="M23.493,50.081c0.276,0.004,0.503-0.217,0.507-0.493c0-0.005,0-0.009,0-0.014V31.5	c0-4.148,3.352-7.5,7.5-7.5h8.557c0.276,0.004,0.503-0.217,0.507-0.493c0.004-0.276-0.217-0.503-0.493-0.507	c-0.005,0-0.009,0-0.014,0H31.5c-4.688,0-8.5,3.812-8.5,8.5v18.074C22.996,49.85,23.217,50.077,23.493,50.081z"/><path fill="#1f212b" d="M54.302,68.279c0.064,0.027,0.131,0.041,0.198,0.041c0.125,0,0.248-0.047,0.343-0.137l12.011-11.33	c3.11-3.11,5.179-5.71,5.874-9.053c0.739-3.554-0.052-7.312-2.169-10.312c-2.096-2.972-5.19-4.875-8.714-5.36	C57.285,31.493,52.9,33.205,50,36.712c-2.898-3.506-7.275-5.219-11.845-4.584c-3.523,0.485-6.618,2.389-8.714,5.36	c-2.117,3-2.908,6.759-2.169,10.312c0.695,3.343,2.764,5.942,5.885,9.062l12,11.32c0.146,0.139,0.356,0.175,0.541,0.096	C45.881,68.2,46,68.02,46,67.82V57c0-2.206,1.794-4,4-4s4,1.794,4,4v10.82C54,68.02,54.119,68.2,54.302,68.279z M50,52	c-2.757,0-5,2.243-5,5v9.661L33.854,56.146c-3.058-3.058-4.954-5.437-5.603-8.549c-0.683-3.283,0.05-6.758,2.008-9.533	c1.935-2.742,4.787-4.499,8.033-4.946c0.577-0.079,1.151-0.119,1.72-0.119c3.774,0,7.271,1.732,9.588,4.82	c0.189,0.252,0.611,0.252,0.801,0c2.665-3.553,6.897-5.305,11.308-4.701c3.246,0.447,6.099,2.204,8.033,4.946	c1.958,2.775,2.69,6.25,2.008,9.533c-0.648,3.112-2.546,5.491-5.592,8.539L55,66.661V57C55,54.243,52.757,52,50,52z"/><path fill="#1f212b" d="M50,41c-2.206,0-4,1.794-4,4s1.794,4,4,4s4-1.794,4-4S52.206,41,50,41z M50,48c-1.654,0-3-1.346-3-3	s1.346-3,3-3s3,1.346,3,3S51.654,48,50,48z"/><path fill="#1f212b" d="M43.548,39.205c0.246-0.126,0.344-0.427,0.218-0.673s-0.426-0.341-0.673-0.218	C40.568,39.604,39,42.166,39,45s1.568,5.396,4.093,6.686c0.073,0.037,0.15,0.055,0.228,0.055c0.182,0,0.356-0.1,0.445-0.272	c0.126-0.246,0.028-0.547-0.218-0.673C41.359,49.677,40,47.456,40,45S41.359,40.323,43.548,39.205z"/><path fill="#1f212b" d="M37.314,36.782c0.227-0.157,0.284-0.469,0.128-0.696c-0.159-0.229-0.47-0.284-0.696-0.127	C33.774,38.008,32,41.388,32,45s1.774,6.992,4.746,9.041c0.087,0.061,0.186,0.089,0.284,0.089c0.158,0,0.314-0.075,0.412-0.216	c0.156-0.228,0.099-0.539-0.128-0.696C34.612,51.355,33,48.283,33,45S34.612,38.645,37.314,36.782z"/><path fill="#1f212b" d="M56.452,50.795c-0.246,0.126-0.344,0.427-0.218,0.673c0.089,0.173,0.264,0.272,0.445,0.272	c0.077,0,0.154-0.018,0.228-0.055C59.432,50.396,61,47.834,61,45s-1.568-5.396-4.093-6.686c-0.245-0.124-0.546-0.028-0.673,0.218	c-0.126,0.246-0.028,0.547,0.218,0.673C58.641,40.323,60,42.544,60,45S58.641,49.677,56.452,50.795z"/><path fill="#1f212b" d="M62.686,53.218c-0.227,0.157-0.284,0.469-0.128,0.696c0.098,0.141,0.254,0.216,0.412,0.216	c0.099,0,0.197-0.028,0.284-0.089C66.226,51.992,68,48.612,68,45s-1.774-6.992-4.746-9.041c-0.228-0.158-0.538-0.102-0.696,0.127	c-0.156,0.228-0.099,0.539,0.128,0.696C65.388,38.645,67,41.717,67,45S65.388,51.355,62.686,53.218z"/></svg>