<svg xmlns="http://www.w3.org/2000/svg" width="48" height="48" viewBox="0 0 48 48"><path fill="#bcbcbc" d="M33.73,41.246c-0.894-0.577-2.02-0.617-3.084-0.639c-0.042-0.001-0.087-0.002-0.129-0.002v-8.438 H16.575v8.511c-0.67,0.031-1.348,0.064-2.051,0.094c-0.635,0.027-1.314,0.069-1.821,0.454c-0.506,0.385-0.692,1.247-0.193,1.641 c0.261,0.207,0.619,0.227,0.952,0.238c6.609,0.219,13.227,0.438,19.831,0.106c0.337-0.017,0.705-0.049,0.946-0.285 C34.719,42.454,34.295,41.611,33.73,41.246z"/><path fill="#c0e6ed" d="M13.388,7.48c8.321-0.168,16.979,0.938,25.271,0.228C40.2,7.576,41.8,7.432,43.25,7.97 s2.692,1.98,2.454,3.508c-0.607,3.882,0.146,7.83,0.36,11.753c0.132,2.424,0.058,4.854-0.017,7.28 c-0.014,0.447-0.029,0.902-0.171,1.326c-0.35,1.043-1.42,1.706-2.502,1.908c-1.082,0.202-2.193,0.03-3.285-0.102 c-10.699-1.297-21.516,1.268-32.28,0.731c-1.329-0.066-2.713-0.198-3.842-0.904c-1.359-0.85-2.131-2.423-2.397-4.004 s-0.093-3.198,0.047-4.795c0.386-4.39,0.524-9.802,0.413-14.208c-0.02-0.79,0.518-1.852,1.21-2.233 c0.692-0.381,1.496-0.492,2.28-0.585C8.576,7.285,10.313,7.542,13.388,7.48z"/><path fill="#010101" d="M10.931,34.947c-1.051,0-2.101-0.022-3.147-0.075c-1.322-0.065-2.839-0.201-4.081-0.979 c-1.346-0.841-2.303-2.425-2.625-4.345c-0.26-1.541-0.12-3.101,0.014-4.608l0.028-0.313c0.368-4.191,0.526-9.614,0.411-14.15 C1.505,9.456,2.165,8.252,3,7.792c0.755-0.414,1.595-0.54,2.462-0.643c2.021-0.238,3.511-0.212,5.09-0.182 c0.854,0.017,1.758,0.034,2.826,0.012l0,0c3.437-0.067,6.99,0.08,10.424,0.226c4.899,0.206,9.968,0.42,14.814,0.005 c1.63-0.138,3.266-0.279,4.808,0.291c1.562,0.58,3.064,2.197,2.773,4.054c-0.426,2.719-0.161,5.548,0.094,8.284 c0.105,1.122,0.21,2.244,0.271,3.364c0.134,2.435,0.059,4.904-0.015,7.292c-0.016,0.487-0.031,1.004-0.198,1.501 c-0.448,1.339-1.783,2.035-2.884,2.24c-1.057,0.198-2.112,0.067-3.134-0.061l-0.303-0.037c-5.88-0.713-11.926-0.239-17.773,0.219 C18.542,34.648,14.729,34.947,10.931,34.947z M8.982,7.948c-1.039,0-2.095,0.039-3.403,0.193c-0.794,0.095-1.5,0.199-2.097,0.527 C2.977,8.946,2.515,9.813,2.53,10.451c0.115,4.571-0.044,10.037-0.415,14.264l-0.028,0.314c-0.129,1.445-0.262,2.939-0.023,4.354 c0.275,1.639,1.065,2.974,2.168,3.663c1.04,0.649,2.35,0.766,3.603,0.828c4.766,0.236,9.635-0.144,14.343-0.514 c5.896-0.461,11.992-0.94,17.972-0.214l0.306,0.037c0.987,0.121,1.922,0.237,2.827,0.07c1.031-0.193,1.863-0.812,2.12-1.576 c0.119-0.357,0.133-0.776,0.145-1.183c0.073-2.397,0.148-4.845,0.018-7.237c-0.061-1.107-0.164-2.217-0.268-3.326 c-0.262-2.798-0.531-5.69-0.087-8.531c0.201-1.283-0.927-2.514-2.133-2.962c-1.33-0.493-2.855-0.363-4.328-0.236 C33.789,8.629,28.692,8.413,23.76,8.204c-3.42-0.144-6.958-0.291-10.362-0.225c-1.08,0.022-1.999,0.004-2.864-0.012 C10.002,7.958,9.494,7.948,8.982,7.948z"/><path fill="#373837" d="M21.204,17.341c-0.594,1.511-2.577,2.669-3.267,4.139c-0.505,1.077-0.272,2.221,0.068,3.361 c0.39,1.306,0.971,4.93,2.536,4.83s5.688-0.171,6.542,0.371c1.521-1.854,4.076-6.442,3.09-8.69 c-0.986-2.248-2.591-3.476-2.736-5.935c-0.146-2.459-1.187-5.333-3.75-4.823s-2.034,2.909-2.038,3.574 C21.646,14.833,21.79,16.362,21.204,17.341z"/><path fill="#010101" d="M16.603,41.01c-0.266,0-0.487-0.209-0.499-0.478c-0.05-1.092-0.025-2.143-0.001-3.158 c0.024-0.998,0.049-2.031,0.001-3.089c-0.013-0.275,0.2-0.51,0.477-0.521c0.008-0.001,0.016-0.001,0.022-0.001 c0.266,0,0.487,0.209,0.499,0.478c0.05,1.092,0.025,2.143,0.001,3.158c-0.024,0.998-0.049,2.031-0.001,3.089 c0.013,0.275-0.2,0.51-0.477,0.521C16.617,41.01,16.609,41.01,16.603,41.01z"/><path fill="#d6e5e5" d="M20.137,26.998c0,0,0.312,1.319,3.314,1.262c3.002-0.057,3.221-1.104,3.283-1.775 s1.379-3.139,1.071-4.027c-0.308-0.888-3.212-5.301-3.149-6.083s1.191-2.141-0.365-2.438c-0.806,0.514-1.494,0.382-2.088-0.028 c-0.609,0.012-0.84,0.506-0.705,1.481c0.135,0.974,0.108,2.819-0.38,3.747c-0.487,0.928-2.365,4.674-1.953,6.362 C19.578,27.188,20.137,26.998,20.137,26.998z"/><path fill="#010101" d="M30.386,41.01c-0.003,0-0.006,0-0.009,0c-0.275-0.005-0.496-0.232-0.491-0.509 c0.012-0.698,0.036-1.413,0.061-2.134c0.056-1.631,0.112-3.317,0.023-4.886c-0.016-0.275,0.195-0.512,0.471-0.527 c0.315-0.007,0.513,0.195,0.527,0.471c0.092,1.613,0.034,3.323-0.022,4.977c-0.023,0.715-0.048,1.424-0.06,2.117 C30.881,40.791,30.658,41.01,30.386,41.01z"/><path fill="#010101" d="M25.966,43.88c-4.207,0-8.408-0.14-12.521-0.275c-0.336-0.011-0.844-0.027-1.245-0.345 c-0.316-0.25-0.488-0.627-0.484-1.062c0.005-0.528,0.268-1.054,0.684-1.371c0.652-0.495,1.491-0.53,2.104-0.556l1.819-0.083 c1.725-0.082,3.354-0.159,5.151-0.179l0,0c2.906-0.033,5.928,0.029,8.853,0.09l0.329,0.007c1.028,0.021,2.307,0.049,3.346,0.72 c0.507,0.327,0.884,0.909,0.938,1.446c0.04,0.391-0.085,0.749-0.351,1.01c-0.392,0.384-0.942,0.411-1.271,0.427 C30.876,43.832,28.42,43.88,25.966,43.88z M21.485,41.01c-1.78,0.02-3.4,0.097-5.116,0.178l-1.824,0.084 c-0.623,0.025-1.168,0.069-1.54,0.353c-0.168,0.127-0.287,0.367-0.289,0.584c-0.001,0.122,0.034,0.212,0.104,0.267 c0.132,0.104,0.387,0.121,0.658,0.13c6.49,0.214,13.199,0.437,19.789,0.106c0.243-0.013,0.511-0.034,0.621-0.143 c0.034-0.033,0.067-0.083,0.057-0.194c-0.024-0.24-0.234-0.544-0.487-0.708c-0.801-0.517-1.875-0.54-2.823-0.56L30.306,41.1 C27.389,41.04,24.372,40.98,21.485,41.01L21.485,41.01z M21.479,40.51h0.01H21.479z"/><path fill="#febf10" d="M26.549,29.49c-0.017-1.371-0.028-2.803,0.253-4.138c0.083-0.393,0.25-0.857,0.612-0.909 c0.308-0.045,0.565,0.243,0.855,0.365c0.646,0.273,1.459-0.281,2.031,0.149c0.388,0.292,0.455,0.896,0.752,1.298 c0.125,0.17,0.292,0.304,0.387,0.496c0.21,0.426-0.016,0.971-0.345,1.293c-0.329,0.322-0.749,0.511-1.085,0.823 c-0.248,0.229-0.444,0.519-0.691,0.75c-0.22,0.205-0.474,0.36-0.732,0.5c-0.36,0.195-0.753,0.369-1.15,0.309 C27.04,30.365,26.512,29.931,26.549,29.49z"/><path fill="#febf10" d="M20.264,27.187c-0.608-0.89-0.654-1.166-1.262-2.056c-0.115-0.168-0.235-0.342-0.408-0.446 c-0.173-0.104-0.413-0.119-0.559,0.023c-0.108,0.104-0.14,0.265-0.213,0.397c-0.331,0.6-1.369,0.486-1.62,1.126 c-0.081,0.207-0.051,0.44-0.084,0.661c-0.055,0.366-0.281,0.676-0.429,1.014c-0.148,0.337-0.202,0.777,0.047,1.044 c0.125,0.134,0.304,0.197,0.476,0.256c0.838,0.287,1.675,0.573,2.513,0.86c0.543,0.186,1.161,0.366,1.662,0.082 c0.392-0.222,0.491-0.713,0.516-1.173C20.925,28.567,20.5,27.614,20.264,27.187z"/><path fill="#febf10" d="M21.088,17.017c-0.01-0.06-0.016-0.124,0.006-0.181c0.022-0.056,0.07-0.097,0.116-0.135 c0.343-0.289,0.704-0.569,1.121-0.733c0.608-0.239,1.311-0.208,1.909,0.056c0.598,0.264,1.088,0.751,1.383,1.335 c-0.127,0.1-1.763,1.113-2.487,1.113C21.841,18.471,21.164,17.479,21.088,17.017z"/><path fill="#010101" d="M31.888,26.529c-0.09-0.183-0.213-0.319-0.312-0.43c-0.042-0.046-0.084-0.092-0.121-0.143 c-0.086-0.116-0.155-0.282-0.229-0.457c-0.135-0.323-0.288-0.689-0.626-0.943c-0.012-0.009-0.025-0.011-0.037-0.02 c0-0.001,0.001-0.001,0.002-0.002c0.493-1.32,0.407-2.86-0.232-4.118c-0.299-0.588-0.704-1.107-1.097-1.61 c-0.584-0.748-1.136-1.455-1.267-2.289c-0.045-0.281-0.04-0.578-0.035-0.894l0.003-0.381c-0.006-0.778-0.121-1.548-0.341-2.288 c-0.11-0.375-0.301-0.926-0.676-1.388l-0.133-0.165c-0.33-0.414-0.739-0.93-1.341-1.12c-1.247-0.396-2.432-0.167-3.324,0.647 c-0.877,0.798-1.172,1.905-0.823,2.953c-0.044,0.067-0.09,0.131-0.127,0.214c-0.266,0.607-0.21,1.335,0.115,1.912 c-0.137,0.103-0.276,0.204-0.403,0.311c-0.064,0.056-0.186,0.158-0.253,0.325c-0.071,0.173-0.058,0.333-0.038,0.453 c0.011,0.066,0.035,0.142,0.061,0.218c-0.299,0.629-0.87,1.219-1.485,1.838c-0.648,0.653-1.318,1.33-1.687,2.113 c-0.583,1.243-0.336,2.526-0.04,3.462c-0.005,0.012-0.014,0.028-0.018,0.039c-0.014,0.032-0.025,0.064-0.043,0.095 c-0.07,0.129-0.301,0.216-0.544,0.309c-0.397,0.15-0.893,0.339-1.104,0.876c-0.082,0.209-0.091,0.413-0.099,0.577 c-0.003,0.064-0.005,0.128-0.014,0.191c-0.025,0.167-0.121,0.349-0.222,0.541c-0.06,0.114-0.119,0.229-0.171,0.346 c-0.265,0.604-0.212,1.212,0.139,1.585c0.214,0.231,0.495,0.327,0.681,0.391l2.512,0.858c0.385,0.133,0.806,0.259,1.226,0.259 c0.286,0,0.571-0.059,0.846-0.213c0.205-0.116,0.35-0.276,0.46-0.449c0.291-0.001,0.673-0.03,1.188-0.076 c0.437-0.038,0.905-0.04,1.17-0.078c1.163,0.003,1.833,0.124,2.911,0.337c0.258,0.315,0.637,0.548,1.001,0.604 c0.08,0.013,0.158,0.018,0.235,0.018c0.454,0,0.871-0.188,1.228-0.382c0.262-0.142,0.565-0.321,0.834-0.574 c0.137-0.127,0.26-0.27,0.382-0.412c0.1-0.116,0.197-0.233,0.309-0.336c0.143-0.132,0.303-0.237,0.462-0.345 c0.211-0.142,0.429-0.288,0.633-0.487C31.888,27.967,32.216,27.196,31.888,26.529z M22.797,11.669 c0.792-0.724,1.715-0.636,2.349-0.434c0.311,0.099,0.59,0.449,0.859,0.789l0.141,0.175c0.198,0.244,0.355,0.575,0.492,1.04 c0.193,0.65,0.294,1.328,0.3,2.012l-0.003,0.357c-0.005,0.344-0.011,0.699,0.047,1.065c0.172,1.089,0.83,1.933,1.467,2.748 c0.38,0.486,0.738,0.946,0.993,1.448c0.515,1.013,0.584,2.252,0.187,3.315c-0.013,0.036-0.012,0.072-0.017,0.109 c-0.16,0.008-0.317,0.025-0.461,0.047c-0.267,0.039-0.521,0.075-0.686,0.007c-0.073-0.031-0.142-0.078-0.211-0.123 c-0.073-0.047-0.159-0.097-0.25-0.145c0.249-0.494,0.472-1.021,0.358-1.481c-0.523-2.122-1.862-3.824-2.588-4.745 c0.091-0.058,0.157-0.101,0.16-0.103c0.188-0.147,0.245-0.406,0.138-0.619c-0.138-0.272-0.317-0.514-0.515-0.736 c0.237-0.365,0.477-0.867,0.477-1.427c0-0.838-0.793-1.729-1.544-1.734c-0.002,0-0.005,0-0.008,0c-0.541,0-1.008,0.359-1.276,0.719 c-0.001-0.001-0.002-0.002-0.003-0.003c-0.166-0.167-0.354-0.337-0.596-0.441c-0.125-0.054-0.254-0.078-0.382-0.088 C22.071,12.793,22.259,12.158,22.797,11.669z M20.701,26.944c-0.008-0.014-0.016-0.026-0.024-0.04 c-0.293-0.429-0.45-0.709-0.607-0.99c-0.118-0.21-0.24-0.424-0.407-0.688c0-0.007,0.004-0.012,0.004-0.019 c-0.002-1.472,0.735-3.151,1.386-4.633c0.317-0.723,0.595-1.372,0.768-1.944c0.362,0.201,0.796,0.34,1.316,0.34 c0.488,0,1.187-0.305,1.764-0.609c0.028,0.036,0.046,0.061,0.077,0.1c0.678,0.858,1.939,2.456,2.413,4.378 c0.041,0.182-0.273,0.786-0.408,1.045c-0.06,0.115-0.114,0.223-0.162,0.324c-0.206,0.192-0.394,0.509-0.505,1.041 c-0.133,0.629-0.197,1.276-0.233,1.917c-0.683,0.306-1.985,0.597-2.726,0.597c-0.001,0-0.002,0-0.003,0 c-0.559-0.001-2.027-0.328-2.53-0.584C20.751,27.037,20.703,26.948,20.701,26.944z M23.901,15.051 c-0.021-0.151-0.006-0.29,0.041-0.398c0.063-0.144,0.333-0.418,0.536-0.418c0.001,0,0.001,0,0.002,0 c0.149,0.009,0.551,0.374,0.551,0.734c0,0.231-0.095,0.507-0.255,0.782c-0.109-0.065-0.217-0.133-0.334-0.185 c-0.168-0.074-0.342-0.128-0.518-0.171c0.011-0.053,0.018-0.108,0.011-0.164C23.928,15.17,23.916,15.109,23.901,15.051z M24.038,16.48c0.345,0.152,0.657,0.405,0.897,0.72c-0.538,0.313-1.432,0.771-1.8,0.771c-0.946,0-1.417-0.652-1.53-0.95 c0.32-0.266,0.603-0.467,0.908-0.588C22.985,16.249,23.553,16.268,24.038,16.48z M22.09,14.499 c0.033-0.078,0.054-0.099,0.117-0.072c0.093,0.04,0.195,0.139,0.284,0.229c0.169,0.169,0.362,0.385,0.431,0.604 c0.004,0.024,0.01,0.047,0.015,0.07c-0.27,0.025-0.537,0.073-0.788,0.173c-0.001,0-0.002,0.001-0.004,0.002 C21.978,15.2,21.95,14.818,22.09,14.499z M18.391,21.691c0.293-0.626,0.875-1.212,1.49-1.833c0.238-0.239,0.473-0.484,0.7-0.733 c-0.135,0.333-0.285,0.683-0.445,1.048c-0.555,1.265-1.163,2.667-1.381,4.044c-0.142-0.068-0.289-0.102-0.436-0.103 C18.061,23.137,18.074,22.366,18.391,21.691z M20.141,29.712c-0.314,0.178-0.793,0.037-1.255-0.12l-2.514-0.86 c-0.096-0.032-0.228-0.077-0.272-0.125c-0.057-0.061-0.055-0.27,0.047-0.502c0.042-0.096,0.092-0.188,0.141-0.282 c0.129-0.245,0.274-0.523,0.324-0.856c0.015-0.098,0.021-0.196,0.024-0.295c0.005-0.104,0.01-0.203,0.031-0.258 c0.045-0.116,0.237-0.196,0.526-0.306c0.364-0.139,0.818-0.311,1.065-0.762c0.034-0.062,0.063-0.127,0.09-0.193 c0.004-0.008,0.007-0.017,0.01-0.024c0.075,0.058,0.154,0.174,0.23,0.285c0.293,0.429,0.45,0.709,0.607,0.99 c0.168,0.298,0.335,0.596,0.641,1.045c0.288,0.528,0.577,1.292,0.566,1.499C20.38,29.369,20.291,29.627,20.141,29.712z M23.442,28.979c-0.318,0-0.786,0.04-1.25,0.082c-0.241,0.021-0.542,0.046-0.799,0.062c0.003-0.046,0.006-0.089,0.008-0.121 c0.009-0.169-0.027-0.376-0.087-0.593c0.76,0.21,1.631,0.352,2.035,0.353c0.002,0,0.003,0,0.005,0c0.686,0,1.821-0.206,2.691-0.509 c-0.003,0.335-0.002,0.663,0.002,0.984c-0.848-0.16-1.539-0.255-2.595-0.257C23.449,28.979,23.446,28.979,23.442,28.979z M30.745,27.687c-0.149,0.146-0.321,0.258-0.492,0.373c-0.201,0.135-0.402,0.272-0.583,0.439c-0.139,0.129-0.265,0.274-0.39,0.421 c-0.098,0.114-0.194,0.229-0.305,0.332c-0.187,0.176-0.422,0.313-0.627,0.425c-0.286,0.154-0.58,0.288-0.837,0.255 c-0.211-0.032-0.474-0.298-0.465-0.399c0.002-0.016,0.002-0.032,0.002-0.048c-0.016-1.276-0.033-2.723,0.243-4.03 c0.047-0.222,0.098-0.348,0.136-0.423c0.035-0.02,0.059-0.047,0.089-0.075c0.055,0.023,0.135,0.072,0.197,0.111 c0.117,0.075,0.236,0.148,0.36,0.201c0.426,0.178,0.847,0.117,1.222,0.062c0.347-0.052,0.571-0.075,0.703,0.025 c0.121,0.091,0.211,0.305,0.305,0.53c0.089,0.212,0.189,0.452,0.347,0.664c0.056,0.077,0.119,0.148,0.183,0.219 c0.069,0.077,0.129,0.144,0.158,0.202C31.088,27.169,30.939,27.497,30.745,27.687z"/></svg>