<svg xmlns="http://www.w3.org/2000/svg"  viewBox="0 0 512 512" width="48px" height="48px"><path fill="#14B6B9" d="M187.7 130.8c-6.6 2.1-13.1 3.9-20 4.8-.4 3.4-.7 6.7-1 10.1 1.1-.4 2.4-.3 3.6.4 1-.1 2.1-.2 3.1-.4 2.6-.4 5.1-1 7.7-1.6 2.6-.6 5.2-1.3 7.8-1.9C188.4 138.4 188 134.6 187.7 130.8zM194.5 227.1c-5.9 1.7-12 2.7-18.1 2.8-1.4 0-2.6-.4-3.5-1.1 1 8.3 1.8 16.5 2.4 24.8 1-.4 2-.6 3.2-.7 1.7-.1 3 .5 3.9 1.4 5 .2 10.2-.3 14.8-1.9C195.1 244.1 194.6 235.6 194.5 227.1zM326.2 119.6c-.6-2.4-1.3-4.9-2-7.4.2-.7.2-1.4.2-2.2 0-1-.7-1.8-1.6-2.1-4.3-1.6-8.8-1.4-13.3-1.4-.4 0-.8.1-1.1.3-1.1 0-2.1 0-3.2 0 .1.4.1.7.1 1.1.2 5.6 1.9 10.9 3.9 16.2 1.5.2 2.9 1.1 3.6 2.6 5.1-.3 10.3-.6 15.1.6C327.5 124.7 326.9 122.1 326.2 119.6z"/><path fill="#BCBCBC" d="M326.2,210.3c-2.5,0.5-5.6,0.9-7.8,2.3c-0.4,0.3-0.6,0.5-0.7,0.6c-0.1,0.6-0.2,1.2-0.3,1.8c-0.4,5-0.1,10.4,0.7,15.4c0.2,1.4,0.3,3.2,1.4,3.4c2.9,0.5,6-0.5,8.9-1c7-1.2,7.8,9.7,0.8,11c-8.1,1.4-18.5,2-21.2-8.1c-1.8-6.7-2.1-14.1-1.6-21c1-15.9,18.8-14.6,30.9-17.2c-0.2-3.2-0.4-6.5-0.7-9.7c-0.1,0-0.2,0-0.3,0c-6.3,0.1-12.7,0.9-19,1c-2.9,0-5.8-1.9-5.9-5.1c-0.3-10-7.7-23.2-2.1-32.8c4.8-8.1,13.8-6.7,21.9-6.2c-0.3-1.7-0.6-3.4-0.9-5.2c-1,0-2.1-0.4-3.2-1.1c-2.9-2-7.8-1.7-12.2-1.2c-4.1-0.4-8.2-0.4-12.2,0.3c-0.1-0.2-0.2-0.3-0.2-0.5c-3.5-9.1-8-18.5-8.3-28.4c-0.1-2.4,1.2-4.1,2.8-5c-1.6-3.2-0.4-7.9,4.2-7.9c5.2,0,13.2-0.5,18.3,2.4c-4.4-11.9-10.4-23.2-19.2-32c-33.8-33.9-88.9-14.8-114.3,19.6c-8.5,11.5-13.7,24.6-16.6,38.4c7.3-1.3,14.3-3.7,21.4-6.1c3.2-1.1,7.3,1.1,7.3,4.8c0.1,7.7,1,15.3,2,23c0.3,2.3-1.4,5-3.7,5.6c-5.7,1.4-11.4,3-17.2,4.2c-3.3,0.7-9.3,2.6-13.1,1.1c0,1.6,0,3.2,0,4.9c0,0.7,0,1.5,0.1,2.2c0.3-0.1,0.6-0.1,1-0.1c11.6-0.2,22.8-3.8,34.5-2.9c3.1,0.2,4.8,3.8,4.4,6.4c-1.6,9.8-1,19.6-0.9,29.5c0,2.4-1.2,4.9-3.7,5.6c-5.4,1.7-11.3,2.3-16.9,2.2c-3-0.1-6.1-0.1-9.1-0.8c-1.2-0.3-2.3-0.6-3.5-1c-0.2-0.1-0.3-0.1-0.4-0.1c-0.1,0-0.3,0-0.5,0c-0.6,0-1.2-0.1-1.7-0.2c0.7,5.9,1.4,11.9,2.2,17.8c0.8-0.9,2-1.5,3.6-1.5c7.8-0.1,15.4-1.7,22.6-4.7c3.1-1.3,7.3,1.3,7.3,4.8c0,11.6-0.1,23.5,3.7,34.6c0.7,2.2,0,5.2-2.1,6.4c-9.5,5-20.6,6-31.1,4.8c-1-0.1-1.9-0.5-2.6-1.1c13.3,21.1,33.3,39.2,58.2,44.9c24.6,5.6,51.9-0.7,71.8-16.3c16.2-12.6,26.5-31.1,31-51c2.5-10.9,3.4-21.8,3.4-32.6C333.9,209.2,330,209.6,326.2,210.3z"/><path fill="#14B6B9" d="M194.7 171.7c-8.8.4-17.6 3-26.4 3.1-.5 0-.9 0-1.3-.1.4 5.8.9 11.7 1.5 17.5.6-.2 1.2-.3 2-.3 4.6 0 8.8 1.9 13.5 1.9 3.4 0 7-.1 10.4-.7C194.3 185.9 194.1 178.8 194.7 171.7zM332.9 155.7c-3-.2-6.1-.6-9.1-.5-3.3 0-5.3-.2-5.2 3.7.1 6.4 2.2 12.5 3.3 18.8 4.5-.3 9.1-.7 13.6-.8h0C334.7 169.8 333.8 162.8 332.9 155.7zM171.6 260.4c-.2.1-.5.1-.7.2.4.2.7.6 1 1C171.8 261.2 171.7 260.8 171.6 260.4zM297.4 411.7c-2-.7-3.5-2.7-3.8-4.8-1.2.9-2.5 1.7-3.9 2.3-10.4 4.9-22.8 2.6-33.9 2.7-4.5 0-9.1-.1-13.2-1.3-.8 2.7-1.2 5.5-.1 7.9 1.2 2.7 5.7 3.9 8.2 4.5 7.1 1.8 14.6 2.6 21.9 2.8 6 .1 13.8.4 19.2-2.8C296.3 420.3 297.7 416.3 297.4 411.7z"/><path fill="#14B6B9" d="M413.3 175c-6.7.3-13.3.3-20 .2-7.1-1.1-14.9-.1-21.7.3-.8 0-1.4.4-1.7.9-.7 0-1.3 0-2 .1-.8 0-1.7 0-2.5 0 .1 5.6.6 11.2 1.3 16.8.1.2.2.4.3.6 4.3 0 8.9 0 13.2-1.1 1.9 1.6 4 2.9 5.9 4.7 1.2 1.2 2.5 2.5 3.7 4 8.4 14.4 2 35.3-3.7 49.5-8 20.1-20.5 38-36.7 52.4-37 32.9-88.1 45.1-135.6 30.2-23.6-7.4-47.8-18.1-65.2-36.3-9.1-9.5-16.4-20.5-20.2-33.2-4.2-13.8-5.2-28.1-5.9-42.5-.2-3.3 2.1-5.2 4.6-5.7.8-.8 1.9-1.2 3.4-1.2h7.2c-1.6-6.8-2.5-14.4-1.2-21.1-.2 0-.4 0-.6-.1-5.5-.7-11.1 1.1-16.5 2.1-.9.2-1.7 0-2.5-.3-4.8 1.5-9.8 2.1-14.6 3.7-18.3 6.1-13.2 33.4-11.2 48.1 3.2 23.5 11.3 44.3 26.8 62.5 15.4 18 35.2 31.9 55.6 43.6 12.5 7.1 24.9 12.6 39.1 15 14.4 2.4 28.9 2.9 43.3 4.5 2.2.3 3.6 1.5 4.1 3.1 11.4.8 23-.3 34.2-2.3 12.2-2.1 23.9-5.6 34.8-11.5 22.3-12 41.5-29.3 57.4-48.9 16.2-20.1 29.5-42.5 34.2-68.2C425 221.3 422.3 197.4 413.3 175zM349.7 466.2c-8-21.2-23.1-36.8-41.8-48.5-.8 5.1-3.2 9.7-7.9 13.1-7.6 5.4-17.6 6.2-26.7 6-10.1-.3-21.4-.8-30.8-4.9-3.8-1.6-6.9-3.9-9-7.1-5.9 6.4-11.1 13.4-15.7 20.8-4.3 6.9-8.7 14.2-10.6 22.1 13.4 4.2 27.3 6.9 41.3 8.7 14.4 1.8 29.1 3.4 43.6 3.6 11.3.2 22.9-1 33.9-3.8 8.2-2.1 16.8-4.9 23.9-9.6C349.8 466.4 349.8 466.3 349.7 466.2zM291.3 385.4c-14.1 2.1-28.4 2.9-42.4.4-2-.3-3.2-1.5-3.8-2.9-1.6-.1-3.1-.3-4.7-.4-.1.2-.2.3-.3.5 1.1-1.6.5 2.1.6 3.1.1 1.5.3 3 .5 4.5.3 2.4.2 5.3 1.6 7.4 2.8 4.3 10.5 2.8 14.8 2.8 7.6.1 16.2 1.6 23.7-.3 5.1-1.3 11.3-5.8 12-11.4C292.1 388.1 291.3 386.8 291.3 385.4z"/><path d="M343.6,153c-2.9-20.7-6.9-41.5-14.6-61c-7.2-18.2-18.4-35-35.6-45.1c-19.6-11.4-44.5-11.6-65.6-4.8c-32.9,10.7-59,39.8-67.3,73.1c-11.6,46.7,0.7,93.6,3.9,140.5c0.1,2.1,1.2,3.4,2.5,4.2c-3.2,0.9-5.9,4.7-3.6,8.5c12.5,20.4,30.4,37.6,52.8,46.7c22.7,9.2,47.5,7.9,70.1-0.8c20.2-7.8,36.6-22.2,47.4-40.9c10.6-18.3,14.6-39.8,15.2-60.7C349.5,192.8,346.3,172.7,343.6,153z M335.5,176.9L335.5,176.9c-4.6,0.1-9.1,0.5-13.7,0.8c-1-6.3-3.2-12.4-3.3-18.8c-0.1-3.9,2-3.7,5.2-3.7c3,0,6.1,0.3,9.1,0.5C333.8,162.8,334.7,169.8,335.5,176.9z M324.4,110c0,0.7,0,1.5-0.2,2.2c0.7,2.5,1.4,4.9,2,7.4c0.6,2.6,1.2,5.1,1.8,7.7c-4.8-1.2-10-0.9-15.1-0.6c-0.7-1.5-2-2.4-3.6-2.6c-2-5.2-3.8-10.6-3.9-16.2c0-0.4-0.1-0.8-0.1-1.1c1.1,0,2.1,0,3.2,0c0.3-0.2,0.7-0.3,1.1-0.3c4.5,0,9-0.2,13.3,1.4C323.7,108.2,324.4,109,324.4,110z M167.7,135.6c6.9-0.9,13.5-2.7,20-4.8c0.3,3.8,0.7,7.6,1.1,11.4c-2.6,0.7-5.2,1.3-7.8,1.9c-2.5,0.6-5.1,1.2-7.7,1.6c-1,0.2-2.1,0.3-3.1,0.4c-1.2-0.8-2.5-0.8-3.6-0.4C167,142.4,167.3,139,167.7,135.6z M167,174.7c0.4,0.1,0.9,0.1,1.3,0.1c8.8-0.2,17.6-2.8,26.4-3.1c-0.6,7.1-0.4,14.2-0.3,21.3c-3.4,0.6-7,0.7-10.4,0.7c-4.7,0-8.9-1.9-13.5-1.9c-0.8,0-1.4,0.1-2,0.3C167.9,186.4,167.4,180.5,167,174.7z M170.9,260.6c0.2,0,0.5-0.1,0.7-0.2c0.1,0.4,0.2,0.8,0.3,1.1C171.6,261.1,171.2,260.8,170.9,260.6z M334.4,241.2c-4.6,19.9-14.8,38.4-31,51c-19.9,15.5-47.2,21.8-71.8,16.3c-24.9-5.6-44.9-23.8-58.2-44.9c0.7,0.6,1.5,1,2.6,1.1c10.5,1.2,21.6,0.2,31.1-4.8c2.2-1.1,2.9-4.2,2.1-6.4c-3.8-11.1-3.7-23-3.7-34.6c0-3.5-4.2-6.1-7.3-4.8c-7.2,3-14.8,4.6-22.6,4.7c-1.6,0-2.8,0.6-3.6,1.5c-0.7-5.9-1.5-11.9-2.2-17.8c0.5,0.1,1.1,0.2,1.7,0.2c0.2,0,0.4,0,0.5,0c0.1,0,0.2,0.1,0.4,0.1c1.2,0.4,2.3,0.7,3.5,1c2.9,0.7,6.1,0.7,9.1,0.8c5.6,0.1,11.5-0.5,16.9-2.2c2.5-0.8,3.7-3.2,3.7-5.6c0-9.9-0.7-19.7,0.9-29.5c0.5-2.7-1.3-6.2-4.4-6.4c-11.7-0.9-22.9,2.7-34.5,2.9c-0.3,0-0.7,0-1,0.1c0-0.7-0.1-1.5-0.1-2.2c0-1.6,0-3.2,0-4.9c3.9,1.4,9.9-0.5,13.1-1.1c5.8-1.2,11.5-2.7,17.2-4.2c2.3-0.6,4-3.3,3.7-5.6c-1-7.7-1.9-15.3-2-23c0-3.6-4.1-5.8-7.3-4.8c-7.1,2.4-14.1,4.8-21.4,6.1c3-13.7,8.2-26.9,16.6-38.4c25.3-34.4,80.4-53.4,114.3-19.6c8.8,8.8,14.8,20.1,19.2,32c-5-2.9-13-2.4-18.3-2.4c-4.6,0-5.8,4.7-4.2,7.9c-1.7,0.9-2.9,2.6-2.8,5c0.3,9.9,4.8,19.3,8.3,28.4c0.1,0.2,0.1,0.3,0.2,0.5c4-0.7,8.1-0.7,12.2-0.3c4.4-0.5,9.2-0.9,12.2,1.2c1,0.7,2.1,1,3.2,1.1c0.3,1.7,0.6,3.4,0.9,5.2c-8.1-0.5-17.2-1.9-21.9,6.2c-5.7,9.6,1.8,22.8,2.1,32.8c0.1,3.1,3,5.1,5.9,5.1c6.3-0.1,12.7-0.9,19-1c0.1,0,0.2,0,0.3,0c0.3,3.3,0.6,6.5,0.7,9.7c-12.1,2.6-29.9,1.3-30.9,17.2c-0.4,6.9-0.2,14.3,1.6,21c2.7,10.1,13.1,9.5,21.2,8.1c6.9-1.2,6.1-12.2-0.8-11c-2.9,0.5-6,1.5-8.9,1c-1.2-0.2-1.2-2.1-1.4-3.4c-0.8-5-1.2-10.3-0.7-15.4c0.1-0.6,0.2-1.2,0.3-1.8c0.1-0.1,0.3-0.3,0.7-0.6c2.1-1.4,5.3-1.9,7.8-2.3c3.8-0.7,7.7-1.1,11.5-1.8C337.8,219.5,336.9,230.3,334.4,241.2z M172.8,228.7c0.9,0.7,2.1,1.1,3.5,1.1c6.1-0.1,12.2-1.1,18.1-2.8c0.1,8.5,0.7,17,2.8,25.3c-4.6,1.6-9.9,2.1-14.8,1.9c-1-0.9-2.3-1.5-3.9-1.4c-1.2,0-2.2,0.3-3.2,0.7C174.7,245.2,173.8,237,172.8,228.7z"/><path d="M423.4,170.7c-0.4-1.1-0.9-2.1-1.4-3.1c-1-2.3-3-3.8-5.6-3.7c-17,1-34,0-51,0c-1.6,0-2.8,0.6-3.6,1.4c-2.7-0.8-5.5-0.2-6.9,2.6c-0.7,1.5-0.7,3.5,0.1,5.1c-0.4,0.8-0.6,1.7-0.6,2.7c0.1,8.1,1,16,2,24c0.5,3.7,3.5,5.3,6.2,4.8c0.5,0.1,1.1,0.2,1.7,0.2h11c0.9,0,1.8-0.2,2.8-0.5c5.5,5.7,5,14.7,3.8,22c-1.5,9.9-5.2,19.5-9.4,28.6c-9.2,19.8-24.1,36.8-41.7,49.7c-19.4,14.2-42.4,22.5-66.3,24.3c-25.1,1.8-49.8-4.7-72.5-15.1c-16.5-7.5-32-18-43-32.7c-12-16.1-14.2-35.8-15.4-55.3h11.7c1.4,0,2.6-0.6,3.5-1.6c-0.8-7.1-1.8-14.2-2.7-21.3c-1.1-5.7-2.3-11.3-3.3-17c-0.3,0-0.6,0-0.9,0c-0.6-1.5-1.9-2.6-4-2.9c-6-0.8-11.5,0.4-17.3,1.5c-1.2-0.8-2.8-1-4.5-0.3c-11.4,4.5-24.3,3.9-31.7,15.1c-5.3,8-6.1,18-6.1,27.3c-0.1,20.7,3.8,43,12.6,61.7c9.9,21.1,26,38.5,44.2,52.8c19.6,15.4,42.7,30.4,67.1,36.4c9,2.2,18.3,3.3,27.6,4.1c-0.2,2.1-0.1,4.3,0.1,6.4c0.4,4.7,0.7,9.6,2.7,14c0.2,0.5,0.5,1,0.8,1.5c-0.7,2.9-1.6,5.8-2.1,8.7c-0.8,0.3-1.6,0.7-2.3,1.5c-8,8.1-14.7,17.3-20.8,26.9c-5.7,8.9-11.3,19-12.4,29.7c-0.2,2.2,0.5,5.2,3,6c30.1,10.2,62.7,13.8,94.4,14.6c23.6,0.6,52.2-4.6,70.2-20.9c3.8-3.4,0.6-8.1-3.4-8.7c-4.4-11.2-10.3-20.5-18.1-29.8c-9.5-11.4-21.4-19.8-34.2-27c-0.1-0.3-0.1-0.7-0.2-1c-0.6-2.4-3.3-3.8-5.6-3.7c-0.5,0-0.9,0.1-1.3,0.1c3.3-5,4.9-11,3.4-16.9c9.5-2.1,18.7-5.2,27.6-9.6c24.4-12,45.3-30.8,62.6-51.6c17.5-21,31.1-44.6,37.1-71.5C436.7,223.8,433.7,195.8,423.4,170.7z M307.9,417.7c18.7,11.7,33.8,27.3,41.8,48.5c0,0.1,0.1,0.2,0.1,0.3c-7.2,4.7-15.8,7.5-23.9,9.6c-11,2.9-22.6,4-33.9,3.8c-14.5-0.2-29.2-1.8-43.6-3.6c-13.9-1.7-27.8-4.4-41.3-8.7c2-7.9,6.3-15.2,10.6-22.1c4.6-7.4,9.8-14.4,15.7-20.8c2.1,3.2,5.2,5.4,9,7.1c9.4,4.1,20.7,4.6,30.8,4.9c9,0.3,19.1-0.6,26.7-6C304.7,427.4,307.1,422.7,307.9,417.7z M281.1,400.5c-7.5,2-16,0.4-23.7,0.3c-4.4,0-12,1.4-14.8-2.8c-1.4-2.1-1.3-5-1.6-7.4c-0.2-1.5-0.3-3-0.5-4.5c-0.1-1,0.5-4.6-0.6-3.1c0.1-0.2,0.2-0.3,0.3-0.5c1.6,0.1,3.1,0.3,4.7,0.4c0.6,1.4,1.9,2.5,3.8,2.9c14.1,2.5,28.4,1.7,42.4-0.4c0.1,1.4,0.8,2.8,1.9,3.8C292.5,394.8,286.3,399.2,281.1,400.5z M293.5,406.8c0.3,2.1,1.8,4.1,3.8,4.8c0.3,4.6-1.1,8.6-5.7,11.3c-5.5,3.1-13.2,2.9-19.2,2.8c-7.3-0.1-14.8-1-21.9-2.8c-2.6-0.6-7-1.8-8.2-4.5c-1.1-2.3-0.7-5.1,0.1-7.9c4.1,1.2,8.8,1.3,13.2,1.3c11.1-0.1,23.5,2.2,33.9-2.7C291,408.5,292.3,407.7,293.5,406.8z M420.6,245.1c-4.7,25.7-17.9,48.2-34.2,68.2c-15.9,19.6-35.1,36.9-57.4,48.9c-10.9,5.9-22.6,9.4-34.8,11.5c-11.3,1.9-22.8,3.1-34.2,2.3c-0.5-1.6-1.8-2.9-4.1-3.1c-14.4-1.6-29-2.2-43.3-4.5c-14.3-2.4-26.7-7.8-39.1-15c-20.4-11.7-40.2-25.6-55.6-43.6c-15.5-18.2-23.7-39-26.8-62.5c-2-14.7-7.1-42,11.2-48.1c4.8-1.6,9.8-2.3,14.6-3.7c0.8,0.3,1.6,0.5,2.5,0.3c5.4-1,11-2.8,16.5-2.1c0.2,0,0.4,0,0.6,0.1c-1.3,6.6-0.4,14.2,1.2,21.1h-7.2c-1.5,0-2.6,0.5-3.4,1.2c-2.5,0.4-4.8,2.4-4.6,5.7c0.8,14.3,1.7,28.6,5.9,42.5c3.8,12.7,11.2,23.7,20.2,33.2c17.4,18.2,41.6,28.9,65.2,36.3c47.5,14.9,98.7,2.7,135.6-30.2c16.2-14.4,28.7-32.3,36.7-52.4c5.7-14.2,12-35.1,3.7-49.5c-1.3-1.5-2.6-2.9-3.7-4c-1.9-1.9-4-3.2-5.9-4.7c-4.2,1-8.8,1.1-13.2,1.1c-0.1-0.2-0.2-0.4-0.3-0.6c-0.6-5.6-1.1-11.2-1.3-16.8c0.8,0,1.6,0,2.5,0c0.6,0,1.3,0,2-0.1c0.3-0.5,0.9-0.8,1.7-0.9c6.9-0.3,14.6-1.3,21.7-0.3c6.7,0.1,13.3,0.1,20-0.2C422.3,197.4,425,221.3,420.6,245.1z"/></svg>