<svg xmlns="http://www.w3.org/2000/svg"  viewBox="0 0 48 48" width="48px" height="48px"><path fill="#d6e5e5" d="M30.722,9.021c0,0,1.029,0.603,3.029,1.375c2,0.771,4.488,2.139,5.359,2.84 c0.87,0.701,1.688,2.308,1.657,4.368s0,6.297,0,6.297l-2.511-0.611l0.176-6.019c0,0,0.34-1.563-1.41-2.396 s-6.299-3.299-6.299-3.299V9.021z"/><path fill="#d6e5e5" d="M9.453,25.344c0,0-0.389-5.426,0.236-6.429s1.318-2.053,2.457-2.734 c1.139-0.681,3.401-1.931,3.401-1.931l-0.173-2.674l-5.102,3.449c0,0-2.725,1.741-2.835,3.944s-0.16,7.279-0.16,7.279L9.453,25.344 z"/><path fill="#d6e5e5" d="M19.292,39.104c0,0,5.644,2.659,6.645,2.652c1.001-0.007,6.343-3.571,6.343-3.571l3.054,0.71 c0,0-5.666,4.38-8.437,5.18s-4.882-1.313-5.795-1.653c-0.913-0.34-4.309-2.338-4.309-2.338L19.292,39.104z"/><polygon fill="#16b7b8" points="4.574,27.733 13.396,29.614 14.464,41.25 4.833,39.167"/><path fill="#9fdadf" d="M13.688,29.614l8.766-2.815c0,0-0.464,3.911-0.348,6.194s0.189,4.59,0.189,4.59l-7.462,3.667 L13.688,29.614z"/><path fill="#74cccf" d="M4.931,27.316c0,0,4.652-2.143,5.464-2.412s2.511-0.795,2.511-0.795s1.998,0.73,2.962,0.922 c0.965,0.192,6.134,1.385,6.134,1.385l-8.487,3.1L4.931,27.316z"/><path fill="#16b7b8" d="M23.313,9.488c0,0-5.771-1.842-8.604-1.842c0.313,2.021,0.978,8.158,0.633,9.24 c1.059,0.22,8.518,2.709,8.518,2.709L23.313,9.488z"/><path fill="#9fdadf" d="M23.724,9.646l1.665-1.276l5.384-3.183l-0.057,5.249c0,0,0.101,3.228,0.786,5.74 c-2.715,1.449-7.231,3.542-7.231,3.542L23.724,9.646z"/><polygon fill="#74cccf" points="15.163,7.271 23.694,9.479 26.241,7.689 30.524,5.041 23.022,3.531"/><polygon fill="#9fdadf" points="37.578,29.729 43.479,24.958 43.576,34.292 37.854,39.481"/><polygon fill="#74cccf" points="27.938,26.479 37.46,29.387 38.157,29.106 43.461,24.644 34.297,22.469"/><path fill="#16b7b8" d="M27.789,26.622l9.552,2.847l0.004,4.031l0.233,5.865c0,0-4.125-0.287-10.156-2.943 C27.702,34.361,27.789,26.622,27.789,26.622z"/><path fill="#010101" d="M44.076,27.074c0.027-0.483,0.037-2.118,0-2.601c-0.002-0.029-0.016-0.053-0.023-0.08 c-0.004-0.016,0.002-0.031-0.003-0.047c-0.003-0.01-0.013-0.015-0.017-0.025c-0.064-0.153-0.194-0.263-0.351-0.295 c-0.005-0.001-0.008-0.005-0.013-0.006c-0.856-0.159-1.659-0.341-2.445-0.527c0.006-0.029,0.019-0.055,0.02-0.086 c0.061-2.232,0.005-4.489-0.165-6.707c-0.073-0.963-0.179-1.896-0.667-2.726c-0.575-0.979-1.577-1.589-2.382-2.079 c-1.22-0.744-2.481-1.513-3.917-1.917c-0.933-0.262-2.228-0.666-2.882-1.176c0.003-0.106,0.003-0.213,0.006-0.319 c0.026-0.951,0.054-1.935-0.029-2.912c-0.017-0.202-0.05-0.578-0.315-0.869c-0.231-0.251-0.538-0.329-0.74-0.381 c-1.362-0.349-2.754-0.58-4.1-0.804c-0.884-0.146-1.773-0.294-2.67-0.477c-0.096-0.02-0.195-0.01-0.284,0.025 c-2.481,0.983-6.095,2.463-8.833,3.962c-0.056,0.029-0.104,0.068-0.145,0.114c-0.022,0.025-0.042,0.053-0.059,0.082 c0,0,0,0.001,0,0.001s0,0,0,0c-0.056,0.1-0.079,0.219-0.057,0.339c0,0.001,0,0.002,0.001,0.003c0,0.005,0.001,0.009,0.002,0.014 c0.269,1.241,0.467,2.521,0.616,3.854c-0.624,0.43-1.307,0.897-2.003,1.373c-0.831,0.566-1.664,1.136-2.384,1.635 c-0.9,0.622-2.021,1.396-2.633,2.549c-0.586,1.102-0.625,2.355-0.659,3.461l-0.165,5.396c-0.801,0.375-1.609,0.779-2.462,1.224 c-0.003,0.001-0.004,0.005-0.007,0.007c-0.079,0.043-0.14,0.109-0.185,0.185c-0.01,0.018-0.018,0.034-0.026,0.052 c-0.036,0.081-0.059,0.169-0.047,0.264c0.262,2.019,0.21,4.348,0.161,6.599c-0.033,1.498-0.064,2.912-0.011,4.253 c0.008,0.214,0.021,0.537,0.225,0.818c0.231,0.317,0.594,0.423,0.81,0.485c1.344,0.391,2.988,0.747,4.578,1.091 c1.573,0.342,3.2,0.694,4.51,1.075c0.046,0.013,0.093,0.02,0.14,0.02c0,0,0,0,0,0c0,0,0,0,0,0c0,0,0.001,0,0.001,0 c0.078,0,0.153-0.025,0.223-0.061c0.01-0.005,0.021-0.003,0.031-0.008c0.688-0.407,1.396-0.761,2.122-1.1l5.805,3.047 c0.78,0.409,1.664,0.873,2.652,0.959c0.114,0.01,0.228,0.015,0.341,0.015c1.154,0,2.25-0.493,3.2-0.966 c1.818-0.906,3.876-2.303,5.691-3.534l0.727-0.493c0.081-0.055,0.133-0.133,0.17-0.216c0.406,0.101,0.812,0.21,1.216,0.301 c0.203,0.045,0.453,0.102,0.724,0.102c0.012,0,0.025-0.005,0.037-0.005c0.035,0.008,0.069,0.021,0.106,0.021 c0.008,0,0.017,0,0.025-0.001c0.081-0.004,0.153-0.031,0.219-0.068c0.027-0.006,0.052-0.003,0.079-0.011 c0.327-0.098,0.584-0.301,0.771-0.449c1.775-1.402,3.729-3.13,5.228-4.622c0.091-0.091,0.143-0.213,0.147-0.341 c0.021-0.743,0.031-1.35,0.042-1.938c0.014-0.784,0.027-1.533,0.063-2.533c0.021-0.579,0.005-1.007-0.01-1.425 C44.056,28.132,44.041,27.697,44.076,27.074z M38.03,28.675c-0.168,0.101-0.317,0.186-0.449,0.207 c-0.15,0.022-0.35-0.022-0.542-0.066c-1.501-0.348-3.087-0.857-4.621-1.351c-1.205-0.388-2.441-0.785-3.654-1.111 c1.747-1.225,3.755-2.391,5.66-3.277c1.875,0.241,3.492,0.64,5.201,1.061c0.958,0.236,1.94,0.479,2.989,0.695 C41.176,26.365,39.442,27.825,38.03,28.675z M27.303,26.179c-0.01,0.008-0.012,0.021-0.022,0.029 c-0.054,0.047-0.096,0.102-0.126,0.168c-0.006,0.014-0.016,0.025-0.021,0.039c-0.023,0.068-0.036,0.14-0.028,0.216 c0.299,2.84,0.264,6.691-0.088,9.81c-0.025,0.223,0.1,0.435,0.307,0.52c1.228,0.504,2.565,0.979,3.941,1.422 c-1.154,0.846-2.616,1.842-3.881,2.446c-0.489,0.233-1.059,0.479-1.572,0.423c-0.285-0.031-0.583-0.153-0.873-0.272l-4.517-1.848 c0.784-0.372,1.565-0.771,2.322-1.235c0.001-0.001,0.002-0.002,0.003-0.003c0.04-0.025,0.07-0.06,0.102-0.094 c0.056-0.063,0.101-0.133,0.12-0.213c0.001-0.003,0-0.007,0-0.01c0.013-0.06,0.016-0.123,0.006-0.185c0-0.001,0-0.002,0-0.004 c-0.5-3.019-0.5-7.234,0.002-10.737c0.003-0.019-0.004-0.035-0.003-0.054c0-0.01,0.008-0.017,0.008-0.027 c0-0.013-0.01-0.022-0.011-0.034c-0.008-0.086-0.032-0.167-0.079-0.237c-0.003-0.004-0.004-0.01-0.007-0.014 c-0.052-0.071-0.126-0.121-0.21-0.157c-0.01-0.004-0.016-0.016-0.027-0.02c-1.697-0.597-3.48-0.941-5.206-1.274 c-1.149-0.222-2.337-0.451-3.455-0.75c-0.109-0.028-0.212-0.079-0.315-0.126c-0.223-0.103-0.476-0.218-0.787-0.231 c-0.298,0.002-0.559,0.057-0.825,0.133c-0.764,0.216-1.479,0.448-2.17,0.696c0.069-0.866,0.037-1.83,0.006-2.708 c-0.011-0.306-0.021-0.6-0.026-0.872l-0.003-0.16c-0.01-0.419-0.019-0.814,0.073-1.174c0.116-0.456,0.408-0.889,0.694-1.312 c0.22-0.325,0.428-0.632,0.679-0.886c0.63-0.637,1.959-1.37,3.028-1.959c0.192-0.106,0.368-0.204,0.543-0.302 c0.019,0.549,0.042,1.089,0.045,1.667c0.001,0.215,0.14,0.405,0.344,0.472l7.984,2.626c0.238,0.079,0.528,0.175,0.853,0.175 c0.042,0,0.084-0.001,0.128-0.005c0.368-0.031,0.681-0.195,0.933-0.326c0.948-0.497,2.127-0.995,3.267-1.476 c1.159-0.489,2.357-0.995,3.342-1.511c0.208-0.109,0.312-0.348,0.251-0.574c-0.313-1.159-0.53-2.389-0.665-3.635 c1.748,0.623,3.382,1.501,4.852,2.649c0.168,0.131,0.38,0.262,0.602,0.397c0.383,0.234,0.86,0.526,0.958,0.796 c0.117,0.323,0.127,0.71,0.136,1.084c0.024,0.934,0.012,1.851,0,2.769c-0.01,0.8-0.013,1.604,0,2.413 c-1.116-0.254-2.25-0.481-3.512-0.636c-0.092-0.014-0.186,0.003-0.27,0.042C31.81,23.178,29.32,24.661,27.303,26.179z M14.865,40.645c-0.235-1.766-0.327-3.569-0.407-5.323c-0.08-1.756-0.164-3.573-0.399-5.357l0.987-0.317 c2.148-0.688,4.76-1.526,6.841-2.305c-0.388,3.285-0.37,7.019,0.056,9.86c-1.24,0.729-2.557,1.318-3.837,1.882 C17.028,39.558,15.929,40.067,14.865,40.645z M37.508,12.749c0.747,0.455,1.593,0.971,2.04,1.731 c0.379,0.646,0.468,1.454,0.532,2.296c0.157,2.041,0.215,4.114,0.172,6.172c-0.001,0.014-0.002,0.028-0.002,0.042l-0.005,0.268 c-0.125-0.031-0.257-0.061-0.381-0.092c-0.319-0.079-0.633-0.155-0.947-0.231c-0.02-0.886-0.012-1.76,0-2.633 c0.012-0.931,0.024-1.861,0-2.807c-0.011-0.433-0.024-0.923-0.196-1.398c-0.217-0.601-0.833-0.977-1.376-1.309 c-0.187-0.114-0.367-0.224-0.509-0.334c-1.678-1.309-3.554-2.296-5.571-2.959c-0.033-0.507-0.052-1.015-0.054-1.521 c0.774,0.415,1.778,0.727,2.631,0.968C35.145,11.309,36.346,12.041,37.508,12.749z M30.236,6.019c0.045,0.808,0.023,1.635,0,2.438 C30.222,8.96,30.208,9.465,30.21,9.97c0.002,0.604,0.032,1.211,0.076,1.817c-0.01,0.076-0.003,0.149,0.02,0.219 c0.114,1.396,0.33,2.782,0.659,4.092c-0.879,0.437-1.912,0.872-2.914,1.295c-1.159,0.489-2.357,0.995-3.342,1.511 c-0.095,0.05-0.191,0.1-0.285,0.14c-0.023-0.052-0.047-0.104-0.085-0.146c0.135-0.914,0.096-1.83,0.057-2.721l-0.159-3.641 c-0.033-0.788-0.079-1.801-0.19-2.616c0.005-0.001,0.01-0.001,0.014-0.002c0.547-0.15,0.948-0.523,1.356-0.902 C26.932,7.612,28.686,6.711,30.236,6.019z M23.328,4.051c0.86,0.171,1.712,0.313,2.56,0.453c1.277,0.212,2.489,0.413,3.704,0.708 c-1.566,0.713-3.317,1.646-4.908,3.121c-0.296,0.275-0.576,0.535-0.886,0.62c-0.398,0.107-0.886-0.062-1.361-0.228 c-1.917-0.666-4.038-1.181-6.32-1.535C18.512,5.997,21.283,4.862,23.328,4.051z M22.109,9.671c0.292,0.102,0.604,0.21,0.929,0.27 c0.118,0.783,0.169,1.87,0.2,2.636l0.159,3.644c0.039,0.897,0.07,1.818-0.083,2.691l-7.386-2.43 c-0.009-0.728-0.032-1.428-0.065-2.113c0.006-0.053,0.007-0.105-0.005-0.157c-0.045-0.889-0.117-1.739-0.205-2.57 c-0.002-0.034-0.003-0.067-0.012-0.1c-0.129-1.201-0.294-2.36-0.516-3.485C17.67,8.401,20.016,8.943,22.109,9.671z M7.943,20.483 c0.03-0.997,0.065-2.127,0.542-3.023c0.499-0.938,1.466-1.605,2.319-2.195c0.719-0.498,1.55-1.065,2.379-1.632 c0.532-0.363,1.051-0.718,1.551-1.061c0.042,0.485,0.081,0.973,0.109,1.479c-0.286,0.17-0.613,0.353-0.983,0.557 c-1.184,0.652-2.525,1.393-3.256,2.132c-0.316,0.319-0.56,0.68-0.8,1.034c-0.315,0.466-0.672,0.994-0.831,1.619 c-0.125,0.492-0.115,0.976-0.104,1.443l0.003,0.157c0.005,0.277,0.016,0.576,0.027,0.889c0.036,1.026,0.072,2.172-0.06,3.071 c-0.352,0.14-0.7,0.286-1.046,0.437L7.943,20.483z M12.336,24.819c0.194-0.055,0.37-0.115,0.51-0.095 c0.113,0.004,0.251,0.067,0.411,0.141c0.155,0.07,0.311,0.14,0.474,0.184c1.152,0.308,2.357,0.54,3.523,0.766 c1.223,0.235,2.476,0.478,3.691,0.81c-1.949,0.708-4.268,1.45-6.205,2.071l-1.248,0.401c-1.389-0.316-2.868-0.667-4.347-1.019 c-1.061-0.252-2.123-0.503-3.15-0.742C8.079,26.294,9.984,25.485,12.336,24.819z M10.025,39.85c-1.573-0.342-3.2-0.694-4.511-1.075 c-0.061-0.018-0.248-0.071-0.279-0.112c-0.026-0.038-0.032-0.2-0.035-0.27c-0.052-1.311-0.021-2.71,0.012-4.191 c0.045-2.039,0.078-4.128-0.104-6.043c1.233,0.284,2.514,0.586,3.808,0.893c1.412,0.334,2.816,0.667,4.149,0.971 c0.001,0.011-0.004,0.021-0.002,0.033c0.233,1.755,0.316,3.563,0.396,5.312c0.081,1.762,0.164,3.575,0.4,5.368 C12.676,40.424,11.332,40.133,10.025,39.85z M33.968,39.443c-1.79,1.215-3.818,2.592-5.576,3.468 c-0.962,0.479-1.99,0.946-3.008,0.85c-0.789-0.068-1.544-0.465-2.274-0.848l-5.117-2.686c0.172-0.076,0.341-0.152,0.515-0.229 c0.223-0.098,0.449-0.199,0.674-0.299c0.006,0.003,0.01,0.009,0.017,0.011l5.361,2.193c0.337,0.138,0.719,0.295,1.145,0.341 c0.089,0.01,0.177,0.014,0.265,0.014c0.679,0,1.304-0.269,1.847-0.528c1.524-0.729,3.318-1.989,4.554-2.919 c0.025-0.019,0.039-0.045,0.06-0.067c0.597,0.179,1.194,0.359,1.799,0.521L33.968,39.443z M28.053,36.176 c0.301-2.898,0.339-6.217,0.111-8.94c1.298,0.334,2.641,0.76,3.948,1.18c1.553,0.5,3.16,1.017,4.702,1.374 c0.072,0.017,0.154,0.033,0.235,0.049c-0.309,3.188-0.204,6.178-0.066,9.071c-0.042-0.009-0.078-0.013-0.122-0.023 C33.832,38.203,30.72,37.244,28.053,36.176z M43.074,28.629c0.014,0.396,0.029,0.804,0.01,1.354 c-0.036,1.007-0.049,1.762-0.063,2.55c-0.01,0.531-0.02,1.078-0.037,1.729c-1.453,1.435-3.309,3.07-5.001,4.406 c-0.003,0.003-0.006,0.004-0.009,0.007c-0.135-2.849-0.233-5.79,0.083-8.903c0.17-0.066,0.332-0.145,0.488-0.239 c1.406-0.846,3.105-2.262,4.555-3.766c-0.001,0.511-0.01,1.025-0.022,1.253C43.04,27.687,43.057,28.166,43.074,28.629z"/></svg>