<svg xmlns="http://www.w3.org/2000/svg"  viewBox="0 0 512 512" width="48px" height="48px"><path fill="#EF4823" d="M207.4,464c0.5,2.6,1.2,5.2,2,7.7c0.7,2.3,1.5,5.2,2.6,7.7c2.6-1.5,5.5-2.4,8.6-1.7c1.9,0.4,3.6,1.1,5.3,1.9v-13.5c0-0.8,0.2-1.6,0.5-2.2C220,464.1,213.7,464.1,207.4,464z"/><path fill="#D6E5E5" d="M357.8,64c-7.7,1.4-15.7,1.4-23.4,1.8c-12,0.5-24,0.7-36,2.2c-23.6,2.9-46.8,8.9-70.5,10.9c-24.4,2.1-48.8,2.5-73.2,4c-21.3,1.3-42.3,5-63.6,5.7c-0.1,1-0.2,2.1-0.3,3.1c0.1-1.1,1.4,2.2,1.4,2.4c0.7,1.2,1.5,2.4,2.2,3.7c0,0.1,0.1,0.1,0.1,0.2c0.7-1.3,2-2.2,3.9-2.2c49.4-0.2,97-16.4,146.3-17c24.7-0.3,48.5-3.5,72.9-7.2c13.1-2,27.8-6.2,41.4-4.8C358.6,65.9,358.1,65,357.8,64z"/><path fill="#127274" d="M372.7,48.7c-1.7,1.8-4.6,2.7-7.1,0.8c1.9,1.4,0.4,0.4-0.9,0.2c-0.8-0.1-1.6-0.2-2.4-0.2c-2.2-0.1-4.5-0.2-6.7-0.2c-4-0.1-8.1,0.1-12.1-0.6c-14.9-2.5-30.8-2.1-45.8-1.3c-31.7,1.5-62.8,7.7-94.3,10.7c-28.4,2.7-56.8,3.3-85.2,6.8c-8.8,1.1-17.8,2.3-26.1,5.4c-1.9,0.7-3.7,1.5-5.4,2.4c0.5,0.2,1,0.5,1.4,0.9c1.6,1.3,2.5,3,3,5c21-0.8,41.8-4.4,62.8-5.7c23.8-1.4,47.6-1.7,71.3-3.8c23.8-2.1,46.9-8,70.6-10.9c11.9-1.5,23.9-1.8,35.9-2.3c10.7-0.5,22.3-0.1,32.5-3.9c5.4-2,9,5.6,4.4,8.9c-0.1,0.1-0.2,0.2-0.2,0.3c0.3,0.1,0.6,0.1,0.8,0.2c1.1,0.2,2.1,0.4,3.2,0.8c2.1,0.7,4.1,1.8,5.4,3.6C377.7,59.4,376.8,52.1,372.7,48.7z"/><path fill="#D6E5E5" d="M81.5 94.7c-.6-2.4-.6-4.4-.3-6.8 0-.3.1-.7.1-1-.8-1-1.2-2.2-1.3-3.4-.7.2-1.4.2-2.1 0 0 .2-.1.5-.1.7 1 1.7 1.2 3.8-.2 5.8-.2.3-.3.5-.4.8.1 1.5.3 3.1.4 4.6 1.3 3.3 4.1 6.7 5.8 8.1 1.1.9 2.2 1.6 3.4 2.3C86.4 101.7 82.6 98.7 81.5 94.7zM371.3 81.5c-.7-.6-1.2-1.1-1.6-1.8-.7 0-1.3-.2-2.1-.5-8.6-4-19-2.6-28.1-1.3-9.4 1.4-18.7 3.2-28 4.7-11.9 2-23.8 3.7-35.8 4.8-11.9 1-23.8.9-35.7 1.4-46.1 2-90.8 15.9-137 16.8-.2 0-.5 0-.7 0h-3c-.9 0-1.7-.2-2.4-.6 0 .1 0 .1 0 .2.1 1.6-.4 2.9-1.3 3.8 1.4.3 2.7.5 4.1.7 13.6 1.9 28 1.1 41.6.5 17.6-.8 35.2-2.5 52.7-4.3.1-2.2 1.5-4.3 4.4-4.3 30.8-.2 60.1-9.8 90.4-14.2 27.8-4 56.3-4.7 84.5-4.8C372.6 82.4 372 82 371.3 81.5z"/><path fill="#FEBF10" d="M419.3,162.6c-0.7-8.4-1.7-16.8-2.1-25.2c-0.3-6.7,0-13.4-0.4-20.1c-0.2-3.7-0.6-7.5-1-11.2c-0.2-1.5-0.4-3.1-0.6-4.6c-5.7,1-11.4,2.1-17.1,3c-14.9,2.3-30.2,2.3-45.3,2.9c-0.1,0.5-0.2,1-0.4,1.5c-7.7,17.1,29.4,18.8,39.1,18.8c2.6,0,5.4,1.7,5.4,4.6c0,7.9,0.4,16.9,4.4,24c4.1,7.1,10.2,11.2,17.8,13.9c0.3,0.1,0.6,0.3,0.9,0.4C419.8,168,419.6,165.3,419.3,162.6z"/><path fill="#D6E5E5" d="M382.8,92c-0.7,0.4-1.5,0.7-2.5,0.7c-30.7,0-62.2,0.2-92.5,5.1c-5.3,0.9-10.7,1.8-16,2.9c21.4-1,42.8-1.8,64.2-2.6c16.2-0.6,32.4-1.3,48.6-2.1c0.4,0,0.8-0.1,1.2-0.1C384.6,94.7,383.7,93.4,382.8,92z"/><path fill="#3AB37C" d="M426.4,260.4c-2.6-27.4-4-54.9-5.9-82.3c-0.8,0.9-1.9,1.6-3.2,1.6h-3c-2.1,0-3.6-1.1-4.5-2.6c-7.3-3.6-13.4-8.9-17.3-16.2c-3.8-7.2-5.1-15.3-5.5-23.3c-19.1-0.9-52.1-6.8-44.9-29.7c-12.8,0.5-25.7,1-38.5,1.5c-32.7,1.3-65.6,2.2-98.2,5.6c-31.3,3.2-62.6,6.7-94.1,5.8c-10-0.3-22.2-1.1-31-6.9c0.3,1.6,0.5,3.3,0.8,4.9c1.8,11.6,2.1,23.3,3.1,35c2.1,25.3,3.6,50.6,5.8,75.9c4.3,49.5,12.1,98.7,16.4,148.2c1.3,14.7,2,29.7,5.3,44.1c1.3,5.6,2.7,12.4,6.5,17c2.4,2.8,6.1,3.9,9.6,4.8c29.5,8.2,59.1,10,89.6,10c16.2,0,32.1-0.5,48.1-3c15.6-2.4,30.3-8.2,45.9-10.6c19.5-2.9,39-6.1,58.5-8.1c1.2-21.9,23.8-34.6,44-36.1c4.2-16.3,7.5-32.8,16.4-47.4c0.9-1.4,2.4-2.3,4-2.5C432.6,317.4,429.1,288.9,426.4,260.4z M363.8,290.7c-0.3,1.6-1.2,2.7-2.3,3.3c-1.8,7.8-5.2,13.4-13.3,16.3c-12.1,4.2-24.5,4.4-36.9,6.5c-28.1,4.7-56.7,5-85.1,6.8c-8.3,0.5-18.6,5.3-26.8,2.7c-10.1-3.2-12.2-13.4-12.3-23c-0.2-25.2-4.8-50.2-5.2-75.4c0-0.2,0-0.4,0-0.7v-2c0-2.7,1.7-4.3,3.7-5c0.4-0.4,1-0.8,1.6-1.1c9.4-4.3,20.4-3.3,30.4-4c12.5-0.9,25.1-1.7,37.5-4.1c25.3-4.9,50.9-8,76.7-8.1c5.8,0,12.8-0.6,16.1,5.3c1.7,3,2.2,6.6,2.7,9.9c1,6.1,2.8,12.1,4.6,17.9c3.1,9.9,5.2,19.7,7,30C363.6,273.9,365.3,282.5,363.8,290.7z"/><path fill="#FEBF10" d="M435.3,360.7c-6,13-8.7,27.1-12.5,41c-0.6,2.1-2.2,4-4.5,4c-14.8,0.2-36.9,8.2-38.3,25.4c8.9-0.7,17.8-1.2,26.7-1.3c0.9-1.8,2.7-3.2,5.2-2.9c15.4,1.4,21.3-11.8,23.3-24.9C437.1,388.2,436.1,374.4,435.3,360.7z"/><path fill="#BCBCBC" d="M352.1,265.2c-0.8-4.5-1.7-9.1-2.5-13.6c-0.9-4.8-2.8-9.4-4.2-14.1c-1.7-5.7-3.5-11.5-4.4-17.4c-0.3-2.1-0.4-5.8-1.9-7.5c0.5,0.6-3.1,0.1-4.1,0.1c-5,0-10.1,0-15.1,0.2c-23.5,1-46.1,5.4-69.3,8.8c-11.1,1.6-22.3,2.7-33.5,3.3c-8.2,0.4-17.3-0.2-25.1,2.8c0.2,11.2,1.1,22.3,2.3,33.4c1.2,11,3.1,22.2,3,33.3c-0.1,5.8-2.4,22.6,7,22.1c4-0.2,7.8-1.2,11.7-2c4.5-0.9,8.9-1.2,13.5-1.4c25.2-1.4,50.5-1.8,75.5-5.6c11.5-1.8,23.5-1.9,34.7-5.2c2.8-0.8,7.5-1.5,9.6-3.9c1.9-2.1,2.3-5.1,2.8-7.8c0.3-1.5,1.1-2.6,2.2-3.2C355.2,280.3,353.3,272.2,352.1,265.2z M218.5,243.7c30.8-0.2,60.2-11.8,91-12c6.4,0,7.2,9.9,0.8,10c-30.8,0.2-60.2,11.8-91,12C212.9,253.7,212.1,243.8,218.5,243.7z M227.2,265c17.7-5.7,37-5.9,55.5-6.4c6.6-0.2,13.2-0.4,19.8-0.8c3-0.2,6.1-0.4,9.1-0.7c1.1-0.1,2.2-0.2,3.3-0.4c0.1,0,0.2,0,0.3-0.1c0,0,0.1,0,0.2-0.1c0.5-0.2,0.7-0.2,0.8-0.1c3.5-1.3,8,0.9,6.6,5.3c-1.7,5.3-8.2,5.2-12.9,5.6c-7.3,0.6-14.7,0.9-22.1,1.2c-19,0.6-39,0.1-57.3,6C224.4,276.4,221.1,266.9,227.2,265z M320.3,285.7c-28.5,0.3-55.5,11.7-84,12c-6.4,0.1-7.2-9.9-0.8-10c28.5-0.3,55.5-11.7,84-12C325.9,275.7,326.7,285.6,320.3,285.7z"/><path fill="#010101" d="M445.5,363.2c-1.7-27.4-4.3-54.7-7-82c-3.2-32.7-5.2-65.3-7.5-98c-0.8-11.7-1.8-23.4-2.8-35c-0.9-10.6-0.9-21.1-1.3-31.7c-0.2-5.4-0.9-10.7-1.7-16c-0.2-1.1-0.4-2.4-0.7-3.7c0.7-3-1-6.4-4.7-6.1c-0.7-0.1-1.6,0-2.6,0.3c-0.2,0-0.3,0.1-0.4,0.2c-5.3,0.9-10.5,1.9-15.7,2.8c0-0.9-0.2-1.8-0.5-2.9c-0.6-2.1-3-3.6-5.1-3.3c-1.1,0.1-2.3,0.3-3.5,0.2c0,0-0.1-0.1-0.1-0.1c-1-1.5-1.9-2.7-1.8-4.5c0.1-2.9-1.5-5.5-3.8-7.3c0.9-0.9,1.5-2.1,1.5-3.7c0-15.3-2.1-35-21.4-35.6c-2.3-0.1-3.7,1.2-4.2,2.8c-4.7-0.3-9.4-0.2-14.1-0.4c-5.4-0.2-10.8-1.1-16.2-1.5c-7.9-0.5-15.8-0.7-23.7-0.6c-31.5,0.4-62.7,5.2-93.7,9.7c-16.4,2.3-32.9,2.9-49.4,3.8c-14.1,0.7-28.1,2.1-42.1,3.7c-16.4,1.9-36.1,3.4-48.8,15.3c-3,2.9-5.1,6.8-5.9,10.9c-0.9,0.9-1.4,2.1-1.4,3.6c0,3.1,0.2,6.1,0.5,9.1c0,0.5,0.1,0.9,0.1,1.4c1.1,11.2,3.4,22.3,4.8,33.5c1.9,15.8,2.4,31.9,3.8,47.8c2.9,32.4,4.6,64.9,8.2,97.2c3.6,32,8.4,64,11.2,96.1c1.3,15,2.2,30.2,4.6,45.1c1.7,11.1,3.9,24.3,12,32.7c5,5.2,13,6.2,19.5,8.2c12.3,3.8,25.4,5.5,38.2,6.7c9,0.9,18.1,1.5,27.3,1.8c1,9.2,4.6,20.3,10.4,26.7c1.9,2.1,5.3,1.3,7.1-0.5c4.5-4.7,8.6-0.6,12.9,2.5c3.6,2.6,8.3,0.4,8.3-4.1v-23c0-0.7-0.1-1.2-0.3-1.7c4.4-0.2,8.7-0.4,13.1-0.7c13.3-1,26.2-3.5,39-7.2c13.3-3.8,26.5-5.9,40.2-7.9c27-4.1,54.1-8,81.5-8.1c2.3,0,3.7-1.3,4.2-2.9C449.3,437.1,447.1,389,445.5,363.2z M398.1,104.5c5.7-0.9,11.4-2,17.1-3c0.2,1.5,0.4,3.1,0.6,4.6c0.4,3.7,0.8,7.5,1,11.2c0.4,6.7,0,13.4,0.4,20.1c0.4,8.4,1.4,16.8,2.1,25.2c0.2,2.7,0.4,5.4,0.6,8.1c-0.3-0.2-0.5-0.3-0.9-0.4c-7.6-2.8-13.8-6.8-17.8-13.9c-4-7.1-4.4-16.1-4.4-24c0-2.9-2.8-4.6-5.4-4.6c-9.8,0-46.9-1.7-39.1-18.8c0.2-0.5,0.4-1,0.4-1.5C367.9,106.8,383.2,106.8,398.1,104.5z M380.3,92.7c1,0,1.8-0.2,2.5-0.7c0.9,1.4,1.8,2.7,3,3.8c-0.4,0-0.8,0.1-1.2,0.1c-16.2,0.8-32.4,1.5-48.6,2.1c-21.4,0.8-42.8,1.6-64.2,2.6c5.3-1.1,10.6-2.1,16-2.9C318.1,92.9,349.6,92.7,380.3,92.7z M96.9,105.3c0-0.1,0-0.1,0-0.2c0.7,0.4,1.5,0.6,2.4,0.6h3c0.3,0,0.5,0,0.7,0c46.2-0.9,90.9-14.8,137-16.8c11.9-0.5,23.8-0.4,35.7-1.4c12-1,23.9-2.8,35.8-4.8c9.4-1.6,18.7-3.3,28-4.7c9.1-1.4,19.5-2.7,28.1,1.3c0.7,0.3,1.4,0.5,2.1,0.5c0.4,0.6,0.9,1.2,1.6,1.8s1.4,1,2,1.3c-28.1,0.1-56.6,0.7-84.5,4.8c-30.2,4.4-59.6,14-90.4,14.2c-2.9,0-4.4,2.1-4.4,4.3c-17.6,1.7-35.1,3.5-52.7,4.3c-13.7,0.6-28.1,1.4-41.6-0.5c-1.3-0.2-2.7-0.4-4.1-0.7C96.5,108.2,97,106.9,96.9,105.3z M94.6,97.9c0-0.1-0.1-0.1-0.1-0.2c-0.7-1.2-1.5-2.5-2.2-3.7c-0.1-0.1-1.4-3.4-1.4-2.4c0.1-1.1,0.2-2.1,0.3-3.1c21.3-0.7,42.3-4.4,63.6-5.7c24.4-1.5,48.9-1.9,73.2-4c23.8-2.1,46.9-8,70.5-10.9c11.9-1.5,24-1.7,36-2.2c7.7-0.3,15.7-0.4,23.4-1.8c0.3,1,0.8,1.9,1.3,2.7c-13.7-1.4-28.3,2.8-41.4,4.8c-24.4,3.7-48.2,6.9-72.9,7.2c-49.3,0.6-96.9,16.8-146.3,17C96.5,95.7,95.2,96.7,94.6,97.9z M92.2,70.3c8.3-3.1,17.3-4.3,26.1-5.4c28.3-3.5,56.8-4.1,85.2-6.8c31.5-3,62.6-9.2,94.3-10.7c15-0.7,30.9-1.2,45.8,1.3c3.9,0.7,8.1,0.5,12.1,0.6c2.2,0,4.5,0.1,6.7,0.2c0.8,0,1.6,0.1,2.4,0.2c1.3,0.1,2.8,1.2,0.9-0.2c2.5,1.9,5.4,1,7.1-0.8c4.1,3.4,5,10.7,5.2,17.1c-1.3-1.8-3.3-3-5.4-3.6c-1.1-0.3-2.1-0.6-3.2-0.8c-0.3,0-0.6-0.1-0.8-0.2c0.1-0.1,0.1-0.2,0.2-0.3c4.6-3.2,1-10.9-4.4-8.9c-10.1,3.8-21.8,3.4-32.5,3.9c-12,0.5-24,0.9-35.9,2.3c-23.7,2.9-46.8,8.8-70.6,10.9c-23.7,2.1-47.5,2.4-71.3,3.8c-21,1.2-41.8,4.9-62.8,5.7c-0.5-1.9-1.4-3.7-3-5c-0.5-0.4-0.9-0.7-1.4-0.9C88.5,71.8,90.3,71,92.2,70.3z M77.2,90.8c0.1-0.3,0.2-0.6,0.4-0.8c1.4-2,1.2-4.1,0.2-5.8c0-0.3,0.1-0.5,0.1-0.7c0.7,0.2,1.4,0.2,2.1,0c0,1.2,0.5,2.5,1.3,3.4c0,0.3-0.1,0.7-0.1,1c-0.3,2.4-0.3,4.4,0.3,6.8c1.1,4,4.9,7,5.3,11.2c-1.2-0.7-2.4-1.4-3.4-2.3c-1.7-1.4-4.5-4.8-5.8-8.1C77.5,93.9,77.3,92.4,77.2,90.8z M225.9,466.1v13.5c-1.7-0.8-3.4-1.5-5.3-1.9c-3.1-0.6-6,0.2-8.6,1.7c-1.1-2.5-1.9-5.4-2.6-7.7c-0.8-2.5-1.5-5.1-2-7.7c6.3,0.1,12.7,0.1,19-0.1C226.1,464.5,225.9,465.3,225.9,466.1z M311.4,440.1c-15.6,2.3-30.4,8.2-45.9,10.6c-16,2.5-32,3-48.1,3c-30.5,0-60.1-1.8-89.6-10c-3.4-1-7.2-2-9.6-4.8c-3.8-4.5-5.2-11.4-6.5-17c-3.4-14.4-4.1-29.4-5.3-44.1c-4.2-49.5-12.1-98.7-16.4-148.2c-2.2-25.3-3.7-50.6-5.8-75.9c-1-11.7-1.3-23.4-3.1-35c-0.3-1.6-0.5-3.3-0.8-4.9c8.8,5.8,21,6.6,31,6.9c31.5,0.9,62.9-2.6,94.1-5.8c32.6-3.3,65.5-4.3,98.2-5.6c12.8-0.5,25.7-1,38.5-1.5c-7.2,22.9,25.8,28.8,44.9,29.7c0.4,8.1,1.7,16.1,5.5,23.3c3.9,7.4,10,12.7,17.3,16.2c0.8,1.5,2.3,2.6,4.5,2.6h3c1.4,0,2.5-0.6,3.2-1.6c2,27.4,3.4,54.9,5.9,82.3c2.7,28.5,6.2,57,8,85.5c-1.6,0.2-3.1,1.1-4,2.5c-8.9,14.6-12.2,31.1-16.4,47.4c-20.3,1.5-42.8,14.2-44,36.1C350.4,434.1,330.9,437.2,311.4,440.1z M435.1,401.9c-1.9,13.2-7.9,26.3-23.3,24.9c-2.5-0.2-4.3,1.2-5.2,2.9c-8.9,0.1-17.8,0.6-26.7,1.3c1.4-17.2,23.6-25.2,38.3-25.4c2.3,0,4-2,4.5-4c3.8-13.9,6.4-28,12.5-41C436.1,374.4,437.1,388.2,435.1,401.9z"/><path fill="#010101" d="M362.3,265.8c-1.8-10.3-3.9-20.1-7-30c-1.9-5.9-3.7-11.9-4.6-17.9c-0.5-3.4-1.1-6.9-2.7-9.9c-3.3-5.9-10.3-5.3-16.1-5.3c-25.8,0.2-51.4,3.2-76.7,8.1c-12.3,2.4-25,3.2-37.5,4.1c-10.1,0.7-21-0.3-30.4,4c-0.7,0.3-1.2,0.7-1.6,1.1c-2,0.6-3.7,2.3-3.7,5v2c0,0.2,0,0.4,0,0.7c0.4,25.3,5.1,50.2,5.2,75.4c0.1,9.5,2.2,19.8,12.3,23c8.2,2.6,18.5-2.2,26.8-2.7c28.4-1.8,57-2,85.1-6.8c12.5-2.1,24.8-2.2,36.9-6.5c8.1-2.8,11.5-8.5,13.3-16.3c1.1-0.6,2-1.7,2.3-3.3C365.3,282.5,363.6,273.9,362.3,265.8z M354.2,287.5c-1,0.6-1.9,1.7-2.2,3.2c-0.6,2.7-1,5.6-2.8,7.8c-2.1,2.4-6.7,3.1-9.6,3.9c-11.3,3.2-23.2,3.4-34.7,5.2c-25,3.8-50.3,4.2-75.5,5.6c-4.6,0.3-9,0.5-13.5,1.4c-3.9,0.8-7.7,1.8-11.7,2c-9.3,0.5-7-16.3-7-22.1c0.1-11.1-1.9-22.3-3-33.3c-1.2-11.1-2.1-22.2-2.3-33.4c7.8-3,16.9-2.4,25.1-2.8c11.2-0.5,22.4-1.6,33.5-3.3c23.1-3.4,45.8-7.8,69.3-8.8c5-0.2,10.1-0.2,15.1-0.2c1,0,4.6,0.5,4.1-0.1c1.5,1.8,1.6,5.4,1.9,7.5c0.9,5.9,2.7,11.7,4.4,17.4c1.4,4.7,3.3,9.3,4.2,14.1c0.8,4.5,1.7,9.1,2.5,13.6C353.3,272.2,355.2,280.3,354.2,287.5z"/><path fill="#010101" d="M309.5 231.7c-30.8.2-60.2 11.8-91 12-6.4.1-5.7 10 .8 10 30.8-.2 60.2-11.8 91-12C316.7 241.6 315.9 231.7 309.5 231.7zM316.2 256.4c-.1-.1-.3-.1-.8.1-.1 0-.1 0-.2.1-.1 0-.2 0-.3.1-1.1.2-2.2.3-3.3.4-3 .3-6.1.5-9.1.7-6.6.4-13.2.6-19.8.8-18.5.5-37.7.7-55.5 6.4-6.1 2-2.8 11.4 3.3 9.4 18.3-5.8 38.3-5.4 57.3-6 7.4-.2 14.7-.6 22.1-1.2 4.7-.4 11.1-.3 12.9-5.6C324.2 257.3 319.6 255.1 316.2 256.4zM319.5 275.7c-28.5.3-55.5 11.7-84 12-6.4.1-5.7 10 .8 10 28.5-.3 55.5-11.7 84-12C326.7 285.6 325.9 275.7 319.5 275.7z"/></svg>