<svg xmlns="http://www.w3.org/2000/svg"  viewBox="0 0 512 512" width="48px" height="48px"><path fill="#BCBCBC" d="M407.3,326.1c-1.6-31.7-1.8-63.5-6.4-95c-2.9-19.8-9.5-40.6-29.3-49.1c-9.5-4.1-19.9-5.1-30.2-5.1c-16.4,0.1-32.8,0.7-49.2,1.4c-16.4,0.7-32.8,1.5-49.2,1.7c-15.8,0.2-31.5-0.6-47.3-0.1c-28,0.9-55,6-81,16.5c-4.7,30.7-3.7,61.8-3.4,92.7c0.3,24.2-3.1,49.3,1,73.3c1.9,11.1,5.8,22.9,14,31c8.1,7.9,18.3,12.5,29.4,14.5c24.2,4.4,49-0.2,73.2-2.3c15.6-1.4,31.4-2.3,47.1-1.6c14.2,0.6,28.3,2.1,42.5,2.7c13.5,0.5,27.3,0.6,40.7-1.9c12.2-2.2,26-6.6,35-15.6C411.1,372.4,408.4,347.8,407.3,326.1z"/><path fill="#F6851F" d="M442.2 208.6c-4.2-.4-7.3 2.3-6.8 6.4.3 2.6-1 4.4-2.8 5.2 1.3 2.4 3.5 4.2 6.6 3.9 3.1-.3 7.3-2.2 8.2-5.6C448.5 214.3 447.2 209.1 442.2 208.6zM381 447.4c3 3.8 6.4 6.6 9.4 4.4 1.7-1.2 3.1-2.8 4.2-4.6C390.1 447.4 385.6 447.4 381 447.4zM445.1 258.3c-2.3-3-5.8-1.9-7.3 1.1-1.6 3.3-2.2 7.6-.3 10.9.2.4.4.7.5 1.1 2.1 1.4 5.6 1.1 7.5-.4C448.9 268.4 447.5 261.3 445.1 258.3zM146.2 446.9c-.9-.1-1.9-.3-2.8-.4.1 5.9.7 14.6 7.3 15.4 7.2.9 9.5-7.1 10.4-13.4C156.2 448.1 151.2 447.6 146.2 446.9zM448 296.9c-6-2.8-7.4 4.6-8.6 8.6 0 0 0 0 0 0 .1.6.1 1.3 0 2-.2 1.3 0 2 0 1.9.5.4.1.3 1.2.7-.7-.2 1.3.2 1.6.2 1.9.1 5.5-1.1 7.2-3.3C451.3 304.4 451.5 298.5 448 296.9zM298.7 113.3c-7.8-3.5-16.4-4.1-24.9-3.7-10.4.5-21 1.8-30.7 5.6-8.8 3.4-16.4 8.7-23.7 14.6 14.3 1.5 28.7 2.6 43.1 2.9 18.3.4 36.4-.8 54.4-2.5C312.2 123.4 306.5 116.8 298.7 113.3z"/><path fill="#127274" d="M475.3,353c-0.7-16.2-2.3-32.3-4-48.4c-1.7-16.1-3.5-32.2-4.3-48.3c-0.7-13.2-0.1-26.2,0.1-39.3c0.4-20.7-0.1-46-16-61.6c-18.2-17.8-46.2-20.9-70.4-20c-26.5,0.9-52.6,6.1-79,7.7c-31.7,2-63.5,0.2-95.1-3.4c-26.5-3.1-54.3-10.1-81.1-6.5c-11.1,1.5-22,5-31,11.9C83,153.9,77,166.5,69.9,178.9c-0.4,0.7-0.8,1.2-1.3,1.6c1.6,31.4,0.9,62.9,0.2,94.3c-0.6,27.4-2.5,55.7,1.4,83C73,377,79.2,397.2,93,411.5c16.6,17.3,39.5,23.1,62.7,25.5c31.3,3.2,62.7-0.3,93.9-2.8c15.4-1.2,30.9-2.4,46.4-2.3c15.5,0.1,31,1.3,46.4,2.4c7.7,0.6,16.1,1.2,24.8,1.6c1.9-1.1,4.3-1.3,6.2,0.2c8,0.2,16.3,0.2,24.4-0.3c-0.2-0.7-0.2-1.5,0-2.2c3.9,1,7.8,1.2,11.6,0.4c0.1,0.2,0.2,0.4,0.2,0.6c28.8-3.9,54.3-15.9,62.7-47.3C475.3,376,475.8,364.6,475.3,353z M428.6,303.4c1.5-4.8,2.4-10,6.2-13.6c4.1-3.8,10.4-5.4,15.7-3.7c9.7,3.2,14.5,16.4,9,25.2c-4.2,6.7-11.7,10.6-19.6,9.7c-7.9-0.9-12.4-7.3-11.5-14.8C428.2,305.4,428.2,304.5,428.6,303.4z M418.7,358.9c-1.1,10.8-4,21.5-10.2,30.5c-6.9,10-17.4,16.7-28.6,21c-25.4,9.7-53.1,7.9-79.6,6.1c-15.4-1.1-30.6-2.2-46.1-1.5c-15.7,0.6-31.3,2.2-46.9,3.8c-22.4,2.3-46.5,4.4-68-4.2c-22.7-9-34.8-29.2-38.1-52.7c-3.5-25-0.4-50.7-0.8-75.8c-0.4-30.1-1-60.4,3.4-90.2c1.4-3,3-6,4.7-8.9c0.2-0.3,0.4-0.6,0.6-0.8c0.6-0.1,1.1-0.1,1.7,0c19.2-7.9,39.4-13.1,60-15.5c30.8-3.5,62.1-1.1,93-2.2c16.4-0.6,32.8-1.4,49.2-1.9c14.2-0.5,28.8-1.6,43,0.2c19,2.4,36.5,11.5,45.7,28.8c5.5,10.3,8.3,21.3,10,32.9c2.3,15.6,3.5,31.4,4.4,47.2c0.8,15.9,1.3,31.8,2.1,47.7C418.8,335.2,419.8,347,418.7,358.9z M424.5,212.3c0.9-9.2,9.4-15.6,19-14.6c10.4,1,17.6,11.9,14.9,22.1c-2.2,8.4-10,15.5-19.1,15.3c-10.5-0.3-16.7-7.3-18.8-17.2C419.8,214.6,421.9,212.7,424.5,212.3z M425.6,267.4c-0.7-6.3,0.9-12.9,5.5-17.2c8-7.5,19.9-4.9,24.8,4.8c4.7,9.4,3.1,23.2-7.9,27.1c-10,3.6-20.7-1.5-22.5-12.3C425.3,268.9,425.4,268.1,425.6,267.4z M467.6,387.3c-3.9,11.7-20.2,12.2-29.9,6.6c-3.2,1.9-8.2,0.7-8.2-4.1c-0.1-16.4-1.9-32.6-2-49c0-4,3.4-6,6.4-5.7c0.6-1.8,2.1-3.2,4.6-3.2c7.7,0.1,15.3,0.9,23,1c2.8,0,5.9,1.9,5.9,5.1c0,10.2-0.7,20.5-0.4,30.7C467.2,374.2,469.4,381.9,467.6,387.3z"/><path fill="#FEBF10" d="M456.7,379.2c-1.3-11.8-0.6-23.7-0.3-35.5c-5.7-0.3-11.3-0.8-17-0.8c-0.3,0-0.6,0-0.9-0.1c0.2,13.2,1.4,26.4,1.8,39.6c0.4,0.2,0.9,0.5,1.3,0.9c3.8,3.4,9.7,3.9,14.4,2C457.9,384.5,456.9,381.1,456.7,379.2z"/><path fill="#010101" d="M485.5,338.5c-2.2-32.3-7.3-64.3-8-96.7c-0.5-22.9,2.7-45.7-3.7-68.1c-6.7-23.6-25.5-37.8-48.2-44.7c-24.7-7.5-51.9-5.1-77.1-2.1c-6.7,0.8-13.4,1.5-20,2.3c0,0,0-0.1,0-0.1c-0.1-2.4-1.2-4-2.9-5.7c-0.1-0.1-0.3-0.3-0.4-0.4c-5.3-7.4-11.5-13.9-19.6-18.4c-4.2-2.3-8.7-3.8-13.4-4.7c4-8.2,10.9-14.5,15.5-22.4c5.8-9.8,9.4-20.7,15.2-30.6c2.8-4.8-3.7-10.2-8-7c0.2,0,0.4,0,0.7,0.1c-3.6,0.4-5.1,3.5-4.8,6.3c-4.5,8.6-8.1,17.8-12.8,26.3c-5,9-13.2,15.6-16.8,25.4c-0.1,0.2-0.1,0.4-0.2,0.6c-1.7-0.1-3.4-0.1-5.1,0c-9.4,0.1-19,1.4-28.2,3.8c-2.4-4.6-6.3-9-8.8-12.9c-3.3-4.9-6-10.2-8.9-15.3c-3.8-6.7-7.4-13.4-11.2-20.1c-2.3-4.1-5.5-11.8-11.5-9.9c-4.5,1.4-4.4,6.4-1.9,9c0.1,0.1,0.1,0.2,0.3,0.4c0.6,0.8,1,1.6,1.5,2.4c1.5,2.5,2.9,5,4.3,7.5c3.3,5.8,6.4,11.7,9.7,17.5c2.7,4.9,4.1,7.7,7.2,12.6c2.1,3.3,4.4,6.5,6.6,9.8c0.6,0.8,1.1,1.7,1.6,2.5c-7.4,3.2-14.3,7.6-20.7,12.6c-1.1,0.4-2.1,1.1-2.8,2.2c-0.4,0.3-0.8,0.7-1.2,1c-2.4,2-2.5,4.8-1.5,7c-14.3-1.6-28.5-3.6-42.8-5.5c-22.8-3-47.4-4.4-68.7,6.1c-8.1,4-15.1,9.5-21.2,16.2c-6.9,7.6-11.5,17.2-16.5,26.2c-0.9,6.4-2.1,12.8-3.2,19.2c1.1,28.8,0.3,57.7-0.2,86.5c-0.6,28.1-2.4,57,2.1,84.9c3.2,20.2,10.4,40.2,24.2,55.6c13,14.4,30.1,22.1,48.4,26.3c0,0.2,0,0.3,0,0.5c0.1,11.8,2.8,25,16.1,27.8c14.7,3.1,21.7-11.5,23.5-23.6c22.3,0.7,44.8-1.2,67-3c15.5-1.3,31-2.6,46.6-3.1c15.7-0.5,31.4,0.4,47.1,1.6c10.9,0.8,22.7,1.8,34.9,2.4c3,4.7,6,9.6,10.7,12.8c5.5,3.9,13.2,4.7,18.8,0.6c3.3-2.4,8-8.2,10.6-14.3c27.7-3.1,53.1-13,67.8-38.6C487.8,386.6,487.1,361.9,485.5,338.5z M243.1,115.3c9.7-3.8,20.3-5.1,30.7-5.6c8.5-0.4,17.1,0.2,24.9,3.7c7.8,3.5,13.5,10,18.3,17c-18.1,1.7-36.1,2.9-54.4,2.5c-14.4-0.3-28.8-1.4-43.1-2.9C226.7,124,234.3,118.7,243.1,115.3z M150.7,461.9c-6.6-0.8-7.2-9.5-7.3-15.4c0.9,0.1,1.9,0.3,2.8,0.4c5,0.7,9.9,1.2,14.9,1.6C160.2,454.7,157.9,462.8,150.7,461.9z M390.5,451.8c-3,2.2-6.5-0.6-9.4-4.4c4.5,0,9.1,0,13.6-0.2C393.5,448.9,392.1,450.6,390.5,451.8z M472.2,387.3c-8.4,31.4-33.9,43.4-62.7,47.3c-0.1-0.2-0.1-0.4-0.2-0.6c-3.8,0.8-7.7,0.7-11.6-0.4c-0.1,0.7-0.1,1.5,0,2.2c-8.1,0.5-16.4,0.6-24.4,0.3c-1.9-1.5-4.3-1.4-6.2-0.2c-8.7-0.4-17.1-1-24.8-1.6c-15.5-1.1-30.9-2.3-46.4-2.4c-15.5-0.1-31,1-46.4,2.3c-31.2,2.5-62.6,6-93.9,2.8c-23.2-2.3-46.1-8.2-62.7-25.5c-13.8-14.3-20-34.6-22.7-53.8c-3.9-27.3-2-55.6-1.4-83c0.6-31.4,1.4-62.9-0.2-94.3c0.5-0.4,0.9-0.9,1.3-1.6c7.1-12.4,13.1-25,24.6-33.9c9-6.9,19.9-10.5,31-11.9c26.8-3.5,54.6,3.5,81.1,6.5c31.5,3.6,63.3,5.4,95.1,3.4c26.4-1.7,52.5-6.8,79-7.7c24.2-0.8,52.2,2.2,70.4,20c15.9,15.6,16.4,40.9,16,61.6c-0.2,13.2-0.8,26.2-0.1,39.3c0.8,16.1,2.6,32.2,4.3,48.3c1.7,16.1,3.3,32.2,4,48.4C475.8,364.6,475.3,376,472.2,387.3z"/><path fill="#010101" d="M418.1 323.3c-.8-15.9-1.3-31.8-2.1-47.7-.8-15.8-2.1-31.5-4.4-47.2-1.7-11.5-4.5-22.5-10-32.9-9.2-17.3-26.7-26.5-45.7-28.8-14.1-1.8-28.8-.7-43-.2-16.4.5-32.8 1.4-49.2 1.9-31 1.1-62.2-1.3-93 2.2-20.6 2.3-40.8 7.6-60 15.5-.6-.1-1.1-.1-1.7 0-.2.3-.4.6-.6.8-1.7 2.8-3.2 5.8-4.7 8.9-4.4 29.8-3.8 60.2-3.4 90.2.4 25.1-2.7 50.8.8 75.8 3.3 23.5 15.4 43.7 38.1 52.7 21.5 8.5 45.6 6.5 68 4.2 15.6-1.6 31.2-3.2 46.9-3.8 15.4-.6 30.7.5 46.1 1.5 26.5 1.8 54.2 3.6 79.6-6.1 11.2-4.3 21.7-11 28.6-21 6.3-9 9.2-19.7 10.2-30.5C419.8 347 418.8 335.2 418.1 323.3zM394.2 389.2c-9 9-22.9 13.3-35 15.6-13.4 2.5-27.1 2.4-40.7 1.9-14.2-.6-28.3-2.1-42.5-2.7-15.7-.6-31.4.3-47.1 1.6-24.2 2.1-49 6.8-73.2 2.3-11.1-2-21.3-6.6-29.4-14.5-8.3-8.1-12.2-19.8-14-31-4.1-24-.7-49-1-73.3-.4-30.9-1.3-62.1 3.4-92.7 25.9-10.5 53-15.6 81-16.5 15.8-.5 31.5.3 47.3.1 16.4-.2 32.8-1 49.2-1.7 16.4-.7 32.8-1.3 49.2-1.4 10.3 0 20.7 1 30.2 5.1 19.9 8.6 26.5 29.3 29.3 49.1 4.5 31.4 4.7 63.3 6.4 95C408.4 347.8 411.1 372.4 394.2 389.2zM443.4 197.7c-9.6-1-18.1 5.4-19 14.6-2.6.4-4.7 2.3-4 5.5 2.1 9.9 8.2 17 18.8 17.2 9.1.2 16.9-6.9 19.1-15.3C461.1 209.6 453.9 198.7 443.4 197.7zM447.4 218.5c-.9 3.4-5 5.3-8.2 5.6-3 .3-5.3-1.5-6.6-3.9 1.8-.8 3.1-2.6 2.8-5.2-.5-4.2 2.6-6.9 6.8-6.4C447.2 209.1 448.5 214.3 447.4 218.5zM455.9 255c-4.8-9.7-16.8-12.4-24.8-4.8-4.5 4.3-6.1 10.9-5.5 17.2-.2.7-.3 1.5-.1 2.5 1.7 10.8 12.5 15.9 22.5 12.3C459 278.2 460.5 264.4 455.9 255zM445.5 271.1c-1.9 1.5-5.4 1.8-7.5.4-.1-.4-.3-.7-.5-1.1-1.8-3.3-1.2-7.6.3-10.9 1.4-3 4.9-4.1 7.3-1.1C447.5 261.3 448.9 268.4 445.5 271.1zM450.5 286.1c-5.3-1.7-11.7-.1-15.7 3.7-3.8 3.6-4.7 8.8-6.2 13.6-.3 1.1-.4 2.1-.1 2.9-.8 7.5 3.6 13.9 11.5 14.8 7.9.9 15.4-3.1 19.6-9.7C465 302.6 460.2 289.3 450.5 286.1zM449.2 307c-1.7 2.1-5.2 3.4-7.2 3.3-.3 0-2.2-.4-1.6-.2-1.1-.4-.7-.3-1.2-.7.1 0-.2-.6 0-1.9.1-.7.1-1.4 0-2 0 0 0 0 0 0 1.2-3.9 2.6-11.3 8.6-8.6C451.5 298.5 451.3 304.4 449.2 307zM467.1 368.7c-.3-10.2.3-20.5.4-30.7 0-3.2-3.1-5-5.9-5.1-7.7-.1-15.3-.9-23-1-2.5 0-4.1 1.4-4.6 3.2-3-.2-6.5 1.8-6.4 5.7.1 16.4 1.9 32.6 2 49 0 4.7 4.9 5.9 8.2 4.1 9.8 5.6 26 5.1 29.9-6.6C469.4 381.9 467.2 374.2 467.1 368.7zM456 385.3c-4.7 1.9-10.7 1.4-14.4-2-.4-.4-.8-.7-1.3-.9-.4-13.2-1.6-26.4-1.8-39.6.3 0 .6.1.9.1 5.7.1 11.4.5 17 .8-.2 11.8-1 23.7.3 35.5C456.9 381.1 457.9 384.5 456 385.3z"/></svg>