<svg xmlns="http://www.w3.org/2000/svg"  viewBox="0 0 512 512" width="48px" height="48px"><path fill="#EF4823" d="M201.3 349.2c-3-6.4-12.5-9.6-19.4-9-8.4.7-12.2 5.5-10.8 14.2.7 4.6-3.7 6.5-7.2 5.3.5 2.4 1.1 4.3 3.2 6 5.2 4.1 12.6 5 19 4 6.4-1 11.8-3.7 14.6-9.7C202.3 356.5 202.9 352.8 201.3 349.2zM346.4 270.3c-8.3-23-20.9-44.4-40.5-59.4-18.5-14.2-40.8-23.6-63.4-28.9-11.4-2.7-22.9-4.6-34.6-5.3-5.7-.3-11.4-.4-17.1-.1-4.7.2-10.1 0-14.5 1.6-7.6 2.6-7.4 10.3-6.3 17.2 1.1 6.6 3.2 12.9 5.2 19.2h.5c7.8 0 15.5-.2 23.2 1 13.9 2.1 27.7 6.3 40.5 12.4 23.4 11.2 44.3 29.2 61.2 48.7 16.9 19.4 29.8 42.2 35.2 67.5 1.1 5.3.7 10.9.7 16.3 0 4.5-.6 10.1 1.1 14.4 1.3 3.2 7.8 3.2 10.6 3.2 3 .1 6 0 9 0C360.7 342 358.7 304.4 346.4 270.3zM256.9 374.9h25.4c-5.2-36.2-20-77.9-52.9-96.8-6.8-3.9-14.2-7-21.6-9.6-7.5-2.5-16-5-24.1-4.7-2.8.1-6.1.3-8.4 2.2-2 1.6-2.3 4.1-2.5 6.7-.3 4.8.2 9.5.6 14.2 7.1-2.1 15.4-1.1 22.2.8 11.5 3.2 23.7 8.4 33 16.1 13 10.8 22.2 27.8 25.9 44.1 1.9 8.6 2.9 17.1 2.4 25.9C257 374.2 256.9 374.6 256.9 374.9z"/><path fill="#D6E5E5" d="M427.1,269.2c-0.3-27.6,3.7-55.4,0.5-82.9c-2.8-24.4-11.7-50.5-32.8-65.1c-17.8-12.3-40.7-15.9-62-16c-30.7-0.1-61.2,3.6-91.9,4.2c-15.9,0.3-31.8,0-47.6-1.7c-12.8-1.3-25.5-3.4-38.4-4c-11.8-0.6-24.1-0.1-35.1,4.8c-6.1,2.7-11.6,6.7-16.2,11.5c-3.2,3.4-5.8,7.4-8.7,11.1c0.7,4.6,1.4,9.2,2.1,13.9c4.6,31.2,8.4,62.6,9.4,94.2c0.9,29.1-1.6,58.3-0.6,87.4c0.9,26.1,5.7,55.4,24.6,75c15.9,16.5,37.9,23.5,60.1,26.5c12.1,1.6,24.2,2.2,36.4,2.4c16.5,0.2,33,1,49.4,1.8c16.5,0.8,32.9,1.8,49.4,2.3c13.5,0.4,27.4,1.2,40.8-0.4c16.1-1.9,32-7.7,42.8-20.4c9.8-11.5,14.5-26.1,16.9-40.8C432.1,338.7,427.4,303.7,427.1,269.2z M213.3,353.6c-0.8,19.8-19.8,30.2-38.1,27.1c-8.5-1.4-19-6.2-21.2-15.4c-1.9-8-4.8-21,5.3-24.6c1-0.4,1.9-0.4,2.8-0.3C172.4,320.4,214.2,328.9,213.3,353.6z M289,385.9h-39c-2,0-3.5-0.9-4.5-2.2c-0.2-0.2-0.3-0.3-0.4-0.4c-3.4-2.7-2.7-8.5,0.7-9.8c0.1-0.7,0.2-1.4,0.2-1.8c0-1.5,0-3.1,0-4.6c-0.1-3.1-0.3-6.2-0.8-9.2c-1-6.7-2.8-13.3-5.4-19.5c-4.5-10.4-11.5-21.9-21.2-28.3c-8-5.2-17-9.6-26.3-11.9c-7-1.7-16.5-3.6-21.2,3.3c-4,5.8-12.2-1.5-8.3-7.3c0,0,0-0.1,0.1-0.1c-0.8-15.7-5.7-37.2,15-40.9c9-1.6,18.6,0.4,27.2,2.9c8.9,2.6,17.8,5.9,26.1,10.3C271.7,288,289,337.2,294.1,380C294.4,382.8,291.9,385.9,289,385.9z M367.5,384.4c-0.3,2.3-2.7,4.4-5,4.4c-2.4,0-4.9,0.1-7.3,0.1c-7.9,0.1-22.2,0.8-26.7-7.7c-4.8-9.4-2.5-20.5-3.1-30.6c-0.6-11.9-5.9-24.6-11.4-35c-5.9-11.4-13.2-22-21.6-31.7c-17.1-19.7-38.5-38.1-62.7-48.3c-12.2-5.2-26.6-10.2-40-10.2H175c-2.7,2.3-7.4,2.2-8.6-2.2c-3.9-14.2-14.2-35.4-3.5-49c6.2-7.8,16.7-8.3,25.9-8.7c11.2-0.5,22.6,0,33.7,1.5c45.2,6,93.4,26,118.3,66.1C368.5,277.8,373.2,333.2,367.5,384.4z"/><path d="M439.2,302.4c-0.8-20-1.4-39.8-0.6-59.9c1.2-28.6,3-57.7-6.1-85.3c-7.4-22.5-21.1-40.9-42.6-51.5c-19.8-9.8-42.9-11.9-64.7-11.4c-31.6,0.7-63.1,4.1-94.7,4.2c-15.9,0-31.5-1.3-47.3-3c-12.1-1.3-24.2-3-36.4-3c-11.8-0.1-23.9,2-34.5,7.4c-5.9,3-11.1,7-15.8,11.6c-3.6,3.5-6.4,7.8-9.4,11.8c-2,0.5-3.6,2-3.6,4.3c0,0,0,0.1-0.1,0.1c-2.7,2.9-1.4,6.4,1.2,8.1c4.4,28.9,8.2,57.9,10.1,87.1c1.9,29.8,0.4,59.6,0.1,89.4c-0.3,27.7,2.3,55.5,15.9,80.2c11.4,20.8,30.4,33.7,52.5,40.9c23.4,7.5,48.3,7.7,72.6,8.2c33,0.7,65.9,3.4,98.9,4.1c21.6,0.5,43.8,0.7,63.5-9.4c13.9-7.1,24.2-18.8,30.7-32.8C443.2,372.6,440.6,335.5,439.2,302.4z M426.5,372.9c-2.4,14.7-7.1,29.3-16.9,40.8c-10.8,12.6-26.7,18.4-42.8,20.4c-13.5,1.6-27.3,0.8-40.8,0.4c-16.5-0.5-33-1.4-49.4-2.3c-16.5-0.8-32.9-1.6-49.4-1.8c-12.2-0.2-24.3-0.8-36.4-2.4c-22.2-3-44.2-10-60.1-26.5c-18.9-19.6-23.7-49-24.6-75c-1-29.1,1.5-58.2,0.6-87.4c-1-31.6-4.8-63-9.4-94.2c-0.7-4.6-1.4-9.3-2.1-13.9c2.9-3.7,5.4-7.6,8.7-11.1c4.6-4.9,10.1-8.8,16.2-11.5c11-4.9,23.3-5.3,35.1-4.8c12.8,0.6,25.6,2.7,38.4,4c15.8,1.7,31.7,2,47.6,1.7c30.7-0.6,61.2-4.2,91.9-4.2c21.3,0.1,44.1,3.6,62,16c21,14.5,29.9,40.7,32.8,65.1c3.2,27.5-0.8,55.3-0.5,82.9C427.4,303.7,432.1,338.7,426.5,372.9z"/><path d="M162,340.4c-0.8-0.1-1.8-0.1-2.8,0.3c-10.2,3.6-7.2,16.7-5.3,24.6c2.2,9.2,12.8,13.9,21.2,15.4c18.3,3.1,37.3-7.3,38.1-27.1C214.2,328.9,172.4,320.4,162,340.4z M200.7,360.2c-2.8,6-8.2,8.8-14.6,9.7c-6.4,1-13.8,0.1-19-4c-2.1-1.7-2.7-3.6-3.2-6c3.5,1.2,7.9-0.8,7.2-5.3c-1.4-8.7,2.4-13.5,10.8-14.2c7-0.6,16.4,2.6,19.4,9C202.9,352.8,202.3,356.5,200.7,360.2z"/><path d="M294.1,380c-5.1-42.8-22.4-92-62.8-113.4c-8.3-4.4-17.1-7.7-26.1-10.3c-8.6-2.5-18.3-4.5-27.2-2.9c-20.6,3.7-15.7,25.1-15,40.9c0,0,0,0.1-0.1,0.1c-4,5.8,4.3,13.1,8.3,7.3c4.7-6.9,14.2-5,21.2-3.3c9.3,2.3,18.3,6.7,26.3,11.9c9.7,6.3,16.7,17.8,21.2,28.3c2.7,6.2,4.4,12.8,5.4,19.5c0.5,3.1,0.7,6.1,0.8,9.2c0.1,1.5,0,3.1,0,4.6c0,0.5-0.1,1.2-0.2,1.8c-3.4,1.3-4.1,7.1-0.7,9.8c0.1,0.1,0.2,0.2,0.4,0.4c1,1.3,2.5,2.2,4.5,2.2h39C291.9,385.9,294.4,382.8,294.1,380z M256.9,374.9c0-0.3,0-0.7,0-1c0.5-8.8-0.5-17.4-2.4-25.9c-3.7-16.3-12.9-33.3-25.9-44.1c-9.3-7.8-21.5-12.9-33-16.1c-6.8-1.9-15.2-2.9-22.2-0.8c-0.5-4.7-1-9.5-0.6-14.2c0.2-2.6,0.4-5,2.5-6.7c2.3-1.9,5.6-2.1,8.4-2.2c8-0.3,16.5,2.2,24.1,4.7c7.4,2.5,14.8,5.6,21.6,9.6c33,19,47.7,60.7,52.9,96.8H256.9z"/><path d="M340.7,233.1C315.8,193,267.6,173,222.4,167c-11.2-1.5-22.5-2-33.7-1.5c-9.1,0.4-19.7,0.9-25.9,8.7c-10.7,13.5-0.4,34.8,3.5,49c1.2,4.4,5.9,4.4,8.6,2.2h14.8c13.4,0,27.9,5,40,10.2c24.2,10.2,45.6,28.6,62.7,48.3c8.4,9.7,15.7,20.4,21.6,31.7c5.4,10.4,10.8,23.2,11.4,35c0.5,10.1-1.8,21.2,3.1,30.6c4.4,8.5,18.7,7.8,26.7,7.7c2.4,0,4.9-0.1,7.3-0.1c2.3,0,4.7-2.2,5-4.4C373.2,333.2,368.5,277.8,340.7,233.1z M357.1,378c-3,0.1-6,0.1-9,0c-2.8-0.1-9.3-0.1-10.6-3.2c-1.7-4.3-1.2-9.9-1.1-14.4c0.1-5.4,0.4-10.9-0.7-16.3c-5.4-25.3-18.3-48.1-35.2-67.5c-17-19.6-37.8-37.5-61.2-48.7c-12.7-6.1-26.5-10.3-40.5-12.4c-7.7-1.2-15.4-1-23.2-1h-0.5c-2-6.3-4.1-12.6-5.2-19.2c-1.2-6.8-1.4-14.6,6.3-17.2c4.4-1.5,9.9-1.4,14.5-1.6c5.7-0.3,11.4-0.2,17.1,0.1c11.7,0.7,23.2,2.6,34.6,5.3c22.6,5.4,44.8,14.8,63.4,28.9c19.6,15,32.2,36.4,40.5,59.4C358.7,304.4,360.7,342,357.1,378z"/></svg>