<svg xmlns="http://www.w3.org/2000/svg"  viewBox="0 0 48 48" width="48px" height="48px"><polygon fill="#bcbcbc" points="20.167,27.438 28.333,32.612 28.333,35.208 20.063,29.969"/><polygon fill="#bcbcbc" points="20.284,16.956 28.687,9.25 29.219,11.906 20.449,20.661"/><path fill="#bcbcbc" d="M40.396,42.896c-0.43-0.307-1.679-0.05-1.776-0.117c-0.142-0.097-0.155-0.281-0.156-0.44 c-0.002-0.401-0.002-2.334-0.005-2.735l-3.875,0.105c-0.101,0.29,0.132,1.771,0.137,2.075c0.005,0.304-0.067,0.643-0.341,0.822 c-0.402,0.262-1.051,0.063-1.402,0.379c-0.293,0.264-0.181,0.704-0.048,1.058c0.038,0.102,0.083,0.211,0.186,0.266 c0.074,0.04,0.165,0.043,0.252,0.045c2.076,0.048,4.153,0.096,6.229,0.144c0.273,0.006,0.555,0.011,0.806-0.086 c0.25-0.097,0.46-0.325,0.423-0.568C40.797,43.661,40.557,43.011,40.396,42.896z"/><path fill="#bcbcbc" d="M39.437,18.573c-0.407-0.044-0.885,0.085-0.896,0c-0.062-0.495-0.073-2.292-0.042-2.79l-3.813-0.065 c0.045,0.288,0.106,0.938,0.151,1.226c0.057,0.365-0.009,1.434-0.329,1.618c-0.275,0.159-0.71,0.015-1.025,0.047 c-0.334,0.034-0.658,0.414-0.717,0.745c-0.059,0.331,0.195,0.808,0.497,0.954c0.206,0.1,0.444,0.104,0.673,0.107 c1.994,0.021,3.918-0.075,5.913-0.053c0.394,0.004,0.772-0.467,0.775-0.862C40.632,18.618,39.737,18.606,39.437,18.573z"/><path fill="#73a1b2" d="M12.164,7.578C10.057,7.826,7.859,7.856,5.75,7.625c-0.492-0.054-1-0.1-1.473,0.045 C3.444,7.927,2.883,8.743,2.678,9.59c-0.205,0.847-0.046,1.585,0.029,2.453c0.204,2.367,0.304,4.744,0.298,7.12 C2.99,25.39,2.443,31.56,2.564,37.786c0.026,1.311,0.261,2.887,1.462,3.412c0.335,0.146,0.705,0.186,1.068,0.223 c3.856,0.399,7.53,0.843,11.406,0.862c1.146,0.006,2.445-0.093,3.171-0.979c0.585-0.715,0.605-1.721,0.6-2.644 c-0.049-8.673-0.182-17.31,0.158-25.977c0.059-1.502,0.055-3.191-1.001-4.259c-1.003-1.015-2.314-1.131-3.741-1.105 C14.514,7.339,13.329,7.44,12.164,7.578z"/><path fill="#010101" d="M16.57,42.783c-0.024,0-0.049,0-0.072,0c-3.421-0.018-6.631-0.356-10.029-0.715l-1.427-0.15 c-0.376-0.038-0.804-0.082-1.217-0.263c-1.7-0.742-1.746-3.089-1.761-3.86c-0.068-3.48,0.074-6.994,0.212-10.393 c0.109-2.699,0.222-5.489,0.229-8.24c0.006-2.351-0.094-4.73-0.296-7.076c-0.016-0.176-0.034-0.347-0.053-0.514 c-0.076-0.69-0.147-1.343,0.035-2.1c0.272-1.122,1.015-1.995,1.938-2.28c0.592-0.184,1.218-0.115,1.676-0.064 c1.999,0.22,4.178,0.203,6.301-0.046l0,0c1.339-0.158,2.508-0.245,3.573-0.265c1.354-0.02,2.915,0.05,4.104,1.254 c1.179,1.193,1.212,2.942,1.146,4.631c-0.287,7.321-0.235,14.759-0.185,21.951l0.026,4.003c0.007,1.095-0.042,2.145-0.713,2.964 C19.228,42.636,17.837,42.783,16.57,42.783z M5.001,8.073c-0.207,0-0.399,0.02-0.578,0.074C3.845,8.326,3.35,8.938,3.164,9.708 c-0.143,0.586-0.083,1.128-0.014,1.755C3.17,11.638,3.189,11.816,3.205,12c0.205,2.375,0.306,4.785,0.3,7.164 c-0.007,2.771-0.12,5.57-0.229,8.278c-0.137,3.384-0.278,6.883-0.211,10.333c0.032,1.667,0.412,2.637,1.162,2.964 c0.27,0.118,0.599,0.151,0.918,0.185l1.429,0.149c3.373,0.356,6.56,0.693,9.93,0.71c1.102,0.003,2.202-0.089,2.781-0.796 c0.46-0.563,0.492-1.386,0.486-2.325l-0.026-4.001c-0.051-7.204-0.104-14.653,0.185-21.998c0.059-1.47,0.04-2.98-0.856-3.889 c-0.823-0.832-1.892-0.984-3.376-0.957c-1.032,0.019-2.168,0.103-3.474,0.257l0,0c-2.194,0.261-4.452,0.276-6.527,0.048 C5.449,8.095,5.218,8.073,5.001,8.073z M12.164,7.578h0.01H12.164z"/><path fill="#4b7bb2" d="M6.937,10.688c-1.039,0.102-1.657,1.261-1.914,1.869c-0.166,0.393-0.101,0.84-0.04,1.262 c0.503,3.48,0.824,7.238,0.488,10.737c-0.053,0.552-0.043,1.247,0.457,1.489c0.132,0.064,0.28,0.083,0.426,0.101 c3.161,0.388,6.306,0.323,9.488,0.198c0.567-0.022,1.172-0.066,1.626-0.406c0.669-0.502,0.774-1.447,0.816-2.282 c0.187-3.74,0.038-7.508-0.071-11.25c-0.012-0.396-0.036-0.824-0.288-1.13c-0.332-0.402-0.922-0.443-1.443-0.453 C12.96,10.758,10.444,10.344,6.937,10.688z"/><path fill="#010101" d="M11.743,26.941c-1.785,0-3.61-0.073-5.449-0.3c-0.156-0.019-0.371-0.045-0.582-0.146 c-0.887-0.43-0.774-1.602-0.738-1.987C5.256,21.572,5.097,18.1,4.488,13.89c-0.067-0.474-0.145-1.008,0.075-1.527 c0.318-0.757,1.045-2.047,2.325-2.173l0,0c2.376-0.23,4.313-0.122,6.362-0.006c1.019,0.058,2.074,0.117,3.24,0.139 c0.461,0.009,1.316,0.024,1.82,0.635c0.373,0.453,0.391,1.043,0.402,1.434l0.035,1.205c0.1,3.307,0.203,6.727,0.035,10.086 c-0.034,0.688-0.099,1.97-1.016,2.656c-0.562,0.421-1.25,0.48-1.907,0.506C14.523,26.896,13.146,26.941,11.743,26.941z M9.76,11.053c-0.878,0-1.789,0.036-2.773,0.133l0,0c-0.793,0.077-1.313,1.12-1.501,1.564c-0.112,0.266-0.062,0.62-0.007,0.996 c0.62,4.29,0.78,7.842,0.491,10.857c-0.072,0.753,0.08,0.944,0.178,0.991c0.06,0.029,0.175,0.043,0.267,0.055 c3.212,0.394,6.409,0.313,9.409,0.194c0.521-0.02,1.015-0.058,1.346-0.306c0.5-0.375,0.58-1.181,0.617-1.907 c0.165-3.318,0.063-6.718-0.036-10.005l-0.036-1.206c-0.01-0.336-0.03-0.652-0.174-0.826c-0.194-0.235-0.652-0.264-1.067-0.271 c-1.18-0.021-2.248-0.082-3.278-0.141C12.045,11.116,10.932,11.053,9.76,11.053z M6.937,10.688h0.01H6.937z"/><path fill="#010101" d="M8.47,14.446c-0.997,0-1.991-0.014-2.983-0.041C5.21,14.397,4.992,14.167,5,13.892 s0.231-0.466,0.514-0.486c4.051,0.112,8.147-0.006,12.184-0.354c0.268-0.021,0.518,0.18,0.541,0.455s-0.18,0.518-0.455,0.541 C14.698,14.313,11.577,14.446,8.47,14.446z"/><path fill="#010101" d="M5.5,17.308c-0.272,0-0.495-0.218-0.5-0.491c-0.005-0.276,0.215-0.504,0.491-0.509 c1.391-0.024,2.812-0.033,4.241-0.042c2.624-0.015,5.337-0.031,7.908-0.153c0.268-0.037,0.51,0.199,0.522,0.476 c0.014,0.275-0.199,0.51-0.476,0.522c-2.592,0.124-5.315,0.141-7.949,0.155c-1.426,0.009-2.843,0.017-4.229,0.042 C5.506,17.308,5.503,17.308,5.5,17.308z"/><path fill="#010101" d="M5.75,20.297c-0.262,0-0.482-0.203-0.499-0.469c-0.018-0.275,0.191-0.513,0.468-0.53 c2.012-0.128,4.05-0.16,6.021-0.191c1.96-0.031,3.986-0.063,5.975-0.189c0.298-0.017,0.513,0.192,0.53,0.468 s-0.191,0.513-0.468,0.53c-2.012,0.128-4.05,0.16-6.021,0.191c-1.96,0.031-3.986,0.063-5.975,0.189 C5.771,20.297,5.76,20.297,5.75,20.297z"/><path fill="#010101" d="M5.75,23.225c-0.274,0-0.498-0.222-0.5-0.496c-0.002-0.276,0.22-0.502,0.496-0.504 c1.828-0.014,3.938-0.05,6.048-0.086c2.112-0.036,4.226-0.072,6.057-0.086c0.001,0,0.003,0,0.004,0c0.274,0,0.498,0.222,0.5,0.496 c0.002,0.276-0.22,0.502-0.496,0.504c-1.828,0.014-3.938,0.05-6.048,0.086c-2.112,0.036-4.226,0.072-6.057,0.086 C5.753,23.225,5.751,23.225,5.75,23.225z"/><path fill="#71c598" d="M11.76,32.612c-1.218,0.007-2.116,1.229-2.23,2.355c-0.014,0.139,0.24,0.621,0.358,0.703 c0.463,0.324,0.961,0.63,1.528,0.74s1.22-0.016,1.584-0.435c0.181-0.208,0.276-0.469,0.347-0.729 c0.133-0.492,0.184-1.032-0.053-1.489C13.056,33.3,12.774,32.606,11.76,32.612z"/><path fill="#010101" d="M11.811,36.947c-0.162,0-0.326-0.016-0.49-0.047c-0.661-0.128-1.217-0.47-1.719-0.82 c-0.23-0.16-0.606-0.81-0.568-1.166c0.135-1.339,1.215-2.793,2.725-2.803l0,0c0.005,0,0.011,0,0.016,0 c1.243,0,1.682,0.862,1.918,1.327l0.046,0.089c0.262,0.507,0.292,1.111,0.091,1.85c-0.074,0.275-0.193,0.63-0.452,0.927 C13.02,36.715,12.436,36.947,11.811,36.947z M10.029,35.017c0.02,0,0.133,0.218,0.188,0.28c0.368,0.25,0.814,0.529,1.293,0.621 c0.444,0.087,0.897-0.026,1.11-0.271c0.125-0.144,0.192-0.35,0.242-0.532c0.132-0.485,0.127-0.854-0.015-1.129L12.8,33.892 c-0.247-0.486-0.439-0.796-1.036-0.78l0,0c-0.924,0.006-1.644,0.99-1.736,1.905C10.028,35.017,10.028,35.017,10.029,35.017z"/><path fill="#c0e6ed" d="M36.821,3.793c-2.359,0.149-4.304,0.048-6.668,0.009c-0.378-0.006-0.774-0.008-1.11,0.165 c-0.751,0.388-0.843,1.406-0.837,2.251c0.019,2.592,0.039,5.183,0.058,7.775c0.002,0.25,0.007,0.512,0.133,0.728 c0.184,0.315,0.57,0.442,0.927,0.523c1.285,0.292,2.614,0.319,3.931,0.344c3.366,0.065,7.149-0.16,10.515-0.095 c0.411,0.008,0.857,0.005,1.182-0.246c0.431-0.333,0.476-0.954,0.485-1.498c0.045-2.792-0.326-5.296-0.282-8.088 c0.01-0.606-0.013-1.291-0.463-1.698c-0.317-0.286-0.768-0.356-1.193-0.404C41.141,3.293,39.191,3.643,36.821,3.793z"/><path fill="#010101" d="M34.56,16.1c-0.443,0-0.883-0.004-1.313-0.012c-1.324-0.025-2.694-0.052-4.032-0.356 c-0.433-0.099-0.965-0.273-1.248-0.759c-0.196-0.337-0.199-0.707-0.201-0.977l-0.059-7.774c-0.004-0.58-0.015-2.12,1.107-2.699 c0.456-0.234,0.951-0.226,1.348-0.221l1.491,0.031c1.702,0.039,3.309,0.077,5.138-0.039c0.627-0.04,1.225-0.094,1.809-0.146 C40.231,3,41.774,2.86,43.557,3.061c0.49,0.056,1.048,0.146,1.472,0.53c0.602,0.544,0.64,1.357,0.628,2.077 c-0.022,1.377,0.061,2.713,0.14,4.005c0.081,1.312,0.164,2.667,0.142,4.083c-0.008,0.482-0.022,1.379-0.68,1.886 c-0.48,0.372-1.09,0.359-1.498,0.351c-1.67-0.031-3.482,0.009-5.235,0.048C37.21,16.069,35.862,16.1,34.56,16.1z M29.964,4.3 c-0.249,0-0.506,0.016-0.692,0.111c-0.516,0.267-0.57,1.157-0.565,1.803l0.059,7.774c0.001,0.166,0.003,0.373,0.065,0.48 c0.091,0.155,0.389,0.238,0.605,0.288c1.238,0.281,2.556,0.307,3.83,0.331c1.669,0.031,3.483-0.009,5.236-0.048 c1.763-0.039,3.586-0.077,5.278-0.048c0.345,0.004,0.68,0.001,0.866-0.142c0.243-0.188,0.283-0.645,0.291-1.11 c0.022-1.377-0.061-2.714-0.14-4.006c-0.081-1.312-0.164-2.667-0.142-4.082c0.008-0.501-0.008-1.057-0.298-1.319 c-0.205-0.185-0.563-0.239-0.913-0.278c-1.683-0.189-3.175-0.054-4.757,0.089c-0.592,0.054-1.199,0.108-1.836,0.148l0,0 c-1.87,0.118-3.498,0.08-5.224,0.041l-1.483-0.031C30.086,4.301,30.025,4.3,29.964,4.3z M36.821,3.793h0.01H36.821z"/><path fill="#010101" d="M34.54,20.918c-0.202,0-0.404-0.001-0.608-0.003c-0.24-0.002-0.571-0.005-0.885-0.156 c-0.509-0.249-0.868-0.945-0.771-1.491c0.09-0.508,0.559-1.094,1.158-1.155c0.141-0.016,0.307-0.005,0.475,0.011 c0.112,0.011,0.301,0.027,0.356,0.004c0.054-0.11,0.126-0.813,0.08-1.104l-0.136-0.863c-0.043-0.273,0.143-0.529,0.415-0.573 c0.277-0.041,0.528,0.142,0.573,0.415l0.136,0.866c0.034,0.216,0.104,1.737-0.573,2.129c-0.313,0.18-0.659,0.147-0.94,0.123 c-0.099-0.009-0.193-0.021-0.284-0.013c-0.077,0.011-0.249,0.187-0.275,0.335c-0.018,0.101,0.111,0.362,0.225,0.418 c0.109,0.053,0.294,0.055,0.457,0.056c0.994,0.011,1.968-0.008,2.942-0.026c0.985-0.02,1.968-0.037,2.973-0.027 c0.083-0.004,0.268-0.214,0.269-0.365c0.002-0.223-0.042-0.362-0.659-0.418c-0.251-0.024-0.43-0.005-0.571,0.008 c-0.216,0.02-0.782,0.073-0.849-0.45c-0.07-0.558-0.076-2.394-0.045-2.883c0.018-0.274,0.228-0.485,0.53-0.468 c0.275,0.018,0.485,0.255,0.468,0.53c-0.023,0.374-0.021,1.555,0.009,2.257c0.15-0.009,0.316-0.014,0.483,0.004 c1.37,0.124,1.639,0.844,1.634,1.428c-0.003,0.351-0.17,0.723-0.448,0.995c-0.242,0.238-0.551,0.351-0.832,0.362 c-0.993-0.013-1.967,0.008-2.941,0.026C36.118,20.903,35.333,20.918,34.54,20.918z"/><path fill="#010101" d="M20.449,20.943c-0.129,0-0.258-0.05-0.355-0.148c-0.194-0.196-0.192-0.513,0.004-0.707 c2.273-2.253,5.208-5.191,7.74-7.942c0.188-0.201,0.504-0.215,0.707-0.029c0.203,0.188,0.216,0.504,0.029,0.707 c-2.547,2.766-5.491,5.715-7.773,7.976C20.704,20.896,20.576,20.943,20.449,20.943z"/><path fill="#010101" d="M20.625,17.456c-0.133,0-0.265-0.053-0.363-0.156c-0.189-0.2-0.181-0.517,0.02-0.707l7.403-7.014 c0.201-0.189,0.517-0.18,0.707,0.02c0.189,0.2,0.181,0.517-0.02,0.707l-7.403,7.014C20.872,17.41,20.748,17.456,20.625,17.456z"/><path fill="#010101" d="M27.937,35.594c-0.104,0-0.21-0.032-0.3-0.1c-1.116-0.836-2.218-1.484-3.284-2.111 c-1.439-0.847-2.928-1.722-4.402-3.041c-0.206-0.185-0.224-0.501-0.04-0.706c0.188-0.206,0.503-0.222,0.706-0.04 c1.401,1.254,2.782,2.065,4.243,2.926c1.09,0.641,2.217,1.303,3.377,2.172c0.221,0.166,0.266,0.479,0.101,0.7 C28.239,35.524,28.089,35.594,27.937,35.594z"/><path fill="#c0e6ed" d="M40.271,27.277c-2.984-0.031-6.323,0.23-9.307,0.302c-0.517,0.012-1.042,0.028-1.534,0.188 s-0.953,0.489-1.151,0.967c-0.166,0.402-0.13,0.854-0.105,1.288c0.143,2.495-0.183,5-0.03,7.494 c0.024,0.401,0.072,0.828,0.329,1.136c0.296,0.354,0.789,0.459,1.245,0.53c2.535,0.394,5.112,0.406,7.677,0.418 c2.031,0.009,4.069,0.018,6.086-0.222c0.665-0.079,1.41-0.238,1.763-0.807c0.258-0.417,0.231-0.942,0.203-1.432 c-0.135-2.387-0.263-4.791-0.025-7.17c0.048-0.479,0.1-0.982-0.089-1.425c-0.33-0.774-1.074-1.074-1.901-1.228 C42.507,27.142,41.213,27.287,40.271,27.277z"/><path fill="#010101" d="M38.583,40.104c-0.398,0-0.796-0.002-1.189-0.004c-2.547-0.012-5.18-0.023-7.752-0.423 c-0.388-0.061-1.109-0.174-1.552-0.704c-0.356-0.428-0.416-0.961-0.444-1.427c-0.078-1.284-0.032-2.58,0.012-3.833 c0.043-1.205,0.088-2.451,0.019-3.662c-0.03-0.509-0.061-1.02,0.143-1.509c0.235-0.568,0.767-1.024,1.457-1.25 c0.57-0.186,1.157-0.2,1.676-0.213c1.145-0.027,2.34-0.083,3.548-0.139c1.931-0.091,3.931-0.189,5.777-0.163 c0.294,0,0.619-0.01,0.956-0.021c0.789-0.032,1.604-0.06,2.292,0.068c0.756,0.141,1.813,0.452,2.269,1.523 c0.237,0.556,0.18,1.14,0.128,1.655c-0.24,2.412-0.099,4.906,0.026,7.107c0.029,0.521,0.065,1.171-0.278,1.724 c-0.467,0.753-1.383,0.952-2.129,1.04C41.888,40.071,40.22,40.104,38.583,40.104z M39.77,27.774c-1.684,0-3.48,0.084-5.225,0.165 c-1.215,0.056-2.418,0.111-3.569,0.14c-0.472,0.012-0.959,0.023-1.39,0.164c-0.406,0.132-0.722,0.388-0.844,0.682 c-0.115,0.278-0.094,0.633-0.072,1.008c0.076,1.318,0.031,2.588-0.013,3.815c-0.044,1.229-0.089,2.501-0.014,3.737 c0.019,0.308,0.053,0.652,0.215,0.847c0.186,0.223,0.581,0.301,0.938,0.356c2.497,0.388,5.092,0.399,7.601,0.411 c1.984,0.013,4.032,0.021,6.025-0.218c0.523-0.063,1.155-0.185,1.397-0.575c0.178-0.285,0.153-0.72,0.13-1.14 c-0.127-2.237-0.271-4.773-0.024-7.248c0.044-0.449,0.085-0.859-0.052-1.18c-0.209-0.492-0.668-0.771-1.532-0.933 c-0.576-0.107-1.335-0.079-2.071-0.052c-0.355,0.014-0.698,0.024-1.003,0.022l0,0C40.102,27.775,39.937,27.774,39.77,27.774z"/><path fill="#010101" d="M39.79,45c-0.073,0-0.143-0.002-0.207-0.003l-6.228-0.144c-0.123-0.004-0.301-0.01-0.478-0.105 c-0.273-0.146-0.37-0.405-0.417-0.53c-0.101-0.268-0.403-1.08,0.183-1.605c0.309-0.279,0.701-0.313,1.017-0.34 c0.178-0.015,0.361-0.03,0.445-0.085c0.111-0.073,0.115-0.321,0.114-0.396c-0.001-0.09-0.025-0.29-0.054-0.53 c-0.113-0.996-0.146-1.455-0.056-1.718c0.092-0.26,0.376-0.396,0.637-0.309c0.254,0.088,0.392,0.36,0.315,0.615 c-0.029,0.192,0.057,0.938,0.098,1.298c0.032,0.284,0.058,0.521,0.06,0.628c0.009,0.561-0.192,1.004-0.568,1.248 c-0.294,0.192-0.633,0.222-0.906,0.245c-0.166,0.014-0.372,0.031-0.433,0.086c-0.004,0.004-0.078,0.076,0.085,0.512l6.21,0.13 c0.212,0.008,0.45,0.012,0.613-0.053c0.064-0.024,0.106-0.065,0.115-0.082c-0.027-0.068-0.193-0.497-0.276-0.6 c-0.117-0.062-0.796-0.01-1.02,0.009c-0.352,0.026-0.527,0.041-0.705-0.082c-0.368-0.251-0.371-0.686-0.372-0.849l-0.005-2.733 c-0.002-0.276,0.22-0.502,0.496-0.504c0.002,0,0.003,0,0.004,0c0.274,0,0.498,0.222,0.5,0.496l0.005,2.675 c0.675-0.056,1.316-0.075,1.723,0.214c0.361,0.258,0.61,1.125,0.634,1.282c0.068,0.458-0.235,0.913-0.738,1.107 C40.312,44.981,40.03,45,39.79,45z"/><path fill="#010101" d="M28.089,33.014c-0.094,0-0.188-0.025-0.271-0.08l-7.458-4.813c-0.231-0.149-0.299-0.459-0.148-0.691 c0.149-0.231,0.46-0.299,0.691-0.148l7.458,4.813c0.231,0.149,0.299,0.459,0.148,0.691C28.413,32.933,28.253,33.014,28.089,33.014z"/></svg>