<svg xmlns="http://www.w3.org/2000/svg"  viewBox="0 0 48 48" width="48px" height="48px"><path fill="#5b5c5b" d="M30.018,1.019c-0.048-0.095-0.102-0.192-0.184-0.255c-0.176-0.135-0.418-0.074-0.617,0.014 c-1.299,0.575-2.13,2.19-1.899,3.691c0.129,0.84,0.298,1.69-0.038,2.46l1.616,0.575c-0.146-0.078,0.375-0.992,0.486-1.121 C30.599,4.979,30.868,2.711,30.018,1.019z"/><path fill="#5b5c5b" d="M20.969,5.303c-0.082-1.851-1.935-5.01-2.955-4.7c-0.946,0.288-0.21,4.721,0.63,5.568 c0.555,0.559,0.255,0.58,0.5,1.329L20.987,7C20.561,6.396,21.001,6.042,20.969,5.303z"/><path fill="#5b5c5b" d="M23.788,46.418c-2.523-0.011-4.966,0.005-7.487,0.112c-0.343,0.015-0.7,0.032-1.016-0.103 c-0.298-0.127-0.526-0.375-0.738-0.621c-1.941-2.238-3.856-5.551-4.825-8.356c-1.097-0.421-2.09-1.5-2.452-2.624 c-0.361-1.123-0.355-2.332-0.263-3.509c0.38-4.819,2.318-9.635,5.258-13.46c0.583-1.463,1.3-3.044,1.882-4.507 c0.678-1.704,1.406-3.478,2.797-4.665c1.896-1.619,4.854-1.835,7.339-1.942c3.544-0.151,7.586,1.447,9.232,4.606 c0.607,1.165,0.902,2.463,1.192,3.745c0.138,0.611,0.235,1.243,0.373,1.854c3.234,3.35,4.86,7.981,5.589,12.593 c0.212,1.34,0.351,2.729,0.005,4.041c-0.346,1.312-1.284,2.731-2.583,3.099c-0.633,2.975-2.183,6.391-4.276,8.589 c-0.443,0.465-0.94,0.919-1.558,1.087c-0.55,0.149-1.131,0.054-1.696-0.021C28.345,46.04,26.025,46.428,23.788,46.418z"/><path fill="#febf10" d="M17.296,19.214c-2.05,1.347-2.703,2.656-4.098,4.665s-2.295,4.387-2.272,6.809 c0.031,3.258,1.695,6.293,3.629,8.96c0.914,1.261,1.928,2.501,3.279,3.315c1.322,0.796,2.886,1.132,4.435,1.279 c3.421,0.325,7.094-0.301,9.705-2.467c0.857-0.711,1.576-1.565,2.227-2.458c2.418-3.318,3.964-7.499,3.025-11.458 c-0.277-1.169-0.761-2.283-1.29-3.368c-1.124-2.306-2.573-4.622-4.881-5.847c-2.836-1.504-6.758-1.262-9.949-0.76 C19.761,18.097,18.422,18.475,17.296,19.214z"/><path fill="#010101" d="M37.896,28.755c-0.209-1.519-0.771-2.937-1.431-4.312c-0.602-1.256-1.279-2.48-2.134-3.583	c-0.904-1.166-2.019-2.184-3.364-2.816c-1.392-0.654-2.922-0.933-4.45-1.017c-1.598-0.088-3.2,0.045-4.783,0.264	c-1.65,0.228-3.267,0.589-4.691,1.492c-1.04,0.696-1.922,1.523-2.675,2.523c-0.816,1.084-1.625,2.237-2.293,3.418	c-1.451,2.566-2.021,5.502-1.349,8.395c0.667,2.872,2.335,5.496,4.15,7.779c0.896,1.127,1.951,2.161,3.258,2.798	c1.293,0.63,2.71,0.912,4.134,1.047c2.704,0.257,5.538-0.068,7.996-1.274c2.678-1.314,4.598-3.837,5.943-6.436	C37.519,34.498,38.289,31.616,37.896,28.755z M36.157,34.7c-0.932,2.525-2.554,5.168-4.689,6.846	c-2.002,1.573-4.601,2.212-7.108,2.272c-2.632,0.063-5.47-0.344-7.471-2.195c-0.981-0.908-1.776-2.007-2.523-3.109	c-0.779-1.151-1.495-2.362-2.025-3.649c-1.202-2.92-1.19-6.015,0.197-8.872c0.625-1.289,1.483-2.469,2.302-3.64	c0.75-1.072,1.618-1.976,2.708-2.706c2.21-1.401,5.184-1.619,7.743-1.645c2.562-0.026,5.19,0.434,7.129,2.233	c1.843,1.71,3.142,4.226,3.969,6.572C37.307,29.408,37.104,32.136,36.157,34.7z"/><path fill="#010101" d="M22.701,22.085c0.316-0.258,0.632-0.515,0.948-0.773c0.159-0.13,0.315-0.265,0.478-0.389	c0.026-0.02,0.099-0.072,0.146-0.097c0.056-0.031,0.076-0.036,0.112-0.037c0.077-0.003-0.04-0.014,0.033,0.004	c0.015,0.004,0.083,0.029,0.072,0.024c0.017,0.008,0.112,0.071,0.137,0.091c0.116,0.092,0.238,0.234,0.346,0.354	c0.289,0.322,0.578,0.645,0.867,0.967c0.18,0.201,0.523,0.184,0.707,0c0.2-0.2,0.181-0.505,0-0.707	c-0.332-0.371-0.658-0.749-0.999-1.112c-0.306-0.325-0.698-0.62-1.164-0.62c-0.505-0.001-0.875,0.354-1.242,0.653	c-0.383,0.312-0.766,0.625-1.149,0.937c-0.209,0.171-0.177,0.53,0,0.707C22.201,22.292,22.491,22.256,22.701,22.085L22.701,22.085z"/><path fill="#010101" d="M19.994,21.191c-0.207-0.292-0.5-0.509-0.858-0.576c-0.357-0.067-0.713-0.031-1.048,0.11	c-0.672,0.283-1.067,0.931-1.402,1.544c-0.126,0.229-0.064,0.556,0.179,0.684c0.234,0.124,0.55,0.066,0.684-0.179	c0.131-0.239,0.266-0.473,0.422-0.696c0.074-0.105-0.067,0.078,0.015-0.021c0.02-0.024,0.041-0.049,0.062-0.073	c0.046-0.052,0.094-0.103,0.145-0.151c0.023-0.022,0.047-0.043,0.071-0.063c0.014-0.012,0.029-0.025,0.044-0.036	c-0.014,0.011-0.027,0.021-0.041,0.032c0.008-0.033,0.134-0.088,0.164-0.104c0.008-0.004,0.072-0.035,0.072-0.036	c0.002,0.009-0.118,0.042-0.015,0.008c0.057-0.018,0.113-0.036,0.171-0.048c0.018-0.004,0.113-0.024,0.029-0.007	c-0.082,0.017,0.009,0.001,0.03-0.001c0.059-0.003,0.117,0.004,0.175,0.003c0.062-0.001-0.112-0.024-0.024-0.003	c0.03,0.007,0.061,0.013,0.091,0.021c0.02,0.006,0.039,0.013,0.059,0.018c0.098,0.028-0.094-0.054-0.007-0.003	c0.022,0.013,0.044,0.025,0.066,0.037c0.085,0.048-0.015,0.007-0.015-0.016c0-0.006,0.177,0.213,0.067,0.058	c0.151,0.213,0.443,0.335,0.684,0.179C20.026,21.739,20.156,21.419,19.994,21.191L19.994,21.191z"/><path fill="#010101" d="M32.29,22.809c-0.285-0.238-0.555-0.493-0.806-0.767c-0.122-0.134-0.24-0.271-0.353-0.413 c-0.076-0.096-0.194-0.256-0.293-0.401c-0.125-0.182-0.341-0.295-0.565-0.23c-0.672,0.196-1.288,0.57-1.76,1.089 c-0.176,0.193-0.205,0.519,0,0.707c0.192,0.176,0.519,0.207,0.707,0c0.095-0.104,0.195-0.203,0.302-0.295 c0.028-0.024,0.056-0.047,0.085-0.07c0.008-0.006,0.02-0.015,0.029-0.021c0.061-0.043,0.122-0.085,0.186-0.125 c0.12-0.075,0.244-0.14,0.372-0.2c0.011-0.005,0.024-0.01,0.032-0.014c0.004-0.001,0.007-0.003,0.011-0.004 c0.398,0.529,0.838,1.025,1.348,1.451c0.201,0.167,0.513,0.211,0.707,0C32.459,23.331,32.504,22.988,32.29,22.809z"/><path fill="#010101" d="M28.896,25.262c-0.021-0.015-0.029-0.021-0.033-0.023c-0.004-0.004-0.005-0.005-0.018-0.016 c-0.036-0.032-0.072-0.063-0.107-0.096c-0.07-0.066-0.134-0.137-0.196-0.21c-0.013-0.016-0.017-0.019-0.02-0.022 c-0.003-0.005-0.006-0.011-0.018-0.029c-0.026-0.04-0.054-0.079-0.078-0.12c-0.046-0.075-0.086-0.153-0.124-0.232 c-0.014-0.032-0.014-0.029,0.003,0.01c-0.009-0.022-0.018-0.045-0.026-0.067c-0.016-0.044-0.03-0.089-0.045-0.133 c-0.032-0.1-0.068-0.201-0.122-0.292c-0.167-0.278-0.519-0.416-0.829-0.312c-0.15,0.05-0.269,0.132-0.39,0.231 c-0.031,0.025-0.061,0.051-0.091,0.077c-0.014,0.012-0.11,0.088-0.081,0.066c-0.099,0.076-0.304,0.217-0.447,0.314 c-0.357,0.241-0.717,0.477-1.045,0.757c-0.2,0.17-0.188,0.534,0,0.707c0.213,0.195,0.494,0.182,0.707,0 c0.036-0.031,0.073-0.061,0.109-0.091c0.065-0.053-0.007,0.004,0.034-0.026c0.067-0.05,0.136-0.099,0.204-0.148 c0.149-0.104,0.301-0.205,0.452-0.306c0.149-0.1,0.298-0.201,0.443-0.308c0.066-0.048,0.13-0.099,0.194-0.149 c0.06,0.147,0.121,0.293,0.205,0.428c0.214,0.343,0.49,0.62,0.816,0.855c0.213,0.153,0.566,0.044,0.684-0.179 C29.213,25.687,29.124,25.426,28.896,25.262z"/><path fill="#010101" d="M33.746,27.096c-0.141-0.278-0.282-0.556-0.423-0.834c-0.148-0.291-0.274-0.643-0.568-0.819	c-0.401-0.24-0.786,0.003-1.136,0.204c-0.282,0.162-0.565,0.325-0.847,0.487c-0.227,0.13-0.325,0.458-0.179,0.684	c0.148,0.229,0.441,0.319,0.684,0.179c0.236-0.136,0.473-0.272,0.709-0.408c0.099-0.057,0.198-0.114,0.298-0.171	c0.015,0.03,0.031,0.06,0.046,0.09c0.06,0.119,0.121,0.238,0.181,0.357c0.124,0.245,0.248,0.49,0.372,0.735	c0.118,0.234,0.466,0.32,0.684,0.179C33.805,27.626,33.872,27.346,33.746,27.096z"/><path fill="#010101" d="M22.94,24.98c-0.312-0.138-0.625-0.277-0.937-0.415c-0.143-0.063-0.286-0.127-0.429-0.19	c-0.199-0.088-0.401-0.198-0.61-0.258c-0.488-0.14-0.917,0.131-1.112,0.575c-0.177,0.402-0.327,0.818-0.487,1.226	c-0.096,0.244,0.105,0.56,0.349,0.615c0.288,0.065,0.512-0.088,0.615-0.349c0.129-0.327,0.257-0.655,0.387-0.982	c-0.003,0.007,0.029-0.066,0.034-0.08c0.004-0.007,0.006-0.012,0.009-0.018c0.004,0.001,0.004,0,0.001-0.001c0,0,0,0,0,0	c0.036,0.015,0.071,0.032,0.107,0.047c0.523,0.232,1.046,0.463,1.568,0.695c0.239,0.106,0.548,0.078,0.684-0.179	C23.234,25.447,23.196,25.093,22.94,24.98z"/><path fill="#010101" d="M15.242,27.621c0.021-0.039,0.042-0.078,0.066-0.116c0.011-0.017,0.076-0.103,0.014-0.026	c0.038-0.047,0.079-0.091,0.118-0.137c0.116-0.137,0.214-0.276,0.297-0.435c0.034-0.066,0.069-0.131,0.11-0.193	c0.02-0.029,0.018-0.027-0.005,0.004c0.011-0.012,0.022-0.024,0.033-0.035c0.066-0.053-0.013-0.005,0.032-0.021	c0.072-0.027-0.106,0.018,0.026-0.007c0.056-0.01,0.04,0.004-0.001,0c0.012,0.001,0.135,0.002,0.07-0.002	c-0.059-0.004,0.071,0.015,0.072,0.016c0.031,0.008,0.062,0.017,0.093,0.027c-0.003-0.001,0.121,0.045,0.078,0.027	c-0.043-0.018,0.077,0.038,0.075,0.036c0.029,0.015,0.058,0.03,0.086,0.045c0.144,0.079,0.281,0.167,0.429,0.238	c0.367,0.177,0.786,0.296,1.185,0.148c0.245-0.09,0.437-0.343,0.349-0.615c-0.078-0.24-0.352-0.446-0.615-0.349	c0.004-0.001-0.131,0.044-0.077,0.03c0.053-0.013-0.064,0.002-0.079,0.002c-0.123,0,0.058,0.024-0.063-0.011	c-0.033-0.01-0.065-0.019-0.098-0.029c-0.141-0.044,0.062,0.036-0.074-0.029c-0.04-0.019-0.079-0.039-0.119-0.06	c-0.078-0.041-0.153-0.085-0.229-0.129c-0.326-0.19-0.699-0.359-1.085-0.347c-0.448,0.015-0.799,0.277-1.012,0.66	c-0.042,0.075-0.076,0.153-0.121,0.226c-0.006,0.009-0.095,0.132-0.027,0.047c-0.021,0.026-0.044,0.051-0.066,0.077	c-0.122,0.142-0.24,0.285-0.328,0.451c-0.122,0.231-0.066,0.554,0.179,0.684C14.789,27.923,15.112,27.868,15.242,27.621	L15.242,27.621z"/><path fill="#010101" d="M27.761,7.062c0.226-0.557,0.245-1.161,0.179-1.753c-0.059-0.522-0.186-1.035-0.154-1.563	c0.053-0.862,0.5-1.761,1.21-2.268c0.133-0.095,0.385-0.297,0.559-0.288c0.072,0.004-0.016-0.011-0.019-0.013	c0.03,0.019,0.084,0.161,0.094,0.183c0.052,0.109,0.095,0.221,0.135,0.335c0.159,0.459,0.241,0.935,0.248,1.421	c0.013,0.949-0.25,1.894-0.795,2.675C29,6.098,28.779,6.369,28.61,6.71c-0.166,0.336-0.406,0.831-0.068,1.147	c0.469,0.44,1.178-0.266,0.707-0.707c-0.228-0.214,0.191,0.274,0.114,0.344c0.013-0.012,0.02-0.078,0.03-0.098	c0.028-0.06,0.051-0.121,0.08-0.181c0.081-0.164,0.171-0.323,0.268-0.477c0.01-0.016,0.065-0.098,0.015-0.028	c-0.066,0.092,0.056-0.065,0.071-0.084C29.915,6.518,30,6.407,30.079,6.294c0.158-0.225,0.294-0.466,0.408-0.716	c0.47-1.032,0.621-2.168,0.451-3.288c-0.082-0.538-0.245-1.094-0.514-1.57c-0.345-0.613-0.967-0.613-1.542-0.335	c-0.958,0.462-1.643,1.421-1.937,2.425C26.774,3.396,26.747,4,26.835,4.602c0.109,0.742,0.253,1.476-0.038,2.194	c-0.102,0.252,0.111,0.547,0.349,0.615C27.431,7.493,27.661,7.311,27.761,7.062L27.761,7.062z"/><path fill="#010101" d="M19.626,7.367c-0.074-0.241-0.088-0.466-0.13-0.711c-0.045-0.257-0.169-0.462-0.335-0.66	c-0.068-0.081-0.146-0.153-0.214-0.234c0.07,0.084-0.051-0.08-0.072-0.115c-0.103-0.174-0.168-0.324-0.232-0.498	c-0.332-0.894-0.518-1.868-0.564-2.82c-0.02-0.417-0.012-0.789,0.077-1.14c0.009-0.035,0.021-0.071,0.035-0.105	c-0.039,0.094-0.008,0.029-0.001,0.009c0.007-0.017,0.069-0.144,0.001-0.017c0.006-0.01,0.038-0.043,0.045-0.046	c-0.028,0.01-0.108,0.065-0.105,0.052c0.005-0.023,0.13,0.027,0.058,0c-0.088-0.034,0.144,0.063,0.033,0.009	c0.815,0.395,1.365,1.518,1.726,2.327c0.243,0.543,0.455,1.148,0.51,1.744c0.031,0.337-0.059,0.622-0.119,0.948	c-0.077,0.416-0.016,0.785,0.215,1.143c0.348,0.539,1.214,0.038,0.863-0.505c-0.182-0.282-0.079-0.492-0.016-0.797	c0.08-0.389,0.072-0.752,0.013-1.142c-0.096-0.629-0.312-1.232-0.567-1.813c-0.261-0.595-0.579-1.169-0.97-1.689	c-0.312-0.414-0.675-0.848-1.152-1.079c-0.398-0.193-0.888-0.215-1.221,0.118c-0.309,0.31-0.381,0.787-0.418,1.202	c-0.096,1.061,0.103,2.193,0.383,3.214c0.137,0.501,0.304,1.033,0.59,1.47c0.117,0.179,0.385,0.425,0.44,0.547	c0.044,0.097,0.017,0.073,0.034,0.228c0.024,0.215,0.064,0.42,0.127,0.626C18.851,8.246,19.816,7.985,19.626,7.367L19.626,7.367z"/><path fill="#010101" d="M23.788,45.918c-2.172-0.009-4.344,0.001-6.514,0.075c-0.492,0.017-1.038,0.109-1.524,0.031	c-0.526-0.085-0.837-0.548-1.158-0.938c-0.604-0.732-1.153-1.509-1.665-2.308c-1.011-1.576-1.903-3.253-2.559-5.009	c-0.135-0.361-0.172-0.613-0.512-0.801c-0.45-0.249-0.849-0.473-1.212-0.848c-0.723-0.745-1.047-1.679-1.149-2.697	c-0.194-1.944,0.171-4.003,0.641-5.885c0.48-1.919,1.184-3.777,2.092-5.534c0.445-0.861,0.938-1.698,1.475-2.505	c0.237-0.356,0.483-0.706,0.738-1.05c0.302-0.407,0.458-0.838,0.653-1.307c0.766-1.842,1.467-3.75,2.346-5.541	c0.81-1.652,1.945-2.963,3.714-3.593c1.636-0.583,3.409-0.704,5.131-0.766c3.085-0.111,6.609,1.035,8.404,3.696	c1.097,1.625,1.42,3.678,1.79,5.565c0.097,0.495,0.19,0.727,0.53,1.097c0.339,0.37,0.663,0.756,0.965,1.157	c0.552,0.734,1.044,1.514,1.481,2.322c0.88,1.627,1.526,3.368,2.007,5.152c0.499,1.855,0.968,3.862,0.921,5.792	c-0.023,0.947-0.235,1.869-0.72,2.688c-0.206,0.347-0.453,0.67-0.754,0.94c-0.328,0.294-0.721,0.369-1.069,0.597	c-0.299,0.196-0.3,0.627-0.38,0.943c-0.111,0.442-0.238,0.88-0.38,1.313c-0.291,0.891-0.641,1.761-1.055,2.601	c-0.758,1.54-1.724,3.16-3.051,4.281c-0.882,0.745-1.818,0.495-2.872,0.396c-1.049-0.099-2.105-0.059-3.155-0.002	C25.894,45.84,24.843,45.916,23.788,45.918c-0.643,0.001-0.645,1.001,0,1c1.951-0.003,3.9-0.281,5.851-0.168	c0.9,0.052,1.86,0.336,2.752,0.089c0.74-0.205,1.329-0.736,1.842-1.283c2.228-2.378,3.652-5.583,4.341-8.741	c-0.116,0.116-0.233,0.233-0.349,0.349c2.579-0.826,3.322-3.877,3.118-6.27c-0.233-2.737-0.929-5.523-1.967-8.063	c-0.508-1.242-1.108-2.445-1.838-3.573c-0.356-0.549-0.743-1.079-1.155-1.588c-0.214-0.264-0.462-0.506-0.667-0.775	c-0.232-0.305-0.267-0.628-0.339-1.005c-0.51-2.657-1.179-5.33-3.341-7.136c-1.782-1.488-4.062-2.292-6.36-2.482	c-1.209-0.1-2.451-0.004-3.655,0.126c-1.269,0.136-2.535,0.367-3.712,0.878c-2.477,1.076-3.613,3.379-4.568,5.759	c-0.573,1.427-1.148,2.869-1.785,4.269c-0.306,0.672-0.828,1.252-1.233,1.87c-0.393,0.601-0.761,1.218-1.104,1.848	c-1.52,2.796-2.554,5.864-2.972,9.021c-0.212,1.6-0.379,3.356,0.144,4.916c0.453,1.354,1.492,2.427,2.801,2.973	c-0.116-0.116-0.233-0.233-0.349-0.349c1.041,2.962,2.647,5.788,4.644,8.21c0.46,0.558,0.914,1.094,1.664,1.214	c0.823,0.133,1.74-0.018,2.572-0.04c1.889-0.05,3.779-0.057,5.669-0.049C24.432,46.92,24.432,45.92,23.788,45.918z"/><path fill="#010101" d="M22.672,12.952c0.419,0.231,0.872,0.385,1.352,0.405c0.457,0.018,0.89-0.108,1.303-0.291	c0.24-0.106,0.314-0.475,0.179-0.684c-0.16-0.248-0.427-0.293-0.684-0.179c-0.051,0.022-0.045,0.02,0.018-0.007	c-0.022,0.009-0.045,0.018-0.068,0.027c-0.039,0.015-0.078,0.029-0.118,0.041c-0.083,0.027-0.168,0.05-0.253,0.068	c-0.034,0.007-0.068,0.013-0.101,0.019c-0.056,0.008-0.045,0.007,0.031-0.004c-0.023,0.002-0.045,0.005-0.068,0.006	c-0.079,0.006-0.159,0.008-0.239,0.004c-0.04-0.002-0.08-0.005-0.12-0.008c-0.133-0.013,0.08,0.019-0.023-0.004	c-0.082-0.018-0.164-0.034-0.245-0.058c-0.084-0.025-0.17-0.052-0.25-0.088c0.119,0.054-0.041-0.022-0.062-0.032	c-0.05-0.025-0.099-0.051-0.147-0.078c-0.229-0.127-0.556-0.063-0.684,0.179C22.369,12.503,22.428,12.817,22.672,12.952	L22.672,12.952z"/><path fill="#d6e5e5" d="M28.386,10.288C29.438,9.93,30.891,9.793,31,11.5s-2.011,1.772-2.761,1.005	C27.489,11.739,27.946,10.438,28.386,10.288z"/><path fill="#d6e5e5" d="M17.853,10.179c0.593-0.342,2.329,0.071,2.143,1.295s-1.516,2.019-2.457,1.191	S17.005,10.667,17.853,10.179z"/><path fill="#010101" d="M19.392,11.307c-0.006-0.058-0.012-0.117-0.025-0.174c-0.004-0.017-0.009-0.033-0.014-0.049	c-0.03-0.083-0.064-0.156-0.129-0.221c-0.073-0.073-0.136-0.097-0.231-0.133c-0.042-0.016-0.085-0.031-0.129-0.043	c-0.04-0.011-0.08-0.02-0.121-0.026c-0.083-0.012-0.168-0.028-0.252-0.021c-0.042,0.004-0.075,0.012-0.11,0.018	c-0.007,0-0.013-0.002-0.02-0.002c-0.135,0.013-0.205,0.029-0.326,0.089c-0.118,0.059-0.207,0.156-0.28,0.263	c-0.049,0.073-0.085,0.16-0.1,0.247c-0.011,0.063-0.023,0.132-0.023,0.198c0,0.069,0.013,0.14,0.024,0.206	c0.015,0.09,0.055,0.18,0.098,0.259c0.042,0.079,0.1,0.155,0.168,0.213c0.101,0.085,0.211,0.16,0.343,0.188	c0.144,0.031,0.285,0.034,0.428-0.006c0.237-0.066,0.44-0.235,0.563-0.446c0.036-0.062,0.062-0.13,0.087-0.196	c0.012-0.032,0.022-0.064,0.027-0.098c0.012-0.07,0.025-0.144,0.025-0.217C19.395,11.34,19.393,11.323,19.392,11.307z"/><path fill="#010101" d="M30.289,11.277c-0.034-0.12-0.094-0.219-0.177-0.31c-0.053-0.059-0.121-0.11-0.192-0.144	c-0.12-0.058-0.205-0.077-0.336-0.092c-0.005,0-0.009,0.001-0.014,0.001c-0.008-0.004-0.016-0.007-0.024-0.01	c-0.075-0.02-0.15-0.02-0.225,0c-0.041,0.008-0.077,0.024-0.115,0.041c-0.038,0.016-0.074,0.03-0.108,0.053	c-0.07,0.047-0.121,0.099-0.17,0.156c-0.108,0.101-0.2,0.221-0.226,0.364c-0.018,0.057-0.02,0.113-0.008,0.169	c0.002,0.042,0.02,0.079,0.037,0.116c0.006,0.052,0.011,0.106,0.025,0.156c0.022,0.076,0.054,0.153,0.101,0.218	c0.069,0.096,0.141,0.175,0.245,0.234c0.11,0.063,0.225,0.091,0.351,0.098c0.216,0.011,0.415-0.091,0.574-0.227	c0.021-0.018,0.041-0.038,0.059-0.059c0.04-0.047,0.08-0.097,0.112-0.15c0.045-0.075,0.081-0.159,0.097-0.245	C30.319,11.519,30.324,11.401,30.289,11.277z"/><path fill="#010101" d="M31.944,14.384c2.915-1.305,6.119-1.82,9.262-2.235c0.629-0.083,0.637-1.084,0-1	c-3.334,0.439-6.677,0.987-9.767,2.371C30.853,13.783,31.361,14.645,31.944,14.384L31.944,14.384z"/><path fill="#010101" d="M40.446,14.429c-0.089-0.009-0.177-0.018-0.266-0.027c-0.011-0.001-0.018,0.003-0.028,0.003	c-2.595-0.23-5.198-0.152-7.731,0.513c-0.622,0.163-0.358,1.128,0.266,0.964c2.545-0.668,5.154-0.707,7.76-0.453	C41.087,15.492,41.081,14.494,40.446,14.429z"/><path fill="#010101" d="M33.873,17.833c0.248-0.125,0.558-0.086,0.826-0.086c0.303,0,0.605,0,0.908,0.001	c0.631,0,1.261,0.001,1.892,0.001c1.261,0.001,2.523,0.002,3.784,0.002c0.643,0,0.645-1,0-1c-1.362-0.001-2.725-0.002-4.087-0.002	c-0.656,0-1.312-0.001-1.968-0.001c-0.629,0-1.282-0.07-1.86,0.222C32.793,17.26,33.299,18.122,33.873,17.833L33.873,17.833z"/><path fill="#010101" d="M15.777,13.38c-1.425-0.393-2.85-0.787-4.275-1.18c-1.348-0.372-2.683-0.722-4.09-0.524	C7.142,11.714,7,12.054,7.062,12.291c0.076,0.288,0.349,0.387,0.615,0.349c1.309-0.185,2.624,0.266,3.869,0.61	c1.321,0.365,2.643,0.729,3.964,1.094C16.132,14.515,16.397,13.551,15.777,13.38L15.777,13.38z"/><path fill="#010101" d="M15.589,15.011c-2.593-0.502-5.249-0.828-7.893-0.788c-0.643,0.01-0.645,1.01,0,1	c2.557-0.039,5.12,0.266,7.627,0.752C15.952,16.097,16.221,15.133,15.589,15.011L15.589,15.011z"/><path fill="#010101" d="M14.595,16.604c-1.451,0.115-2.906,0.21-4.355,0.344c-0.633,0.059-1.27,0.137-1.885,0.297	c-0.293,0.076-0.577,0.174-0.856,0.291c-0.159,0.067-0.317,0.138-0.469,0.219c-0.044,0.023-0.086,0.049-0.129,0.074	c-0.052-0.019-0.106-0.029-0.163-0.025c-0.901,0.054-0.69,1.366,0.183,1.135c0.379-0.101,0.713-0.393,1.084-0.536	c0.384-0.148,0.787-0.246,1.19-0.32c0.81-0.148,1.638-0.183,2.457-0.248c0.981-0.077,1.963-0.155,2.944-0.232	C15.232,17.553,15.237,16.553,14.595,16.604z"/></svg>