<svg xmlns="http://www.w3.org/2000/svg"  viewBox="0 0 48 48" width="48px" height="48px"><polygon fill="#febf10" points="32.749,40.329 18.504,40.359 18.25,36.531 32.585,36.751"/><polygon fill="#febf10" points="40.281,40.359 35.931,40.074 35.665,37.14 40.489,37.309"/><path fill="#38b47b" d="M44.986,14.239c-0.141-0.764-0.334-1.535-0.745-2.195c-0.822-1.32-2.407-2-3.954-2.152 c-1.548-0.152-3.099,0.143-4.639,0.357c-1.283,0.178-2.577,0.301-3.872,0.274c-1.725-0.036-3.436-0.338-5.161-0.396 c-1.257-0.042-2.514,0.045-3.769,0.116c-4.61,0.261-12.232,0.304-16.845,0.128L5.866,35.738c0.595,0.466,1.408,0.506,2.163,0.526 c7.022,0.186,17.044,0.372,24.066,0.557c1.34,0.035,2.681,0.071,4.016,0.198c2.046,0.195,4.12,0.603,6.136,0.206 c0.545-0.107,1.095-0.282,1.515-0.646c1.001-0.867,0.917-2.408,0.847-3.731C44.283,26.636,46.117,20.356,44.986,14.239z"/><path fill="#73a1b2" d="M40.5,20.5c-0.674-1.612-1.482-2.187-2.566-3.184c-1.471-1.353-3.487-2.176-5.476-1.973 c-1.083,0.11-2.124,0.515-3.053,1.082c-1.611,0.983-2.922,2.495-3.53,4.282c-0.608,1.787-0.471,3.843,0.493,5.466 c1.324,2.228,3.935,3.353,6.466,3.912c0.699,0.154,1.416,0.277,2.129,0.212c1.059-0.097,2.039-0.601,2.923-1.191 c1.499-1,2.862-2.353,3.376-4.08C41.776,23.299,41.195,22.162,40.5,20.5z"/><path d="M41.112,20.665l-0.151-0.358c-0.629-1.504-1.395-2.192-2.281-2.989l-0.407-0.369c-1.654-1.522-3.85-2.316-5.865-2.103 c-1.094,0.111-2.191,0.499-3.263,1.152c-0.14,0.085-0.272,0.18-0.406,0.271c-0.131,0.026-0.251,0.1-0.327,0.222 c-0.002,0.004-0.003,0.008-0.006,0.012c-1.413,1.058-2.468,2.466-3.004,4.043c-0.674,1.982-0.473,4.182,0.537,5.883 c1.2,2.021,3.484,3.414,6.788,4.144c0.58,0.128,1.196,0.242,1.831,0.242c0.149,0,0.3-0.007,0.451-0.021 c0.985-0.09,1.988-0.494,3.155-1.272c1.89-1.261,3.093-2.726,3.577-4.354C42.268,23.396,41.758,22.191,41.112,20.665z M38.012,18.062c0.862,0.775,1.484,1.335,2.027,2.632l0.152,0.361c0.604,1.429,1.002,2.38,0.603,3.778 c-0.408-0.436-0.867-0.781-0.875-0.787c-1.4-1.005-3.12-1.561-4.844-1.563c-0.263,0.02-0.635,0.034-1.026,0.106 c-0.02-0.016-0.039-0.033-0.062-0.046c0.064-1.055,0.329-2.034,0.792-2.84c0.556-0.966,1.418-1.714,2.365-2.052 c0.091-0.032,0.159-0.094,0.215-0.164c0.078,0.066,0.159,0.128,0.235,0.198L38.012,18.062z M32.509,15.84 c0.181-0.018,0.362-0.027,0.545-0.027c1.165,0,2.372,0.37,3.446,1.041c-1.052,0.459-1.967,1.271-2.588,2.351 c-0.516,0.898-0.818,1.969-0.909,3.117c-0.877-0.198-1.706-0.505-2.297-1.107c-0.369-0.376-0.643-0.867-0.907-1.343 c-0.27-0.482-0.549-0.981-0.678-1.505c-0.111-0.447-0.079-0.87,0.07-1.198c0.154-0.109,0.31-0.217,0.474-0.316 C30.607,16.276,31.564,15.937,32.509,15.84z M26.349,20.868c0.346-1.017,0.938-1.957,1.724-2.756 c0.016,0.162,0.037,0.326,0.078,0.493c0.161,0.654,0.487,1.238,0.775,1.753c0.282,0.508,0.603,1.084,1.067,1.557 c0.743,0.757,1.716,1.133,2.725,1.367c-1.373,1.791-3.8,2.713-6.015,2.198c-0.045-0.011-0.09-0.006-0.134-0.004 C25.915,24.094,25.824,22.41,26.349,20.868z M27.264,26.584c0.229,0.024,0.458,0.038,0.687,0.038c2.155,0,4.291-1.044,5.595-2.768 c0.54,0.796,0.784,1.808,0.609,2.75c-0.198,1.069-0.916,2.056-1.874,2.574c-0.087,0.047-0.146,0.12-0.191,0.201 C29.902,28.779,28.281,27.844,27.264,26.584z M37.609,28.689c-1.023,0.682-1.878,1.034-2.692,1.108 c-0.523,0.049-1.061-0.02-1.581-0.121c0.929-0.702,1.589-1.739,1.801-2.891c0.208-1.121-0.018-2.291-0.597-3.263 c0.167-0.018,0.331-0.037,0.533-0.04c1.517,0.003,3.03,0.491,4.262,1.376c0.355,0.254,0.873,0.773,1.024,1.029 C39.805,26.898,38.885,27.838,37.609,28.689z"/><path fill="#373837" d="M13.702,14.608c-0.679,0.018-2.592-0.024-3.911-0.112C9.7,14.489,9.6,14.486,9.527,14.541 c-0.085,0.065-0.101,0.185-0.108,0.292c-0.081,1.251,0.114,2.502,0.308,3.741c1.428,0.262,2.856,0.525,4.285,0.787 c0.061,0.011,0.131,0.021,0.18-0.017c0.05-0.039,0.059-0.11,0.063-0.173c0.091-1.427,0.078-2.861-0.04-4.287 c-0.007-0.086-0.019-0.181-0.083-0.239C14.067,14.587,13.788,14.605,13.702,14.608z"/><path d="M14.095,19.87c-0.08,0-0.144-0.012-0.178-0.019l-4.28-0.785c-0.209-0.039-0.371-0.205-0.404-0.415 C9.037,17.404,8.835,16.115,8.92,14.8c0.008-0.123,0.029-0.45,0.308-0.659c0.218-0.168,0.469-0.154,0.596-0.145 c1.331,0.09,3.234,0.13,3.865,0.111c0.001,0,0.002,0,0.002,0l0.012,0.5l0.021-0.501c0.289-0.011,0.549-0.006,0.74,0.165 c0.22,0.193,0.24,0.46,0.249,0.573c0.119,1.447,0.133,2.914,0.04,4.357c-0.006,0.087-0.022,0.357-0.257,0.538 C14.355,19.845,14.209,19.87,14.095,19.87z M10.166,18.146l3.607,0.662c0.065-1.236,0.051-2.475-0.043-3.702 c-0.008,0.001-0.014,0.001-0.015,0.001c-0.702,0.017-2.514-0.023-3.803-0.104C9.865,16.073,10.008,17.124,10.166,18.146z"/><path fill="#373837" d="M21.056,14.608c-0.679,0.018-2.592-0.024-3.911-0.112c-0.091-0.006-0.191-0.01-0.264,0.045 c-0.085,0.065-0.101,0.185-0.108,0.292c-0.081,1.251-0.213,3.413-0.019,4.652c1.428,0.262,3.183-0.386,4.611-0.124 c0.061,0.011,0.131,0.021,0.18-0.017c0.05-0.039,0.059-0.11,0.063-0.173c0.091-1.427,0.078-2.861-0.04-4.287 c-0.007-0.086-0.019-0.181-0.083-0.239C21.421,14.587,21.143,14.605,21.056,14.608z"/><path d="M17.528,20.048c-0.293,0-0.583-0.02-0.865-0.071c-0.208-0.039-0.37-0.205-0.403-0.415 c-0.208-1.325-0.063-3.561,0.015-4.762c0.008-0.122,0.029-0.448,0.305-0.657c0.224-0.17,0.475-0.155,0.598-0.146 c1.332,0.09,3.235,0.13,3.865,0.111c0.001,0,0.002,0,0.002,0l0.012,0.5l0.022-0.501c0.296-0.009,0.55-0.005,0.74,0.165 c0.215,0.192,0.239,0.455,0.249,0.567c0.119,1.453,0.133,2.92,0.04,4.363c-0.006,0.086-0.021,0.354-0.253,0.535 c-0.241,0.179-0.499,0.132-0.583,0.114c-0.637-0.116-1.373-0.027-2.149,0.067C18.595,19.982,18.056,20.048,17.528,20.048z M17.202,19.037c0.552,0.041,1.16-0.033,1.799-0.111c0.708-0.085,1.433-0.171,2.127-0.104c0.065-1.239,0.051-2.483-0.043-3.716 c-0.008,0.001-0.015,0.001-0.016,0.001c-0.702,0.02-2.515-0.022-3.805-0.104C17.195,16.066,17.091,17.853,17.202,19.037z"/><path fill="#373837" d="M9.69,22.577c2.465,0.104,4.908,0.11,7.373,0.214c-0.322,1.063-0.422,2.192-0.291,3.295 c-2.001-0.096-4.002-0.192-6.003-0.288c-0.428-0.021-0.895-0.098-1.208,0.195C9.489,24.91,9.525,23.648,9.69,22.577z"/><path d="M16.772,26.586c-0.008,0-0.016,0-0.024-0.001l-6.184-0.298c-0.281-0.021-0.549-0.037-0.662,0.07 c-0.14,0.131-0.345,0.171-0.525,0.1c-0.18-0.07-0.303-0.239-0.315-0.432c-0.077-1.18-0.028-2.465,0.135-3.525 c0.039-0.252,0.22-0.434,0.516-0.424c1.229,0.053,2.452,0.08,3.677,0.107c1.229,0.027,2.46,0.056,3.696,0.107 c0.154,0.007,0.297,0.085,0.387,0.211c0.089,0.126,0.115,0.286,0.07,0.435c-0.301,0.991-0.396,2.061-0.273,3.091 c0.018,0.146-0.03,0.292-0.131,0.399C17.043,26.528,16.911,26.586,16.772,26.586z M10.27,25.273c0.127,0,0.249,0.008,0.36,0.016 l0.163,0.01l5.435,0.261c-0.037-0.768,0.028-1.544,0.195-2.293c-1.021-0.037-2.039-0.061-3.057-0.083 c-1.079-0.024-2.158-0.049-3.241-0.09c-0.079,0.687-0.112,1.446-0.096,2.19C10.11,25.276,10.191,25.273,10.27,25.273z"/><path d="M15.813,30.173c-0.004,0-0.008,0-0.012,0c-0.556-0.013-1.81-0.026-3.075-0.039c-1.313-0.014-2.637-0.027-3.213-0.041 c-0.276-0.007-0.495-0.236-0.488-0.512s0.249-0.509,0.512-0.488c0.574,0.014,1.893,0.027,3.199,0.041 c1.271,0.013,2.53,0.026,3.089,0.039c0.276,0.007,0.494,0.235,0.488,0.512C16.307,29.957,16.084,30.173,15.813,30.173z"/><path d="M22.836,30.142c-0.013,0-0.024,0-0.036-0.001c-0.964-0.067-1.946-0.084-2.918-0.047c-0.176,0.003-0.355-0.088-0.448-0.245 c-0.094-0.157-0.094-0.353,0-0.511c0.154-0.261,0.472-0.395,0.763-0.323c0.057,0.013,0.109,0.035,0.155,0.065 c0.842-0.019,1.687,0.005,2.519,0.063c0.275,0.02,0.483,0.259,0.464,0.534C23.315,29.94,23.096,30.142,22.836,30.142z"/><path d="M19.06,33.68L19.06,33.68c-2.058-0.005-4.136-0.083-6.176-0.23c-0.275-0.021-0.482-0.26-0.463-0.535 c0.021-0.275,0.262-0.48,0.535-0.463c1.907,0.139,3.847,0.215,5.771,0.228c0.042-0.01,0.081-0.016,0.132-0.011l0.228,0.013 c0.271,0.014,0.48,0.241,0.474,0.513C19.552,33.464,19.33,33.68,19.06,33.68z"/><path fill="#bcbcbc" d="M6.037,16.246c-0.525-0.021-1.715,0.013-2.234,0.095c-0.084,0.013-0.17,0.029-0.238,0.08 c-0.165,0.123-0.138,0.373-0.097,0.575c0.35,1.72,0.503,3.481,0.455,5.236c0.546,0.055,1.755,0.105,2.301,0.159L6.037,16.246z"/><path fill="#bcbcbc" d="M4.013,26.074C3.825,26.1,3.604,26.153,3.538,26.33c-0.029,0.077-0.02,0.163-0.012,0.245 c0.177,1.859-0.33,3.772,0.127,5.582c0.636,0.077,1.279,0.098,1.92,0.064c0.06,0.03,0.119,0.059,0.179,0.089l0.414-6.444 C5.52,25.918,4.654,25.987,4.013,26.074z"/><path d="M45.478,14.148c-0.138-0.748-0.343-1.614-0.812-2.368c-0.827-1.327-2.405-2.197-4.33-2.386 C38.965,9.263,37.6,9.46,36.28,9.653l-0.701,0.102c-1.491,0.207-2.694,0.299-3.792,0.269c-0.881-0.019-1.782-0.11-2.654-0.199 c-0.816-0.083-1.659-0.168-2.501-0.197c-1.149-0.037-2.298,0.029-3.41,0.094l-0.403,0.023c-4.336,0.243-11.542,0.305-16.346,0.142 c0.01-0.265,0.011-0.531,0.024-0.795C6.52,8.627,6.567,7.658,5.832,7.18C5.469,6.942,5.054,6.935,4.75,6.928L2.451,6.882 c-0.004,0-0.007,0-0.01,0c-0.271,0-0.495,0.218-0.5,0.49c-0.005,0.276,0.215,0.505,0.49,0.51l2.298,0.046 c0.192,0.004,0.432,0.009,0.557,0.09c0.225,0.146,0.231,0.625,0.212,1.024c-0.112,2.236-0.091,4.492-0.031,6.727 c-0.025-0.005-0.047-0.017-0.073-0.018c-0.554-0.021-1.116,0.009-1.673,0.097c-0.107,0.018-0.287,0.047-0.456,0.173 c-0.439,0.327-0.325,0.89-0.288,1.075c0.343,1.68,0.492,3.402,0.445,5.122c-0.007,0.262,0.189,0.485,0.45,0.511l1.638,0.164 c0.017,0.002,0.034,0.003,0.051,0.003c0.046,0,0.089-0.013,0.132-0.025c0.021,0.835,0.041,1.671,0.045,2.509 c-0.031,0.007-0.062-0.002-0.093,0.01c-0.567,0.05-1.135,0.112-1.7,0.189c-0.173,0.023-0.698,0.095-0.875,0.573 C3,26.338,3.017,26.507,3.027,26.623c0.07,0.735,0.028,1.476-0.016,2.261c-0.063,1.113-0.129,2.265,0.156,3.396 c0.05,0.201,0.22,0.35,0.425,0.374c0.593,0.071,1.193,0.094,1.787,0.073c-0.11,1.072-0.208,2.172-0.143,3.274 c0.015,0.266,0.04,0.53,0.064,0.796c0.064,0.693,0.126,1.349,0.016,1.979c-0.048,0.271,0.134,0.53,0.406,0.578 c0.028,0.006,0.058,0.008,0.087,0.008c0.238,0,0.449-0.171,0.491-0.414c0.134-0.763,0.063-1.516-0.004-2.244 c-0.006-0.065-0.01-0.129-0.016-0.194c0.593,0.211,1.228,0.239,1.734,0.253c2.823,0.074,6.132,0.149,9.534,0.224 c0.156,0.736,0.189,1.513,0.077,2.296c-0.035,0.241-0.079,0.542,0.033,0.853c0.294,0.813,1.295,0.888,1.625,0.913 c2.495,0.186,5.013,0.278,7.525,0.278c1.526,0,3.051-0.034,4.567-0.104c0.601-0.027,1.227-0.09,1.706-0.523 c0.537-0.485,0.713-1.33,0.469-2.26c-0.057-0.219-0.131-0.436-0.204-0.65c-0.051-0.148-0.096-0.291-0.138-0.433 c0.672,0.021,1.341,0.057,2.013,0.104c0.189,0.771,0.253,1.583,0.171,2.371c-0.01,0.097-0.04,0.392,0.2,0.612 c0.147,0.135,0.316,0.157,0.387,0.167c0.319,0.045,0.672,0.117,1.037,0.191c0.723,0.147,1.516,0.309,2.255,0.309 c0.281,0,0.554-0.023,0.813-0.08c0.156-0.034,0.632-0.14,0.829-0.569c0.09-0.198,0.086-0.388,0.084-0.513l-0.037-2.081 c0.461-0.022,0.922-0.062,1.381-0.153c0.483-0.095,1.19-0.277,1.746-0.758c1.185-1.025,1.093-2.745,1.019-4.135 c-0.136-2.585,0.114-5.241,0.354-7.811C45.798,21.442,46.145,17.752,45.478,14.148z M5.61,21.898l-1.18-0.118 c0.013-1.642-0.146-3.282-0.473-4.884c-0.006-0.027-0.01-0.051-0.013-0.071c0.466-0.068,0.942-0.096,1.408-0.074 c0.047-0.003,0.092-0.017,0.137-0.031c0.026,0.839,0.057,1.674,0.088,2.502c0.033,0.892,0.065,1.792,0.092,2.694 C5.65,21.912,5.632,21.901,5.61,21.898z M4.063,31.698c-0.16-0.88-0.108-1.796-0.054-2.758c0.043-0.764,0.088-1.552,0.006-2.36 c0.018-0.004,0.039-0.007,0.064-0.011c0.496-0.066,0.993-0.123,1.491-0.169c0.047,0.02,0.098,0.031,0.152,0.036 c-0.013,1.726-0.067,3.452-0.229,5.16l-0.013,0.126C5.011,31.744,4.536,31.738,4.063,31.698z M32.402,38.113 c0.065,0.192,0.132,0.385,0.184,0.581c0.113,0.434,0.128,0.993-0.172,1.264c-0.234,0.212-0.646,0.247-1.081,0.268 c-3.974,0.179-8.002,0.121-11.974-0.175c-0.618-0.046-0.736-0.193-0.759-0.256c-0.027-0.075-0.004-0.23,0.022-0.412 c0.112-0.782,0.089-1.592-0.051-2.373c0.461,0.01,0.923,0.02,1.385,0.03c4.292,0.094,8.589,0.188,12.128,0.281 c0.03,0.001,0.061,0.002,0.091,0.003C32.237,37.596,32.316,37.86,32.402,38.113z M39.872,40.055 c-0.731,0.161-1.753-0.049-2.654-0.232c-0.276-0.056-0.546-0.11-0.806-0.155c0.049-0.709,0.001-1.43-0.139-2.128 c0.352,0.036,0.705,0.075,1.059,0.116c0.865,0.101,1.746,0.19,2.63,0.216l0.037,2.097c0,0.015,0.001,0.038,0.008,0.048 C39.981,40.025,39.94,40.039,39.872,40.055z M44.468,24.918c-0.244,2.605-0.497,5.299-0.357,7.965 c0.065,1.225,0.139,2.613-0.675,3.318c-0.286,0.247-0.694,0.416-1.285,0.533c-1.519,0.301-3.064,0.12-4.702-0.072 c-0.431-0.05-0.86-0.101-1.289-0.142c-1.092-0.103-2.193-0.143-3.278-0.174c-0.091-0.071-0.201-0.114-0.32-0.094 c-0.086,0.004-0.161,0.035-0.23,0.076c-0.073-0.002-0.149-0.005-0.222-0.007c-3.538-0.094-7.837-0.188-12.131-0.281 c-4.229-0.092-8.451-0.185-11.936-0.276c-0.731-0.02-1.37-0.069-1.819-0.391c-0.008-0.957,0.087-1.931,0.185-2.879L6.49,31.69 c0.396-4.165,0.238-8.405,0.087-12.505c-0.1-2.725-0.194-5.525-0.135-8.299c4.827,0.164,12.074,0.103,16.432-0.144l0.405-0.023 c1.091-0.063,2.22-0.132,3.318-0.092c0.807,0.027,1.634,0.111,2.433,0.192c0.892,0.091,1.813,0.185,2.734,0.204 c1.159,0.028,2.407-0.063,3.95-0.278l0.71-0.103c1.26-0.184,2.562-0.375,3.813-0.252c1.589,0.155,2.927,0.872,3.578,1.918 c0.381,0.613,0.557,1.366,0.679,2.021C45.136,17.797,44.796,21.417,44.468,24.918z"/></svg>