<svg xmlns="http://www.w3.org/2000/svg"  viewBox="0 0 48 48" width="48px" height="48px"><path fill="#73a1b2" d="M25.328,3.507c-0.09-0.01-0.18-0.009-0.27,0.003c-5.027,0.671-10.486,1.91-14.47,5.032	c-4.907,3.846-7.496,9.761-7.011,15.976c0.308,3.943,1.941,8.496,4.311,11.663c2.369,3.166,5.77,5.586,9.592,6.602	c1.182,0.314,2.394,0.495,3.606,0.658c2.395,0.321,4.831,0.237,7.187-0.302c1.593-0.365,3.158-0.801,4.628-1.516	c1.561-0.759,3.139-1.529,4.483-2.628c2.37-1.937,3.845-4.755,4.956-7.608c0.929-2.386,1.657-4.9,1.615-7.46	c-0.025-1.538-0.328-3.061-0.756-4.538c-0.812-2.801-2.09-5.481-3.873-7.789C35.985,7.274,30.76,4.132,25.328,3.507z"/><path d="M16.969,20.357c-0.208-0.605-1.175-0.345-0.964,0.266c0.087,0.253-0.032,0.495-0.113,0.738	c-0.101,0.301-0.201,0.601-0.3,0.902c-0.185,0.562-0.367,1.126-0.55,1.689c-0.257,0.79-0.53,1.573-0.802,2.357	c-0.029-0.098-0.055-0.198-0.08-0.3c-0.116-0.472-0.236-0.939-0.396-1.399c-0.338-0.971-0.793-1.895-1.353-2.757	c-0.243-0.373-0.77-0.29-0.914,0.119c-0.544,1.55-0.977,3.13-1.334,4.732C9.99,26.48,9.91,26.183,9.802,25.865	c-0.205-0.608-0.407-1.217-0.607-1.827c-0.41-1.246-0.817-2.493-1.241-3.734c-0.208-0.605-1.174-0.345-0.965,0.266	c0.495,1.448,0.966,2.905,1.447,4.358c0.38,1.149,0.565,2.694,1.916,3.05c0.248,0.065,0.56-0.082,0.615-0.349	c0.299-1.454,0.696-2.879,1.148-4.291c0.336,0.637,0.62,1.299,0.831,1.992c0.258,0.851,0.325,1.896,1.072,2.49	c0.304,0.242,0.698,0.156,0.836-0.221c0.446-1.224,0.852-2.462,1.255-3.701c0.192-0.593,0.384-1.186,0.581-1.777	C16.877,21.557,17.175,20.955,16.969,20.357z"/><path d="M28.059,19.352c-0.63,2.053-1.114,4.147-1.688,6.215c-0.469-1.141-0.973-2.266-1.523-3.373	c-0.202-0.406-0.791-0.264-0.914,0.119c-0.427,1.333-1.007,2.607-1.517,3.909c-0.95-1.902-1.797-3.849-2.41-5.891	c-0.183-0.615-1.148-0.353-0.963,0.266c0.743,2.479,1.816,4.835,3.011,7.125c0.211,0.404,0.784,0.265,0.914-0.119	c0.444-1.308,1.02-2.564,1.513-3.853c0.543,1.14,1.06,2.29,1.488,3.482c0.164,0.457,0.814,0.492,0.964,0	c0.772-2.517,1.317-5.097,2.089-7.614C29.212,19.001,28.247,18.738,28.059,19.352z"/><path d="M44.21,21.503c-1.466-8.406-7.673-15.665-15.963-17.935c-0.958-0.264-1.933-0.442-2.919-0.561 c-0.939-0.049-1.987,0.243-2.91,0.404c-1.05,0.183-2.095,0.398-3.13,0.656c-2.03,0.506-4.028,1.183-5.899,2.125 c-3.504,1.763-6.423,4.621-8.236,8.103c-3.716,7.138-2.282,16.311,2.621,22.554c2.507,3.192,6.056,5.583,10.017,6.528 c4.679,1.117,9.556,0.974,14.069-0.764c2.026-0.78,4.095-1.835,5.793-3.196c1.625-1.304,2.861-3.041,3.819-4.876 C43.543,30.576,44.994,25.995,44.21,21.503z M38.391,11.282c-1.258,0.422-2.516,0.858-3.782,1.275 c-0.446-1.272-1.006-2.505-1.735-3.675c-0.886-1.421-1.978-2.757-3.273-3.83c2.209,0.815,4.279,2.02,6.085,3.514 C36.68,9.388,37.576,10.304,38.391,11.282z M25.328,4.007c0.238,0.029,0.473,0.076,0.71,0.114c0.014,0.006,0.022,0.016,0.037,0.022 c2.694,0.917,4.72,3.193,6.139,5.578c0.599,1.006,1.071,2.057,1.452,3.139c-2.238,0.713-4.501,1.332-6.83,1.643 c-0.687,0.092-1.38,0.152-2.075,0.196c-0.129-3.544-0.175-7.092-0.393-10.632C24.694,4.022,25.018,3.991,25.328,4.007z M22.583,4.393c0.255-0.045,0.523-0.1,0.793-0.155c0.21,3.498,0.259,7.003,0.387,10.504c-1.286,0.032-2.573-0.024-3.842-0.214 c-1.775-0.265-3.422-0.905-5.114-1.429c0.479-1.02,1.06-2,1.599-2.918c0.727-1.237,1.523-2.444,2.474-3.521 c0.72-0.816,1.675-1.828,2.792-2.093C21.976,4.508,22.28,4.447,22.583,4.393z M11.645,8.382c2.187-1.511,4.674-2.487,7.237-3.175 c-0.139,0.136-0.276,0.273-0.408,0.413c-1.094,1.159-2.003,2.495-2.817,3.861c-0.629,1.056-1.286,2.174-1.814,3.339 c-0.147-0.04-0.292-0.082-0.44-0.118c-0.908-0.223-1.841-0.313-2.749-0.542c-0.747-0.188-1.591-0.417-2.252-0.859 C9.361,10.198,10.447,9.209,11.645,8.382z M14.954,41.337c-1.723-0.809-3.305-1.9-4.68-3.216c-0.547-0.523-1.045-1.089-1.517-1.674 c0.046-0.021,0.093-0.042,0.137-0.081c1.445-1.298,3.342-1.794,5.223-2.061c0.122-0.017,0.245-0.029,0.367-0.045 c1.566,3.27,3.715,6.24,6.432,8.656c-0.013-0.002-0.025-0.002-0.038-0.004C18.838,42.634,16.828,42.217,14.954,41.337z M22.577,43.072c-0.024-0.033-0.043-0.067-0.08-0.097c-2.971-2.396-5.29-5.451-6.965-8.845c1.545-0.171,3.096-0.29,4.636-0.517 c0.894-0.132,1.783-0.245,2.672-0.334c0.018,1.315,0.123,2.628,0.279,3.939c0.233,1.947,0.576,3.904,0.6,5.87 C23.339,43.088,22.959,43.093,22.577,43.072z M28.583,42.513c-1.269,0.299-2.558,0.489-3.865,0.553 c-0.026-1.958-0.367-3.908-0.599-5.848c-0.16-1.339-0.266-2.681-0.28-4.024c0.953-0.067,1.909-0.098,2.878-0.051 c2.096,0.101,4.177,0.43,6.214,0.931c0.182,0.045,0.362,0.1,0.543,0.148C32.76,37.413,31.215,40.339,28.583,42.513z M34.109,40.466 c-1.118,0.577-2.266,1.058-3.434,1.454c1.94-2.094,3.161-4.672,3.784-7.431c1.628,0.477,3.219,1.074,4.752,1.801 c-0.114,0.156-0.217,0.321-0.338,0.472C37.58,38.384,35.939,39.522,34.109,40.466z M43.423,25.087 c-0.156,2.227-0.855,4.391-1.678,6.452c-0.538,1.349-1.167,2.687-1.951,3.919c-1.652-0.79-3.374-1.442-5.138-1.958 c0.226-1.311,0.326-2.653,0.307-3.996c-0.009-0.643-1.009-0.645-1,0c0.018,1.255-0.071,2.505-0.274,3.724 c-2.016-0.527-4.077-0.878-6.146-1.036c-1.245-0.095-2.476-0.082-3.705-0.002c0.019-0.578,0.058-1.156,0.127-1.734 c0.076-0.638-0.925-0.632-1,0c-0.072,0.603-0.11,1.207-0.127,1.811c-0.62,0.059-1.241,0.131-1.863,0.221 c-1.955,0.283-3.918,0.464-5.876,0.7c-0.414-0.919-0.796-1.854-1.118-2.811c-0.204-0.608-1.17-0.348-0.964,0.265 c0.305,0.907,0.663,1.794,1.047,2.67c-2.14,0.294-4.235,0.872-5.877,2.346c-0.009,0.008-0.011,0.018-0.019,0.026 c-1.653-2.282-2.801-4.924-3.494-7.66C3.756,24.403,3.792,20.62,5.03,17.078c0.628-1.797,1.563-3.49,2.734-5 c1.176,0.819,2.767,1.139,4.138,1.352c0.525,0.082,1.039,0.201,1.549,0.339c-0.585,1.562-0.87,3.197-0.487,4.87 c0.143,0.628,1.108,0.363,0.964-0.265c-0.339-1.477-0.063-2.934,0.473-4.328c1.364,0.427,2.704,0.938,4.108,1.237 c1.75,0.373,3.526,0.506,5.3,0.46c0.038,0.921,0.076,1.843,0.134,2.764c0.04,0.639,1.04,0.644,1,0 c-0.059-0.938-0.098-1.876-0.137-2.815c2.472-0.156,4.931-0.637,7.303-1.321c0.624-0.18,1.244-0.37,1.862-0.567 c0.471,1.562,0.781,3.178,1.015,4.81c0.091,0.635,1.055,0.365,0.964-0.266c-0.236-1.649-0.553-3.279-1.03-4.854 c1.38-0.453,2.755-0.924,4.133-1.381c1.44,1.916,2.563,4.064,3.336,6.365C43.105,20.607,43.58,22.831,43.423,25.087z"/><path d="M39.058,20.304c-0.44,1.811-0.555,3.675-0.854,5.509c-0.593-1.182-1.263-2.326-1.901-3.481 c-0.176-0.318-0.692-0.333-0.863,0c-0.628,1.215-1.286,2.416-1.834,3.668c-0.54-1.878-0.999-3.78-1.594-5.643 c-0.196-0.611-1.162-0.349-0.965,0.266c0.743,2.323,1.266,4.709,2.009,7.032c0.154,0.482,0.803,0.466,0.964,0 c0.484-1.402,1.177-2.712,1.865-4.022c0.742,1.321,1.493,2.64,2.086,4.035c0.172,0.405,0.82,0.269,0.914-0.119 c0.558-2.297,0.579-4.683,1.137-6.979C40.174,19.945,39.21,19.678,39.058,20.304z"/></svg>