<svg xmlns="http://www.w3.org/2000/svg"  viewBox="0 0 100 100" width="100px" height="100px"><path fill="#fefdef" d="M66,63c0,0-2,1.518-2,5c0,3.5,2,5,2,5H21c-2.761,0-5-2.239-5-5s2.239-5,5-5H66z"/><path fill="#1f212b" d="M66,74H21c-3.309,0-6-2.691-6-6s2.691-6,6-6h45c0.43,0,0.811,0.274,0.948,0.681	c0.136,0.404,0,0.85-0.336,1.11C66.531,63.855,65,65.119,65,68c0,2.918,1.584,4.188,1.6,4.2c0.345,0.258,0.485,0.708,0.349,1.116	C66.813,73.725,66.431,74,66,74z M21,64c-2.206,0-4,1.794-4,4s1.794,4,4,4h42.957C63.447,71.063,63,69.744,63,68	c0-1.741,0.45-3.062,0.96-4H21z"/><path fill="#f37e98" d="M62,16H21c-2.761,0-5,2.239-5,5v47c0-2.761,2.239-5,5-5h45V20C66,17.791,64.209,16,62,16z"/><path fill="#f15b6c" d="M24,63h-3c-2.761,0-5,2.239-5,5V21c0-2.761,2.239-5,5-5h3V63z"/><path fill="#1f212b" d="M16,69c-0.553,0-1-0.448-1-1V21c0-3.309,2.691-6,6-6h41c2.757,0,5,2.243,5,5v43c0,0.552-0.447,1-1,1	H21c-2.206,0-4,1.794-4,4C17,68.552,16.553,69,16,69z M21,17c-2.206,0-4,1.794-4,4v42.532C18.063,62.58,19.465,62,21,62h44V20	c0-1.654-1.346-3-3-3H21z"/><path fill="#1f212b" d="M23.5,63c-0.276,0-0.5-0.224-0.5-0.5v-34c0-0.276,0.224-0.5,0.5-0.5s0.5,0.224,0.5,0.5v34	C24,62.776,23.776,63,23.5,63z"/><path fill="#1f212b" d="M23.5,26c-0.276,0-0.5-0.224-0.5-0.5v-5c0-0.276,0.224-0.5,0.5-0.5s0.5,0.224,0.5,0.5v5	C24,25.776,23.776,26,23.5,26z"/><path fill="#1f212b" d="M63.5,70h-42c-0.276,0-0.5-0.224-0.5-0.5s0.224-0.5,0.5-0.5h42c0.276,0,0.5,0.224,0.5,0.5	S63.776,70,63.5,70z"/><path fill="#1f212b" d="M63.5,67h-36c-0.276,0-0.5-0.224-0.5-0.5s0.224-0.5,0.5-0.5h36c0.276,0,0.5,0.224,0.5,0.5	S63.776,67,63.5,67z"/><path fill="#fefdef" d="M84,74c0,0-2,1.518-2,5c0,3.5,2,5,2,5H39c-2.761,0-5-2.239-5-5s2.239-5,5-5H84z"/><path fill="#1f212b" d="M84,85H39c-3.309,0-6-2.691-6-6s2.691-6,6-6h45c0.43,0,0.811,0.274,0.948,0.681	c0.136,0.404,0,0.85-0.336,1.11C84.531,74.855,83,76.119,83,79c0,2.918,1.584,4.188,1.6,4.2c0.345,0.258,0.485,0.708,0.349,1.116	C84.813,84.725,84.431,85,84,85z M39,75c-2.206,0-4,1.794-4,4s1.794,4,4,4h42.957C81.447,82.063,81,80.744,81,79	c0-1.741,0.45-3.062,0.96-4H39z"/><path fill="#c7dff1" d="M80,27H39c-2.761,0-5,2.239-5,5v47c0-2.761,2.239-5,5-5h45V31C84,28.791,82.209,27,80,27z"/><path fill="#78a2d2" d="M42,74h-3c-2.761,0-5,2.239-5,5V32c0-2.761,2.239-5,5-5h3V74z"/><path fill="#1f212b" d="M34,80c-0.553,0-1-0.448-1-1V32c0-3.309,2.691-6,6-6h41c2.757,0,5,2.243,5,5v43c0,0.552-0.447,1-1,1	H39c-2.206,0-4,1.794-4,4C35,79.552,34.553,80,34,80z M39,28c-2.206,0-4,1.794-4,4v42.532C36.063,73.58,37.465,73,39,73h44V31	c0-1.654-1.346-3-3-3H39z"/><path fill="#1f212b" d="M41.5,74c-0.276,0-0.5-0.224-0.5-0.5v-34c0-0.276,0.224-0.5,0.5-0.5s0.5,0.224,0.5,0.5v34	C42,73.776,41.776,74,41.5,74z"/><path fill="#1f212b" d="M41.5,37c-0.276,0-0.5-0.224-0.5-0.5v-5c0-0.276,0.224-0.5,0.5-0.5s0.5,0.224,0.5,0.5v5	C42,36.776,41.776,37,41.5,37z"/><path fill="#1f212b" d="M81.5,81h-42c-0.276,0-0.5-0.224-0.5-0.5s0.224-0.5,0.5-0.5h42c0.276,0,0.5,0.224,0.5,0.5	S81.776,81,81.5,81z"/><path fill="#1f212b" d="M81.5,78h-36c-0.276,0-0.5-0.224-0.5-0.5s0.224-0.5,0.5-0.5h36c0.276,0,0.5,0.224,0.5,0.5	S81.776,78,81.5,78z"/><polyline fill="#78a2d2" points="73.5,40.5 73.5,48.5 51.5,48.5 51.5,37.5 69.5,37.5"/><path fill="#1f212b" d="M73.5,49h-22c-0.276,0-0.5-0.224-0.5-0.5v-11c0-0.276,0.224-0.5,0.5-0.5h18	c0.276,0,0.5,0.224,0.5,0.5S69.776,38,69.5,38H52v10h21v-7.5c0-0.276,0.224-0.5,0.5-0.5s0.5,0.224,0.5,0.5v8	C74,48.776,73.776,49,73.5,49z"/><path fill="#1f212b" d="M69.5,42h-14c-0.276,0-0.5-0.224-0.5-0.5s0.224-0.5,0.5-0.5h14c0.276,0,0.5,0.224,0.5,0.5	S69.776,42,69.5,42z"/><path fill="#1f212b" d="M67.5,45h-10c-0.276,0-0.5-0.224-0.5-0.5s0.224-0.5,0.5-0.5h10c0.276,0,0.5,0.224,0.5,0.5	S67.776,45,67.5,45z"/></svg>