<svg xmlns="http://www.w3.org/2000/svg" width="48" height="48" viewBox="0 0 48 48"><path fill="#3F51B5" d="M37,10.998H15c-2.207,0-4.816,1.066-4.984,6H10c0,0,0,15.824,0,24C10,44.711,12.761,45,13.607,45L35,44.998c0.188,0,0.5,0,1,0c2,0,2-2,2-2V38V11.998C38,11.445,37.553,10.998,37,10.998z"/><path fill="#1A237E" d="M37,38.998h-2v6c0.188,0,0.5,0,1,0c2,0,2-2,2-2V38C38,38.551,37.553,38.998,37,38.998z"/><path fill="#FF3D00" d="M37,3H15c-2.207,0-4.816,1.066-4.984,6H10c0,0,0,15.824,0,24c0,3.713,2.761,4.002,3.607,4.002L35,37c0.188,0,0.5,0,1,0c2,0,2-2,2-2v-4.998V4C38,3.447,37.553,3,37,3z"/><path fill="#FFE0B2" d="M35 38.998H13.607c-1.332 0-1.607.896-1.607 2C12 42.104 12.275 43 13.607 43L35 42.998V38.998zM35 31H13.607C12.275 31 12 31.896 12 33c0 1.105.275 2.002 1.607 2.002L35 35V31z"/><path fill="#BF360C" d="M37,31h-2v6c0.188,0,0.5,0,1,0c2,0,2-2,2-2v-4.998C38,30.553,37.553,31,37,31z"/><path fill="#E0B990" d="M13.607 31C12.275 31 12 31.896 12 33h23v-2H13.607zM13.607 38.998c-1.332 0-1.607.896-1.607 2h23v-2H13.607z"/><path fill="#FFECB3" d="M15 8.998H34V13.998H15z"/></svg>