<svg xmlns="http://www.w3.org/2000/svg"  viewBox="0 0 100 100" width="100px" height="100px"><path fill="#a3a3cd" d="M84,70H16c-2.761,0-5-2.239-5-5V21c0-2.761,2.239-5,5-5h68c2.761,0,5,2.239,5,5v44 C89,67.761,86.761,70,84,70z"/><path fill="#d0d0e3" d="M85.5,54h-71c-0.276,0-0.5-0.224-0.5-0.5v-31c0-0.276,0.224-0.5,0.5-0.5h71 c0.276,0,0.5,0.224,0.5,0.5v31C86,53.776,85.776,54,85.5,54z"/><path fill="#fefdef" d="M11,56.5V65c0,2.761,2.239,5,5,5h68c2.761,0,5-2.239,5-5v-8.5H11z"/><circle cx="50" cy="62" r="2.5" fill="#ceccbe"/><path fill="#ceccbe" d="M66.323,79H65c-2.761,0-5-2.239-5-5v-3.959c0-0.023-20-0.023-20,0V74c0,2.761-2.239,5-5,5h-1.323 c-1.328,0-2.553,0.953-2.668,2.276C30.881,82.757,32.045,84,33.5,84c1.127,0,31.875,0,33,0c1.455,0,2.619-1.243,2.49-2.724 C68.875,79.953,67.65,79,66.323,79z"/><g><path fill="#1f212b" d="M84,71H16c-3.309,0-6-2.691-6-6V21c0-3.309,2.691-6,6-6h68c3.309,0,6,2.691,6,6v44 C90,68.309,87.309,71,84,71z M16,17c-2.206,0-4,1.794-4,4v44c0,2.206,1.794,4,4,4h68c2.206,0,4-1.794,4-4V21c0-2.206-1.794-4-4-4 H16z"/><rect width="78" height="1" x="11" y="56" fill="#1f212b"/><path fill="#1f212b" d="M85.5,54h-71c-0.276,0-0.5-0.224-0.5-0.5v-3c0-0.276,0.224-0.5,0.5-0.5s0.5,0.224,0.5,0.5V53h70 V26.5c0-0.276,0.224-0.5,0.5-0.5s0.5,0.224,0.5,0.5v27C86,53.776,85.776,54,85.5,54z"/><path fill="#1f212b" d="M14.5,47c-0.276,0-0.5-0.224-0.5-0.5v-3c0-0.276,0.224-0.5,0.5-0.5s0.5,0.224,0.5,0.5v3 C15,46.776,14.776,47,14.5,47z"/><path fill="#1f212b" d="M14.5,39c-0.276,0-0.5-0.224-0.5-0.5v-16c0-0.276,0.224-0.5,0.5-0.5h69c0.276,0,0.5,0.224,0.5,0.5 S83.776,23,83.5,23H15v15.5C15,38.776,14.776,39,14.5,39z"/><path fill="#1f212b" d="M51.5,20h-3c-0.276,0-0.5-0.224-0.5-0.5s0.224-0.5,0.5-0.5h3c0.276,0,0.5,0.224,0.5,0.5 S51.776,20,51.5,20z"/><path fill="#1f212b" d="M50,65c-1.654,0-3-1.346-3-3s1.346-3,3-3s3,1.346,3,3S51.654,65,50,65z M50,60 c-1.103,0-2,0.897-2,2s0.897,2,2,2s2-0.897,2-2S51.103,60,50,60z"/><path fill="#1f212b" d="M66.5,85h-33c-0.979,0-1.919-0.414-2.581-1.136c-0.661-0.721-0.991-1.695-0.906-2.675 C30.169,79.401,31.779,78,33.678,78H35c2.206,0,4-1.794,4-4v-4c0-0.553,0.448-1,1-1h20c0.552,0,1,0.447,1,1v4c0,2.206,1.794,4,4,4 h1.322c1.899,0,3.508,1.401,3.664,3.189c0.085,0.979-0.245,1.954-0.906,2.675C68.419,84.586,67.479,85,66.5,85z M33.678,80 c-0.856,0-1.606,0.611-1.672,1.363c-0.037,0.428,0.101,0.837,0.388,1.149C32.682,82.827,33.074,83,33.5,83h33 c0.426,0,0.818-0.173,1.106-0.487c0.287-0.313,0.425-0.722,0.388-1.149C67.929,80.611,67.179,80,66.322,80H65 c-3.309,0-6-2.691-6-6v-3H41v3c0,3.309-2.691,6-6,6H33.678z"/><path fill="#1f212b" d="M48.499,80H33.5c-0.276,0-0.5-0.224-0.5-0.5s0.224-0.5,0.5-0.5h14.999c0.276,0,0.5,0.224,0.5,0.5 S48.775,80,48.499,80z"/><path fill="#1f212b" d="M53.5,80h-2c-0.276,0-0.5-0.224-0.5-0.5s0.224-0.5,0.5-0.5h2c0.276,0,0.5,0.224,0.5,0.5 S53.776,80,53.5,80z"/></g><g><path fill="#4e6e91" d="M59.5,49V37c0-5.248-4.254-9.5-9.5-9.5s-9.5,4.252-9.5,9.5v12H59.5z"/><path fill="#fef6aa" d="M56.5,44.5c0,1.657-3.768,3-6.5,3s-6.5-1.343-6.5-3c1.026-1.632,4.766-3,6.5-3 S55.471,42.889,56.5,44.5z"/><path fill="#fefdef" d="M45.276,42.989c1.31-0.753,2.975-1.3,4.154-1.447C49.788,40.819,50,39.944,50,39 c0-2.485-1.455-4.5-3.25-4.5S43.5,36.515,43.5,39C43.5,40.746,44.226,42.243,45.276,42.989z"/><path fill="#fefdef" d="M54.717,42.995C55.771,42.251,56.5,40.75,56.5,39c0-2.485-1.455-4.5-3.25-4.5S50,36.515,50,39 c0,0.945,0.212,1.819,0.571,2.543C51.748,41.691,53.407,42.244,54.717,42.995z"/><g><path fill="#1f212b" d="M59.5,49c-0.276,0-0.5-0.224-0.5-0.5V37c0-4.963-4.037-9-9-9s-9,4.037-9,9v11.5 c0,0.276-0.224,0.5-0.5,0.5S40,48.776,40,48.5V37c0-5.514,4.486-10,10-10s10,4.486,10,10v11.5C60,48.776,59.776,49,59.5,49z"/><path fill="#1f212b" d="M47,38c-0.552,0-1,0.672-1,1.5s0.448,1.5,1,1.5s1-0.672,1-1.5S47.552,38,47,38z"/><path fill="#1f212b" d="M53,38c-0.552,0-1,0.672-1,1.5s0.448,1.5,1,1.5s1-0.672,1-1.5S53.552,38,53,38z"/><path fill="#1f212b" d="M45.275,43.489c-0.102,0-0.203-0.031-0.29-0.093C43.761,42.526,43,40.842,43,39 c0-2.757,1.683-5,3.75-5s3.75,2.243,3.75,5c0,0.986-0.215,1.942-0.622,2.764c-0.075,0.15-0.22,0.254-0.387,0.274 c-1.188,0.147-2.782,0.704-3.967,1.385C45.447,43.467,45.361,43.489,45.275,43.489z M46.75,35C45.233,35,44,36.794,44,39 c0,1.393,0.501,2.659,1.325,3.391c1.157-0.614,2.598-1.114,3.765-1.305C49.358,40.455,49.5,39.74,49.5,39 C49.5,36.794,48.267,35,46.75,35z"/><path fill="#1f212b" d="M50,48c-2.787,0-7-1.396-7-3.5c0-0.094,0.026-0.187,0.077-0.267C44.199,42.448,48.069,41,50,41 c1.918,0,5.782,1.447,6.921,3.23C56.973,44.312,57,44.404,57,44.5C57,46.604,52.787,48,50,48z M44.015,44.634 C44.251,45.748,47.358,47,50,47c2.641,0,5.746-1.251,5.985-2.365C54.946,43.259,51.57,42,50,42 C48.419,42,45.039,43.258,44.015,44.634z"/><path fill="#1f212b" d="M54.717,43.495c-0.086,0-0.172-0.021-0.249-0.066c-1.19-0.683-2.781-1.241-3.959-1.39 c-0.166-0.021-0.311-0.124-0.386-0.273C49.716,40.944,49.5,39.988,49.5,39c0-2.757,1.683-5,3.75-5S57,36.243,57,39 c0,1.848-0.765,3.534-1.995,4.403C54.919,43.465,54.818,43.495,54.717,43.495z M50.911,41.088c1.158,0.191,2.597,0.693,3.757,1.31 C55.496,41.667,56,40.397,56,39c0-2.206-1.233-4-2.75-4s-2.75,1.794-2.75,4C50.5,39.741,50.642,40.457,50.911,41.088z"/><path fill="#1f212b" d="M54.68,33c-0.131,0-0.262-0.052-0.36-0.153c-0.801-0.832-1.815-1.412-2.935-1.679 c-0.27-0.063-0.436-0.333-0.371-0.602c0.064-0.27,0.334-0.44,0.602-0.371c1.307,0.311,2.49,0.987,3.425,1.958 c0.191,0.199,0.186,0.516-0.014,0.707C54.93,32.953,54.805,33,54.68,33z"/></g></g></svg>