<svg xmlns="http://www.w3.org/2000/svg" width="48" height="48" viewBox="0 0 512 512"><path fill="#D6E5E5" d="M150.5 400.8c-2-2.7-4.9-3.4-7.7-3.7-5.4-.5-11.6.7-16.5 3-1.5.7-3.4 1.8-4 2.9.5-.7 1.8 1.6 2.9 2.5.3.3.6.6.9.9.3.1.6.2.9.3 5.8 2.7 14.4 3.6 20.4 1.1C150 406.8 152.6 403.7 150.5 400.8zM129.9 311.1c-2.8-.1-11.3.4-11.9 2.6 0 .1 0 .1-.1.2 6.9 2.4 22.3 6.3 22.2 1.1C140.1 312.5 133.2 311.2 129.9 311.1z"/><path fill="#127274" d="M169.1,460.1c-0.1-4.9-0.6-9.8-1-14.7c-5.7-63.6-12.2-127.3-21.1-190.6c-4.6-32.9-8.7-65.7-10.3-98.9c-1.6-32.3-5.4-64.6-5.6-97c-2.9,0.2-5.8,0.5-8.7,0.8c-12.8,1.5-25.6,3.5-38.5,3.5c0.7,0.8,1.2,1.8,1.2,3c0,22.9-0.1,45.9,0,68.9c1.2-2.9,3.2-5.2,5.6-7.2c0.4-1.4,1.4-2.7,3.2-3.5c8.1-3.5,20.1-3.9,28.1,0.3c10.8,5.6,7.8,16,0.9,23.6c-7.4,8.1-23.2,11.8-32.4,4.7c-2.4-1.8-4.2-4.3-5.2-7.1c0.3,35.4,1.3,70.7,4.6,105.8c2.7,29.6,8.6,58.8,12.7,88.3c4,29,4.7,57.9,4.7,87.2c0,0,0,0,0,0.1v2c0,1.4-0.4,2.6-1.1,3.5c0.1,0.5,0.2,1,0.1,1.5c-0.3,5.7,0.3,12.3,4.6,16.6c3.6,3.5,8.1,5.7,12.9,7.1c-0.6-0.7-1.1-1.4-1.6-2.2c-0.6-1-0.9-2-0.9-2.9c-0.4-0.3-0.7-0.7-1.1-1.1c-9.4-12.3,11.4-18.4,19.9-18.4c5.9,0,13.2,0.7,17.6,5.2c5,5,4.9,11.5,2,17.6c-3,6.4-12.9,1.5-9.9-4.9c0.5-1,0.9-1.8,1-2.9c-0.1,0.2-0.2-1.1-0.1-1c-0.2-0.5-0.7-1-0.9-1.1c-2.6-1.4-5.6-2-8.9-1.9c-3.7,0.1-7.3,0.5-10.7,2c-0.1,0.1-0.3,0.1-0.4,0.2c0.4,0.7,0.5,1.4,0.5,2c0.3,0.3,0.6,0.7,0.9,1.1c2.2,3.4,7.4,7.7,11.6,5.9c4.5-1.9,7.6,2.4,7,6.1c0.3,0,0.6,0,0.9,0.1c6.5,0.5,13,1,19.4,1.5C169.5,462.4,169.1,461.4,169.1,460.1z M119.7,100.2c-3.5,2.4-9,3.3-13.2,3.8c-4.3,0.6-9.5,1-13.4-1.4C85.6,97.9,86,88.8,90.8,83c-1.4-3.2-0.1-7.6,4.4-7.8c9.5-0.5,20.1-9.1,28.5-0.3C130.6,82,127.3,95,119.7,100.2z M92.1,189.1c-1-9.5,6.1-16.8,15-18.8c9.3-2.1,18.4,1.3,22.4,10.3c8.3,18.8-21.3,21.1-32.3,16c-1.8-0.8-2.7-2.2-3-3.7C93.1,192,92.3,190.8,92.1,189.1z M94.1,236.1c-0.7-19.9,34-27.6,41.9-9.2c7.5,17.7-24.3,22.7-34.8,16.7c-1.2-0.7-2-1.6-2.4-2.6C96.4,240.8,94.2,239.2,94.1,236.1z M104.1,284.8c-2.3-0.3-4.5-1.9-5-4.8c-1.7-9.9,7.1-17.8,15.6-20.9c7.5-2.7,19.5-3.8,24.4,4.3c12.1,20.2-19.7,35.6-34.2,22.3C104.6,285.5,104.4,285.2,104.1,284.8z M110.2,322.6c-2.9-1.6-3.4-4.6-2.4-7c-0.7-1-0.9-2.4-0.5-4c2.4-9.2,13.4-11.8,21.8-11.4c7.8,0.4,19.1,2.2,21.6,11.1c3,10.3-6.7,17-15.8,17.1C126.6,328.4,117.5,326.6,110.2,322.6z M148.4,349.1c6,6.7,4.8,19.9-4.8,22.8c-8.4,2.6-17-0.8-25.1-2.9c-2.6-0.7-3.9-2.6-4.2-4.7c-1.6-0.7-2.9-2.1-3.3-4.3C108.1,340.9,138.5,338,148.4,349.1z M155.8,415.7c-9.3,6.4-23.8,5.5-33.6,0.9c-0.9-0.4-1.6-1-2.1-1.7c-0.7-0.2-1.4-0.5-2.1-1.1c-8.7-7-8.1-17.3,1.8-22.7c7.5-4,19.4-7,27.8-4.3c6.4,2.1,12.1,5.5,14,12.4C163.2,405.2,160.9,412.2,155.8,415.7z"/><path fill="#D6E5E5" d="M377 69.6c-2.5.6-4.9 1.5-7.4 2.3-.2 1.8-1.3 3.5-3.4 4.3-1.5.6-3 2.6-1.7 4.2.7.8 3.7.4 4.7.3 3.5-.4 10.2-.6 11.9-4.3C383.1 72.1 382.5 68.2 377 69.6zM377.1 439.1C377.1 439.1 377.1 439.1 377.1 439.1c0-.1-.1-.2-.1-.3-1.2-1.6-1.3-3.3-.7-4.7-.4-3.2-.6-6.4-.6-9.6-.3-14.8-5-28.6-7-43.2-2.1-15.5-3.6-31.1-5.2-46.7-2.1-20.5-4.2-41-7-61.4-1 1-2.2 1.4-3.3 1.4-.4.3-.8.7-1.2 1-1.4 1-2.8.9-4.5.9-3.7.1-7.4.2-11.1.4-8.1.5-16.2 1.3-24.3 2.4-15.6 2.1-31.3 4.6-46.8 7.3-33.7 5.8-67.9 6-102 6-.1 0-.2 0-.3 0 3.6 29.9 6.8 59.9 10.2 89.9 1.9 16.3 3.5 32.6 4.6 49 .6 9.3 2.1 18.6 2.3 27.9 0 2-.9 3.6-2.1 4.5 4.4.3 8.9.7 13.3.9 16 1 32.2 1.2 48-1.5 16.2-2.7 32.3-6.2 48.4-9.8 15.7-3.5 31.5-8 47.4-10.1 14-1.8 28-3 42-4.2C377.1 439.2 377.1 439.1 377.1 439.1zM117.6 134.9c-1.5-1-3.9-1.4-5.7-1.7-3.2-.4-6.5-.4-9.8.2-2.8 1.4-6.1 3.2-7 5.8-1.2 3.2 2.1 5.8 4.9 6.2 6.4.9 14.1-2 17.3-7.9.4-.6.8-1.6.9-2C118.2 135.6 117.9 135.1 117.6 134.9zM140.7 356.9c-4-3.8-19.1-5.5-18.7 1.8 4.7 1.3 9.6 3.3 14.5 3.3 1 0 3.7.3 4.3-.9C141.3 359.9 141.5 357.7 140.7 356.9zM258.4 57c-30.6.3-61.2.6-91.8 1-8.2.1-16.3.1-24.4.4 0 9.4.4 18.8.9 28.2.3 5 .6 10 1 14.9 39.3-.2 78.3-2.7 117.4-6.1 14.1-1.2 28.2-2.1 42.3-3.9 11.5-1.5 25-2.8 35.4-8.7 0-9.3.1-18.6.1-27.9C312.2 56 285.3 56.8 258.4 57zM351 239.5c-2.9-15.3-6-30.5-7.7-46-1.8-15.6-2.9-31.2-3.5-46.8-.6-16.8-.8-33.7-.8-50.5-1.3.7-2.6.7-3.8.3-9 3.1-18.8 4.4-27.9 5.7-14.3 1.9-28.6 2.9-43 4.1-39.8 3.4-79.5 6.1-119.5 6.2.6 7.6 1.2 15.3 1.8 22.9 1.2 16.5 1.6 32.9 3 49.4 2.8 32.4 7.9 64.5 11.9 96.8.2 0 .5-.1.8-.1 32.1 0 64.4.1 96.1-5 29.2-4.7 58.6-10.6 88.3-11 1.4-1.1 2.9-2.1 4.6-2.6 1.2-.3 2.4-.3 3.5 0C353.8 255.1 352.5 247.3 351 239.5zM111.2 82.2c-2.5.6-4.9 1.5-7.4 2.3-.2 1.8-1.3 3.5-3.4 4.3-1.5.6-3 2.6-1.7 4.2.7.8 3.7.4 4.7.3 3.5-.4 10.2-.6 11.9-4.3C117.3 84.7 116.7 80.8 111.2 82.2zM110.3 180.8c-3.7.6-7 2.7-7.2 6.4 3.1 1.1 7.1 1.3 10.5.9 1.6-.2 3.8-.3 5.2-1.2.2-.1.8-.7 1-.8 0-.1.1-.2 0-.2C118.2 181.5 114.8 180 110.3 180.8zM130.1 269.6c-4.8-4.4-17.5.3-19.7 6.8.6.2 1.3.6 1.9 1.2 3.4 3.2 9.4 2.6 13.4.9C128.1 277.4 133.6 272.8 130.1 269.6zM125.9 231.3c-2.8-6.6-18.1-4.2-20.5 2.1.2.1.4.2.7.3 3.4 1.9 8.7 1.6 12.7.8 2.1-.4 4.5-1 6.3-2.3.2-.2.9-.8.9-.8C125.9 231.4 125.9 231.3 125.9 231.3zM382.3 120c-2-.5-4.1-.8-6.1-.8-2.4 0-4.7 0-7.1.3.2 1.1.2 2.3.2 3.5 0 2.5-.5 5.4 2.8 5 3.5-.4 7.1-1.7 10-3.7 1.3-.9 3.1-2.3 2.8-2.9C385 121.1 383.8 120.3 382.3 120zM416.3 388.2c-2-2.7-4.9-3.4-7.7-3.7-5.4-.5-11.6.7-16.5 3-1.5.7-3.4 1.8-4 2.9.5-.7 1.8 1.6 2.9 2.5.3.3.6.6.9.9.3.1.6.2.9.3 5.8 2.7 14.4 3.6 20.4 1.1C415.8 394.1 418.4 391.1 416.3 388.2zM406.5 344.2c-4-3.8-19.1-5.5-18.7 1.8 4.7 1.3 9.6 3.3 14.5 3.3 1 0 3.7.3 4.3-.9C407 347.2 407.3 345 406.5 344.2zM395.7 298.5c-2.8-.1-11.3.4-11.9 2.6 0 .1 0 .1-.1.2 6.9 2.4 22.3 6.3 22.2 1.1C405.9 299.8 399 298.5 395.7 298.5zM395.8 256.9c-4.8-4.4-17.5.3-19.7 6.8.6.2 1.3.6 1.9 1.2 3.4 3.2 9.4 2.6 13.4.9C393.9 264.7 399.4 260.1 395.8 256.9z"/><path fill="#127274" d="M429.5,424.7c-0.1-4.4-0.4-10.4-3.5-13.9c-2.4-2.6-1.7-6.1,0.2-8.1c-0.2-1.4-0.3-2.8-0.4-4.3c-1,1.9-2.5,3.5-4.2,4.7c-9.3,6.4-23.8,5.5-33.6,0.9c-0.9-0.4-1.6-1-2.1-1.7c-0.6-0.2-1.2-0.4-1.7-0.8c1.2,5.1,2.2,10.3,2.4,15.6c0.3,5.9,0,12.1,1,18c0.4,1,0.6,2.1,0.7,3.3c0,0,0,0,0,0c7.4-0.7,14.7-1.4,22.1-2.1c4.4-0.4,9.4-0.2,13.6-1.6C428.5,433,429.6,429.4,429.5,424.7z"/><path fill="#D6E5E5" d="M376.1,168.1c-3.7,0.6-7,2.7-7.2,6.4c3.1,1.1,7.1,1.3,10.5,0.9c1.6-0.2,3.8-0.3,5.2-1.2c0.2-0.1,0.8-0.7,1-0.8c0-0.1,0.1-0.2,0-0.2C384,168.8,380.6,167.3,376.1,168.1z"/><path fill="#127274" d="M422.6,373c-1.9-15.8-4-31.6-5.7-47.4c-0.6-5.7-1.2-11.3-1.8-17c-2.9,4.4-8.8,7.1-14.5,7.1c-8.3,0.1-17.4-1.7-24.7-5.7c-2.9-1.6-3.4-4.6-2.4-7c-0.7-1-0.9-2.4-0.5-4c2.4-9.2,13.4-11.8,21.9-11.4c6.1,0.3,14.3,1.5,18.8,6.2c-2-20.7-3.8-41.5-4.9-62.3c-1.8-31.9-0.5-63.7-0.4-95.6c0.1-16.2-0.8-32.2-2.4-48.3c-0.8-7.5-1.5-15.1-2.9-22.6c-0.8-4.2-1.4-8.2-1.8-12.3c-0.4-0.2-0.9-0.4-1.3-0.7c-1.6-1.3-6.1-1.3-8.6-1.3c-4.9,0-9.8,0.5-14.7,1c-8.9,1.1-17.6,2.4-26.5,2.9c0,4.2,0,8.3,0,12.5c-0.1,31.3-0.5,62.7,1.4,93.9c0.9,15.6,2.3,31.1,4.7,46.5c2.4,15.5,5.9,30.8,8.4,46.3c0.3,2.1,0.6,4.2,1,6.3c2.3-6.4,8.7-11.2,15-13.5c7.5-2.7,19.5-3.8,24.4,4.3c12.1,20.2-19.7,35.6-34.2,22.3c-0.3-0.3-0.6-0.6-0.8-1c-1-0.1-1.9-0.5-2.7-1.1c3.6,25.8,6.1,51.8,8.9,77.8c1.2,11.3,2.3,22.7,4.2,33.9c1.3-1.6,3.1-3.1,5.4-4.4c7.5-4,19.4-7,27.8-4.3c3.9,1.3,7.6,3,10.2,5.8C423.2,377.6,422.9,375.3,422.6,373z M361,62.5c9.5-0.5,20.1-9.1,28.5-0.3c6.9,7.1,3.6,20.1-4,25.4c-3.5,2.4-9,3.3-13.2,3.8c-4.3,0.6-9.5,1-13.4-1.4c-7.5-4.7-7.1-13.8-2.4-19.6C355.2,67.1,356.5,62.7,361,62.5z M360.7,110.6c0.5-0.5,1.2-0.9,2.1-1.1c10.2-3,34.8-2.8,33,13c-1.1,9.7-14,16.1-22.8,16.4c-5.5,0.2-10.9-1.7-13.3-7.1c-1.9-4.1,0.2-9.8-2.6-13.1C354,115.1,357,111.3,360.7,110.6z M357.9,176.4c-1-9.5,6.1-16.8,15-18.8c9.3-2.1,18.4,1.3,22.4,10.3c8.3,18.8-21.3,21.1-32.3,16c-1.8-0.8-2.7-2.2-3-3.7C358.9,179.4,358.1,178.1,357.9,176.4z M366.9,230.9c-1.2-0.7-2-1.6-2.4-2.6c-2.4-0.2-4.5-1.8-4.6-4.9c-0.7-19.9,34-27.6,41.9-9.2C409.3,232,377.5,236.9,366.9,230.9z M409.4,359.3c-8.4,2.6-17-0.8-25.1-2.9c-2.6-0.7-3.9-2.6-4.2-4.7c-1.6-0.7-2.9-2.1-3.3-4.3c-3.1-19.2,27.4-22.1,37.3-11C420.2,343.2,419,356.3,409.4,359.3z"/><path fill="#D6E5E5" d="M391.7,218.6c-2.8-6.6-18.1-4.2-20.5,2.1c0.2,0.1,0.4,0.2,0.7,0.3c3.4,1.9,8.7,1.6,12.7,0.8c2.1-0.4,4.5-1,6.3-2.3c0.2-0.2,0.9-0.8,0.9-0.8C391.7,218.7,391.7,218.7,391.7,218.6z"/><path d="M123.7 74.8c-8.4-8.7-19-.1-28.5.3-4.4.2-5.8 4.6-4.4 7.8-4.8 5.9-5.2 15 2.4 19.6 3.9 2.4 9.1 2 13.4 1.4 4.1-.5 9.6-1.4 13.2-3.8C127.3 95 130.6 82 123.7 74.8zM115.3 89c-1.7 3.7-8.4 3.9-11.9 4.3-1 .1-4 .5-4.7-.3-1.3-1.6.3-3.6 1.7-4.2 2.1-.9 3.2-2.5 3.4-4.3 2.5-.8 4.9-1.7 7.4-2.3C116.7 80.8 117.3 84.7 115.3 89zM129.5 180.6c-4-9-13.1-12.4-22.4-10.3-8.9 2-16.1 9.3-15 18.8.2 1.7 1 3 2.1 3.8.2 1.5 1.1 2.9 3 3.7C108.2 201.7 137.8 199.4 129.5 180.6zM119.7 186c-.2.1-.8.7-1 .8-1.4.9-3.6 1-5.2 1.2-3.4.4-7.4.2-10.5-.9.2-3.7 3.6-5.7 7.2-6.4 4.5-.8 7.9.7 9.5 5.1C119.8 185.9 119.7 186 119.7 186zM136 226.9c-7.8-18.5-42.5-10.7-41.9 9.2.1 3.1 2.3 4.7 4.6 4.9.4 1 1.2 1.9 2.4 2.6C111.7 249.6 143.5 244.6 136 226.9zM125 232.2c-1.8 1.3-4.2 1.9-6.3 2.3-4 .8-9.3 1.1-12.7-.8-.2-.1-.4-.2-.7-.3 2.4-6.3 17.7-8.7 20.5-2.1 0 .1 0 .1.1.1C125.9 231.4 125.2 232.1 125 232.2zM139.2 263.5c-4.9-8.1-16.9-7.1-24.4-4.3-8.5 3.1-17.3 11-15.6 20.9.5 2.9 2.7 4.4 5 4.8.2.3.5.6.8 1C119.4 299.1 151.3 283.7 139.2 263.5zM125.6 278.4c-4 1.7-9.9 2.3-13.4-.9-.6-.6-1.3-.9-1.9-1.2 2.2-6.5 14.9-11.2 19.7-6.8C133.6 272.8 128.1 277.4 125.6 278.4zM150.7 311.2c-2.6-8.8-13.8-10.7-21.6-11.1-8.4-.4-19.4 2.2-21.8 11.4-.4 1.6-.2 2.9.5 4-1 2.4-.5 5.4 2.4 7 7.3 4 16.5 5.8 24.7 5.7C144 328.2 153.7 321.5 150.7 311.2zM118 313.9c0-.1 0-.1.1-.2.6-2.1 9.1-2.6 11.9-2.6 3.3.1 10.2 1.3 10.2 3.9C140.3 320.2 124.8 316.3 118 313.9zM148.4 349.1c-9.9-11.1-40.4-8.2-37.3 11 .3 2.2 1.7 3.6 3.3 4.3.3 2.1 1.6 4 4.2 4.7 8.1 2.1 16.7 5.5 25.1 2.9C153.2 369 154.4 355.8 148.4 349.1zM140.8 361c-.5 1.2-3.3.9-4.3.9-4.8 0-9.8-2-14.5-3.3-.4-7.2 14.7-5.6 18.7-1.8C141.5 357.7 141.3 359.9 140.8 361zM161.6 399.3c-1.9-7-7.6-10.3-14-12.4-8.4-2.7-20.3.2-27.8 4.3-10 5.3-10.6 15.6-1.8 22.7.7.5 1.4.9 2.1 1.1.5.7 1.2 1.3 2.1 1.7 9.9 4.6 24.4 5.5 33.6-.9C160.9 412.2 163.2 405.2 161.6 399.3zM147.4 407.8c-6 2.5-14.6 1.6-20.4-1.1-.3-.1-.6-.3-.9-.3-.2-.3-.5-.6-.9-.9-1.1-.9-2.4-3.2-2.9-2.5.6-1.1 2.4-2.2 4-2.9 5-2.2 11.1-3.5 16.5-3 2.8.3 5.6 1 7.7 3.7C152.6 403.7 150 406.8 147.4 407.8zM389.5 62.2c-8.4-8.7-19-.1-28.5.3-4.4.2-5.8 4.6-4.4 7.8-4.8 5.9-5.2 15 2.4 19.6 3.9 2.4 9.1 2 13.4 1.4 4.1-.5 9.6-1.4 13.2-3.8C393.1 82.3 396.4 69.3 389.5 62.2zM381.1 76.4c-1.7 3.7-8.4 3.9-11.9 4.3-1 .1-4 .5-4.7-.3-1.3-1.6.3-3.6 1.7-4.2 2.1-.9 3.2-2.5 3.4-4.3 2.5-.8 4.9-1.7 7.4-2.3C382.5 68.2 383.1 72.1 381.1 76.4zM395.3 167.9c-4-9-13.1-12.4-22.4-10.3-8.9 2-16.1 9.3-15 18.8.2 1.7 1 3 2.1 3.8.2 1.5 1.1 2.9 3 3.7C374 189 403.5 186.7 395.3 167.9zM385.5 173.4c-.2.1-.8.7-1 .8-1.4.9-3.6 1-5.2 1.2-3.4.4-7.4.2-10.5-.9.2-3.7 3.6-5.7 7.2-6.4 4.5-.8 7.9.7 9.5 5.1C385.5 173.2 385.5 173.3 385.5 173.4zM401.8 214.3c-7.8-18.5-42.5-10.7-41.9 9.2.1 3.1 2.3 4.7 4.6 4.9.4 1 1.2 1.9 2.4 2.6C377.5 236.9 409.3 232 401.8 214.3zM390.8 219.6c-1.8 1.3-4.2 1.9-6.3 2.3-4 .8-9.3 1.1-12.7-.8-.2-.1-.4-.2-.7-.3 2.4-6.3 17.7-8.7 20.5-2.1 0 .1 0 .1.1.1C391.7 218.8 391 219.4 390.8 219.6zM414.2 336.5c-9.9-11.1-40.4-8.2-37.3 11 .3 2.2 1.7 3.6 3.3 4.3.3 2.1 1.6 4 4.2 4.7 8.1 2.1 16.7 5.5 25.1 2.9C419 356.3 420.2 343.2 414.2 336.5zM406.5 348.3c-.5 1.2-3.3.9-4.3.9-4.8 0-9.8-2-14.5-3.3-.4-7.2 14.7-5.6 18.7-1.8C407.3 345 407 347.2 406.5 348.3z"/><path d="M438.3,411.2c0.9-1.6,1.1-3.6-0.2-5.6c-2.6-4.1-1.4-10.7-2.1-15.3c-1-7.3-2.1-14.5-3-21.8c-1.9-15.2-3.8-30.4-5.4-45.6c-3.3-30.7-6.3-61.4-8-92.2c-1.8-31.3-0.7-62.4-0.4-93.7c0.1-15.6-0.7-31-2.1-46.5c-0.7-7.6-1.5-15.2-2.6-22.8c-1.1-7.3-3.2-14.5-2.6-21.9c0.5-5.9-7-8.3-9.8-4.8c-5.9-2-12.9-1.5-18.9-1c-8.9,0.6-17.6,2.2-26.4,3.3c-15.2,1.8-31,1.4-46.3,1.9c-15.7,0.5-31.5,0.8-47.2,1c-31.3,0.4-62.5,0.5-93.8,1c-15.4,0.2-30.8-0.1-46.1,1.6c-14.7,1.6-29.4,4.2-44.3,3.6C73.5,52,73,59,76.6,61.9c-0.8,0.5-1.5,1.2-1.9,2.3c-0.1,0.4-0.8,1.4-1,2c-0.6,1.8-0.4,3.5,0.4,4.9c0,59.8-0.5,120,4.4,179.6c2.5,29.6,8.4,58.9,12.6,88.2c4.4,30.3,5,60.6,5,91.1c0,0.6,0.1,1.1,0.2,1.6c-0.7,0.9-1.2,2-1.2,3.4c-0.4,9.3,2.3,18,9,24.6c6.1,6,15,8.7,23.1,10.3c8.7,1.8,17.6,2.1,26.4,2.8c14.9,1.1,29.7,2.5,44.6,3.2c16,0.8,32,0.2,47.8-2.8c15.8-3,31.5-6.3,47.2-9.8c16.1-3.6,32.2-7.8,48.6-9.8c16.4-2,32.9-3.1,49.4-4.5c9-0.8,17.9-1.8,26.9-2.5c6-0.5,12.7-1.6,17.1-6.1C442,433.5,442.1,420.9,438.3,411.2z M343.3,193.5c1.8,15.5,4.8,30.7,7.7,46c1.5,7.8,2.8,15.7,4,23.5c-1.1-0.3-2.3-0.4-3.5,0c-1.7,0.5-3.2,1.4-4.6,2.6c-29.7,0.3-59.1,6.3-88.3,11c-31.7,5.1-64.1,5-96.1,5c-0.3,0-0.5,0-0.8,0.1c-4.1-32.3-9.1-64.3-11.9-96.8c-1.4-16.4-1.8-32.9-3-49.4c-0.6-7.6-1.2-15.3-1.8-22.9c40-0.2,79.6-2.8,119.5-6.2c14.3-1.2,28.7-2.2,43-4.1c9.1-1.2,18.9-2.6,27.9-5.7c1.1,0.5,2.5,0.5,3.8-0.3c0,16.8,0.1,33.7,0.8,50.5C340.4,162.3,341.5,177.9,343.3,193.5z M166.6,58c30.6-0.4,61.2-0.7,91.8-1c26.9-0.2,53.9-1,80.8-2.1c0,9.3-0.1,18.6-0.1,27.9c-10.3,5.9-23.8,7.2-35.4,8.7c-14,1.8-28.2,2.7-42.3,3.9c-39.1,3.4-78.1,5.9-117.4,6.1c-0.4-5-0.7-10-1-14.9c-0.6-9.4-0.9-18.8-0.9-28.2C150.2,58.1,158.4,58.1,166.6,58z M150.7,461.7c-0.3,0-0.6,0-0.9-0.1c0.6-3.8-2.5-8-7-6.1c-4.3,1.8-9.4-2.5-11.6-5.9c-0.3-0.4-0.6-0.8-0.9-1.1c0-0.7-0.2-1.3-0.5-2c0.1-0.1,0.3-0.1,0.4-0.2c3.4-1.5,6.9-1.9,10.7-2c3.2-0.1,6.3,0.5,8.9,1.9c0.3,0.1,0.7,0.6,0.9,1.1c-0.1-0.1,0,1.2,0.1,1c-0.1,1.1-0.5,1.9-1,2.9c-3,6.4,6.8,11.3,9.9,4.9c2.9-6.2,3-12.6-2-17.6c-4.4-4.4-11.8-5.2-17.6-5.2c-8.5,0-29.2,6.1-19.9,18.4c0.3,0.4,0.7,0.8,1.1,1.1c0,0.9,0.3,1.9,0.9,2.9c0.5,0.7,1,1.5,1.6,2.2c-4.8-1.3-9.3-3.6-12.9-7.1c-4.4-4.3-4.9-10.8-4.6-16.6c0-0.6,0-1.1-0.1-1.5c0.7-0.9,1.1-2.1,1.1-3.5v-2c0,0,0,0,0-0.1c0-29.2-0.7-58.2-4.7-87.2c-4.1-29.5-10-58.6-12.7-88.3c-3.2-35.1-4.3-70.5-4.6-105.8c1.1,2.8,2.8,5.3,5.2,7.1c9.2,7.1,25,3.4,32.4-4.7c6.9-7.5,9.9-17.9-0.9-23.6c-7.9-4.1-20-3.7-28.1-0.3c-1.7,0.7-2.7,2-3.2,3.5c-2.4,1.9-4.4,4.2-5.6,7.2c-0.1-23,0-46,0-68.9c0-1.2-0.5-2.2-1.2-3c12.9,0.1,25.7-1.9,38.5-3.5c2.9-0.3,5.8-0.6,8.7-0.8c0.1,32.4,4,64.7,5.6,97c1.6,33.2,5.7,66,10.3,98.9c8.9,63.3,15.4,127,21.1,190.6c0.4,4.9,0.9,9.8,1,14.7c0,1.3,0.4,2.3,1,3.1C163.7,462.6,157.2,462.1,150.7,461.7z M95.2,139.2c1-2.6,4.2-4.4,7-5.8c3.2-0.6,6.6-0.6,9.8-0.2c1.8,0.2,4.2,0.6,5.7,1.7c0.3,0.2,0.6,0.7,0.7,0.7c-0.1,0.5-0.5,1.4-0.9,2c-3.3,5.9-10.9,8.8-17.3,7.9C97.3,145.1,94,142.5,95.2,139.2z M335.1,443.3c-16,2.1-31.7,6.6-47.4,10.1c-16,3.6-32.1,7.1-48.4,9.8c-15.8,2.6-32.1,2.4-48,1.5c-4.5-0.3-8.9-0.6-13.3-0.9c1.3-1,2.2-2.5,2.1-4.5c-0.2-9.3-1.6-18.6-2.3-27.9c-1.1-16.4-2.8-32.7-4.6-49c-3.4-30-6.6-60-10.2-89.9c0.1,0,0.2,0,0.3,0c34.1,0,68.3-0.2,102-6c15.6-2.7,31.2-5.2,46.8-7.3c8.1-1.1,16.2-1.9,24.3-2.4c3.7-0.2,7.4-0.3,11.1-0.4c1.6,0,3.1,0,4.5-0.9c0.4-0.3,0.8-0.6,1.2-1c1.1,0,2.3-0.4,3.3-1.4c2.8,20.4,4.9,40.9,7,61.4c1.6,15.6,3.1,31.2,5.2,46.7c2,14.6,6.7,28.3,7,43.2c0.1,3.3,0.2,6.4,0.6,9.6c-0.5,1.4-0.4,3.1,0.7,4.7c0,0.1,0,0.2,0.1,0.3c0,0,0,0,0,0c0,0,0,0.1,0,0.1C363.1,440.3,349.1,441.5,335.1,443.3z M380.2,382.8c-1.9-11.2-3-22.6-4.2-33.9c-2.8-25.9-5.3-51.9-8.9-77.8c0.8,0.6,1.7,0.9,2.7,1.1c0.2,0.3,0.5,0.6,0.8,1c14.5,13.3,46.3-2.1,34.2-22.3c-4.9-8.1-16.9-7.1-24.4-4.3c-6.3,2.3-12.7,7.1-15,13.5c-0.3-2.1-0.6-4.2-1-6.3c-2.5-15.5-6.1-30.8-8.4-46.3c-2.3-15.4-3.7-31-4.7-46.5c-1.9-31.3-1.6-62.6-1.4-93.9c0-4.2,0-8.3,0-12.5c8.9-0.5,17.7-1.9,26.5-2.9c4.9-0.6,9.8-1,14.7-1c2.5,0,7,0,8.6,1.3c0.4,0.3,0.8,0.6,1.3,0.7c0.3,4.1,1,8.2,1.8,12.3c1.4,7.5,2.1,15,2.9,22.6c1.6,16.1,2.5,32.2,2.4,48.3c-0.1,32-1.4,63.7,0.4,95.6c1.2,20.8,2.9,41.5,4.9,62.3c-4.5-4.7-12.7-5.9-18.8-6.2c-8.4-0.4-19.4,2.2-21.9,11.4c-0.4,1.6-0.2,2.9,0.5,4c-1,2.4-0.5,5.4,2.4,7c7.3,4,16.5,5.8,24.7,5.7c5.7,0,11.6-2.7,14.5-7.1c0.6,5.7,1.2,11.3,1.8,17c1.7,15.8,3.8,31.6,5.7,47.4c0.3,2.3,0.6,4.7,1,7c-2.7-2.7-6.3-4.5-10.2-5.8c-8.4-2.7-20.3,0.2-27.8,4.3C383.3,379.7,381.5,381.2,380.2,382.8z M376.1,263.7c2.2-6.5,14.9-11.2,19.7-6.8c3.6,3.2-1.9,7.8-4.5,8.9c-4,1.7-9.9,2.3-13.4-0.9C377.4,264.3,376.8,263.9,376.1,263.7z M405.9,302.3c0.1,5.2-15.3,1.3-22.2-1.1c0-0.1,0-0.1,0.1-0.2c0.6-2.1,9.1-2.6,11.9-2.6C399,298.5,405.9,299.8,405.9,302.3z M413.2,395.2c-6,2.5-14.6,1.6-20.4-1.1c-0.3-0.1-0.6-0.3-0.9-0.3c-0.2-0.3-0.5-0.6-0.9-0.9c-1.1-0.9-2.4-3.2-2.9-2.5c0.6-1.1,2.4-2.2,4-2.9c5-2.2,11.1-3.5,16.5-3c2.8,0.3,5.6,1,7.7,3.7C418.4,391.1,415.8,394.1,413.2,395.2z M423.8,434.6c-4.3,1.4-9.2,1.2-13.6,1.6c-7.4,0.7-14.7,1.4-22.1,2.1c0,0,0,0,0,0c0-1.2-0.3-2.3-0.7-3.3c-1-5.9-0.7-12.1-1-18c-0.2-5.2-1.2-10.4-2.4-15.6c0.6,0.4,1.1,0.7,1.7,0.8c0.5,0.7,1.2,1.3,2.1,1.7c9.9,4.6,24.4,5.5,33.6-0.9c1.7-1.2,3.2-2.8,4.2-4.7c0.1,1.4,0.2,2.9,0.4,4.3c-1.9,2.1-2.5,5.5-0.2,8.1c3.1,3.4,3.4,9.5,3.5,13.9C429.6,429.4,428.5,433,423.8,434.6z"/><path d="M362.8,109.5c-0.9,0.3-1.6,0.6-2.1,1.1c-3.7,0.7-6.7,4.5-3.6,8.1c2.8,3.3,0.8,9.1,2.6,13.1c2.4,5.4,7.8,7.2,13.3,7.1c8.8-0.3,21.8-6.7,22.8-16.4C397.6,106.7,373,106.5,362.8,109.5z M382.2,124.2c-2.9,2.1-6.5,3.4-10,3.7c-3.3,0.3-2.8-2.5-2.8-5c0-1.2-0.1-2.3-0.2-3.5c2.3-0.3,4.7-0.3,7.1-0.3c2.1,0,4.1,0.3,6.1,0.8c1.5,0.3,2.7,1.2,2.7,1.3C385.2,121.9,383.5,123.3,382.2,124.2z"/></svg>