<svg xmlns="http://www.w3.org/2000/svg" width="48" height="48" viewBox="0 0 48 48"><path fill="#373837" d="M23.531,3.532c-4.145,0.248-7.63,1.806-11,4.231c-0.847,0.609-1.828,1.371-2.61,2.061	c-2.249,1.983-3.845,4.078-4.982,6.853c-1.233,3.01-1.604,6.805-0.869,9.973s1.384,5.357,3.033,8.16	c0.302,0.514,1.387,2.071,1.85,2.447c0.303,0.245,0.875,1.163,1.173,1.413c0.524,0.441,1.412,1.439,1.947,1.867	c1.411,1.127,2.607,1.411,4.673,2.014c0.744,0.217,1.671,0.447,2.421,0.644c2.114,0.555,4.074,0.853,6.254,0.697	c2.088-0.15,3.773-0.501,5.739-1.219c0.958-0.35,2.632-0.806,3.52-1.307c1.072-0.605,2.212-1.59,3.096-2.447	c3.368-3.266,5.647-7.028,6.405-11.658c0.745-4.556-0.05-9.955-2.688-13.834c-1.32-1.941-2.138-3.048-3.88-4.62	c-0.649-0.586-1.726-1.539-2.491-1.964c-0.803-0.446-2.349-1.317-3.218-1.614C28.687,4.132,26.425,3.359,23.531,3.532z"/><path fill="#d6e5e5" d="M21.206,6.333c-2.348,0.999-4.241,3.316-4.615,5.841c-0.108,0.732-0.129,1.482-0.008,2.212	c0.387,2.348,2.229,4.278,4.398,5.257c1.725,0.778,3.715,1.032,5.54,0.532c1.826-0.5,3.456-1.793,4.201-3.532	c1.862,0.445,3.719,0.989,5.393,1.918c1.674,0.928,3.166,2.272,3.994,3.998c0.55,1.145,1.051,2.321,1.268,3.573	c0.325,1.876,0.176,3.742-0.888,5.59c0.352-2.351-0.109-4.873-1.536-6.775s-3.877-3.078-6.225-2.707	c-1.066,0.168-2.067,0.632-2.977,1.213c-0.798,0.51-1.542,1.117-2.14,1.852c-1.89,2.32-2.046,5.892-0.365,8.368	c-0.866,1.059-1.748,2.134-2.876,2.909c-1.108,0.761-2.32,1.472-3.624,1.795c-2.178,0.539-3.767,0.912-6.052,0.242	c-2.153-0.631-4.742-3.221-5.346-5.207c1.338,1.338,2.586,2.155,3.929,2.634c1.342,0.479,3.149,0.18,4.49-0.302	c0.839-0.302,1.703-1.098,2.229-1.818c0.998-1.366,1.332-2.422,1.611-4.139c0.249-1.534,0.315-3.175-0.365-4.572	c-0.623-1.28-1.823-2.215-3.143-2.75c-1.32-0.534-2.759-0.703-4.182-0.757c-0.723-3.568-1.403-7.471,0.297-10.69	C15.575,8.446,18.33,6.771,21.206,6.333z"/><path fill="#010101" d="M44.316,18.683c-1.012-4.066-3.475-7.667-6.58-10.437c-1.445-1.29-2.995-2.271-4.746-3.098	c-0.946-0.447-1.956-0.751-2.95-1.07c-1.107-0.355-2.227-0.679-3.375-0.868c-1.038-0.172-2.082-0.232-3.133-0.177	c-4.621,0.303-8.685,2.299-12.311,5.089c-3.515,2.705-6.323,6.13-7.445,10.496c-1.144,4.453-0.38,9.07,1.329,13.28	c0.706,1.738,1.603,3.377,2.751,4.862c0.97,1.255,2.072,2.399,3.199,3.514c1.354,1.34,2.95,1.999,4.753,2.525	c2.3,0.67,4.641,1.36,7.036,1.571c2.393,0.211,4.878-0.101,7.176-0.789c0.998-0.299,1.983-0.658,2.97-0.991	c1.001-0.338,1.934-0.726,2.8-1.34c3.43-2.429,6.278-6.038,7.809-9.949C45.153,27.325,45.344,22.813,44.316,18.683z M43.532,28.023	c-0.844,3.995-3.01,7.476-5.891,10.328c-0.761,0.754-1.563,1.482-2.444,2.095c-0.828,0.576-1.709,0.925-2.661,1.241	c-2.012,0.669-3.98,1.373-6.101,1.612c-2.433,0.274-4.77,0.023-7.135-0.586c-1.858-0.479-3.896-0.859-5.619-1.731	c-0.78-0.395-1.43-0.923-2.045-1.538c-0.544-0.545-1.147-1.054-1.613-1.668C9.175,36.656,8.2,35.685,7.478,34.46	c-1.05-1.782-1.812-3.686-2.36-5.677c-0.594-2.157-1.019-4.285-0.897-6.533c0.231-4.285,2.094-8.243,5.15-11.234	c3.022-2.957,6.863-5.491,11.002-6.506c1.038-0.255,2.092-0.407,3.158-0.477c2.12-0.111,4.13,0.335,6.138,0.976	c1.001,0.32,2.025,0.619,2.972,1.078c0.756,0.366,1.501,0.768,2.229,1.189c1.599,0.924,3.073,2.395,4.265,3.791	c1.235,1.447,2.369,3.085,3.163,4.817C44.004,19.604,44.374,24.034,43.532,28.023z M40.057,21.447	C38,18.313,34.337,17,30.856,16.161c-0.196-0.047-0.474,0.027-0.565,0.23c-1.588,3.54-5.944,4.302-9.224,2.744	c-1.464-0.695-2.753-1.826-3.487-3.285c-0.815-1.621-0.742-3.62-0.008-5.259c0.76-1.699,2.153-3.046,3.844-3.804	c0.084-0.028,0.148-0.071,0.192-0.128c0.011-0.012,0.022-0.023,0.031-0.035c0.008-0.013,0.015-0.027,0.021-0.041	c0.088-0.154,0.055-0.343-0.057-0.493c-0.004-0.006-0.009-0.01-0.013-0.016c-0.027-0.033-0.054-0.066-0.087-0.093	c-0.039-0.035-0.084-0.061-0.133-0.083c-0.004-0.002-0.008-0.004-0.013-0.006c-0.057-0.024-0.119-0.035-0.187-0.036	c-0.002,0-0.003,0-0.005,0c-0.031,0-0.059-0.009-0.092-0.003c-3.155,0.51-6.172,2.411-7.517,5.384	c-1.515,3.349-0.818,7.146-0.119,10.606c0.044,0.22,0.273,0.358,0.482,0.367c1.877,0.079,3.842,0.353,5.396,1.497	c1.575,1.159,2.073,2.921,1.945,4.81c-0.115,1.695-0.499,3.4-1.458,4.823c-0.514,0.763-1.203,1.5-2.058,1.876	c-0.805,0.354-1.755,0.534-2.63,0.569c-2.139,0.083-3.958-1.292-5.411-2.724c-0.344-0.339-0.994,0-0.836,0.487	c0.528,1.628,1.753,3.031,3.069,4.085c1.462,1.172,3.14,1.818,5.028,1.847c1.937,0.03,4.101-0.482,5.825-1.353	c1.966-0.994,3.429-2.409,4.811-4.098c0.136-0.166,0.208-0.409,0.078-0.606c-1.966-2.989-1.163-6.947,1.657-9.074	c1.488-1.122,3.312-1.931,5.206-1.594c1.703,0.302,3.256,1.344,4.215,2.779c1.18,1.766,1.54,3.975,1.25,6.058	c-0.072,0.518,0.613,0.925,0.914,0.385C42.767,28.659,42.087,24.541,40.057,21.447z M35.444,21.936	c-3.956-1.145-8.53,1.874-9.581,5.739c-0.542,1.991-0.271,4.165,0.775,5.942c-1.157,1.377-2.364,2.558-3.971,3.443	c-1.564,0.861-3.515,1.353-5.3,1.414c-1.745,0.06-3.358-0.469-4.721-1.55c-0.488-0.387-0.97-0.832-1.405-1.32	c0.967,0.625,2.028,1.084,3.168,1.169c2.044,0.153,4.212-0.507,5.59-2.056c1.347-1.513,1.914-3.378,2.173-5.35	c0.277-2.11,0.027-4.278-1.543-5.846c-1.667-1.664-4.021-2.151-6.295-2.286c-0.618-3.076-1.23-6.487,0.071-9.458	c0.779-1.78,2.198-3.111,3.883-3.967c-1.94,2.045-2.914,5.027-1.908,7.763c1.404,3.821,5.949,6.008,9.852,5.188	c2.002-0.421,3.8-1.718,4.75-3.535c3.036,0.758,6.245,1.891,8.103,4.564c1.374,1.977,2.138,4.496,1.86,6.881	C40.459,25.616,38.64,22.861,35.444,21.936z"/></svg>