<svg xmlns="http://www.w3.org/2000/svg"  viewBox="0 0 100 100" width="100px" height="100px"><path fill="#a3a3cd" d="M69,82H31c-7.18,0-13-5.82-13-13V31c0-7.18,5.82-13,13-13h38c7.18,0,13,5.82,13,13v38	C82,76.18,76.18,82,69,82z"/><path fill="#1f212b" d="M30,17c-7.168,0-13,5.832-13,13v39c0,7.168,5.832,13,13,13h39c7.168,0,13-5.832,13-13V30	c0-7.168-5.832-13-13-13H30z M30,19h39c6.065,0,11,4.935,11,11v39c0,6.065-4.935,11-11,11H30c-6.065,0-11-4.935-11-11V30	C19,23.935,23.935,19,30,19z"/><path fill="#fff" d="M50,50.5c-2.481,0-4.5-2.019-4.5-4.5s2.019-4.5,4.5-4.5s4.5,2.019,4.5,4.5S52.481,50.5,50,50.5z"/><path fill="#1f212b" d="M50,42c2.206,0,4,1.794,4,4s-1.794,4-4,4s-4-1.794-4-4S47.794,42,50,42 M50,41c-2.761,0-5,2.239-5,5	s2.239,5,5,5s5-2.239,5-5S52.761,41,50,41L50,41z"/><path fill="#fff" d="M49.726,71.5c-1.828,0-3.361-1.429-3.491-3.252l-0.736-10.351L45.5,57c0-2.481,2.019-4.5,4.5-4.5	s4.5,2.019,4.5,4.5v0.933l-0.734,10.315c-0.13,1.823-1.664,3.252-3.491,3.252H49.726z"/><path fill="#1f212b" d="M50,53c2.206,0,4,1.794,4,4v0.898l-0.733,10.315C53.156,69.776,51.841,71,50.274,71h-0.549 c-1.567,0-2.881-1.224-2.992-2.787L46,57.898V57C46,54.794,47.794,53,50,53 M50,52L50,52c-2.761,0-5,2.239-5,5v0.933l0.736,10.351 C45.885,70.377,47.627,72,49.726,72h0.549c2.099,0,3.841-1.623,3.99-3.716L55,57.933V57C55,54.239,52.761,52,50,52L50,52z"/><path fill="#fff" d="M57.418,59.161c0.005-0.278,0.08-1.111,0.08-1.113L57.5,57c0-0.438-0.042-0.886-0.125-1.333	c-0.021-0.112,0.01-0.217,0.088-0.296C59.421,53.39,60.5,50.771,60.5,48c0-5.79-4.71-10.5-10.499-10.5	c-0.391,0-0.787,0.021-1.187,0.065c-4.336,0.476-8.546,4.514-9.193,8.818c-0.483,3.216,0.504,6.412,2.708,8.771	c0.203,0.217,0.298,0.48,0.26,0.723C42.53,56.256,42.5,56.633,42.5,57l0.005,1.077c0,0.02,0.033,0.767,0.052,1.017	c0.005,0.066,0.004,0.116,0.001,0.152c-0.022-0.009-0.046-0.021-0.066-0.035c-4.34-2.91-6.583-7.953-5.855-13.16	c0.833-5.958,5.785-10.777,11.775-11.46C48.94,34.53,49.474,34.5,50,34.5c7.444,0,13.5,6.056,13.5,13.5	c0,4.542-2.27,8.753-6.071,11.265L57.418,59.161z"/><path fill="#1f212b" d="M50,35c7.168,0,13,5.832,13,13c0,4.033-1.858,7.794-5.018,10.252c0.005-0.058,0.01-0.112,0.014-0.16 L58,58.048v-0.044V57c0-0.44-0.04-0.891-0.119-1.342C59.893,53.591,61,50.875,61,48c0-6.065-4.935-11-11-11 c-0.411,0-0.828,0.023-1.24,0.068c-4.544,0.498-8.955,4.73-9.633,9.241c-0.506,3.368,0.528,6.716,2.837,9.187 c0.094,0.101,0.145,0.217,0.131,0.304C42.032,56.202,42,56.606,42,57.005l0.006,1.113c0,0,0.002,0.051,0.006,0.13 c-3.679-2.862-5.538-7.425-4.88-12.128c0.802-5.736,5.57-10.376,11.336-11.033C48.978,35.029,49.493,35,50,35 M50,34 c-0.542,0-1.09,0.031-1.645,0.094c-6.243,0.711-11.343,5.665-12.214,11.888c-0.793,5.667,1.814,10.789,6.071,13.645 c0.115,0.077,0.271,0.137,0.419,0.137c0.246,0,0.467-0.168,0.424-0.709c-0.019-0.244-0.051-0.98-0.051-0.98L43,57 c0-0.356,0.03-0.704,0.083-1.044c0.066-0.419-0.098-0.832-0.388-1.142c-1.989-2.128-3.065-5.117-2.579-8.356 c0.608-4.05,4.681-7.949,8.753-8.395C49.25,38.02,49.628,38,50,38c5.523,0,10,4.477,10,10c0,2.739-1.108,5.214-2.893,7.019 c-0.194,0.196-0.275,0.468-0.224,0.74C56.958,56.162,57,56.576,57,57v1.004c0,0-0.076,0.86-0.082,1.147 c-0.008,0.403,0.275,0.602,0.536,0.602c0.091,0,0.179-0.024,0.251-0.072C61.496,57.177,64,52.883,64,48C64,40.268,57.732,34,50,34 L50,34z"/><path fill="#1f212b" d="M32.838,22C26.862,22,22,26.862,22,32.838v33.326C22,72.14,26.862,77,32.838,77h33.324	C72.138,77,77,72.139,77,66.164V47.502c0-0.276-0.224-0.5-0.5-0.5s-0.5,0.224-0.5,0.5v18.662C76,71.588,71.586,76,66.162,76H32.838	C27.414,76,23,71.588,23,66.164V32.838C23,27.414,27.414,23,32.838,23H66.5c0.276,0,0.5-0.224,0.5-0.5c0-0.276-0.224-0.5-0.5-0.5	H32.838z M76.5,37.002c-0.276,0-0.5,0.224-0.5,0.5v2c0,0.276,0.224,0.5,0.5,0.5s0.5-0.224,0.5-0.5v-2	C77,37.226,76.776,37.002,76.5,37.002z M76.5,41.002c-0.276,0-0.5,0.224-0.5,0.5v4c0,0.276,0.224,0.5,0.5,0.5s0.5-0.224,0.5-0.5v-4	C77,41.226,76.776,41.002,76.5,41.002z"/><path fill="#fff" d="M57.059,64.223c0.01-0.132,0.092-0.246,0.22-0.305C63.488,61.073,67.5,54.825,67.5,48	c0-9.649-7.851-17.5-17.5-17.5c-0.317,0-0.637,0.008-0.958,0.025c-8.597,0.459-15.676,7.258-16.465,15.813	c-0.685,7.425,3.394,14.49,10.15,17.582c0.123,0.056,0.205,0.169,0.214,0.296l0.221,3.113c-8.346-2.952-13.833-10.881-13.657-19.745	c0.21-10.687,8.728-19.497,19.391-20.057c0.37-0.02,0.738-0.028,1.104-0.028C61.303,27.5,70.5,36.696,70.5,48	c0,8.691-5.508,16.466-13.707,19.346L57.059,64.223z"/><path fill="#1f212b" d="M50,28c11.028,0,20,8.972,20,20c0,8.207-5.034,15.575-12.608,18.588l0.16-2.245 C63.901,61.404,68,54.997,68,48c0-9.925-8.075-18-18-18c-0.326,0-0.655,0.009-0.985,0.026c-8.843,0.472-16.124,7.465-16.936,16.267 c-0.702,7.61,3.463,14.853,10.369,18.049l0.16,2.245c-7.736-3.072-12.769-10.603-12.604-18.993 c0.206-10.426,8.515-19.021,18.917-19.567C49.283,28.009,49.642,28,50,28 M50,27c-0.376,0-0.752,0.01-1.132,0.03 c-10.865,0.57-19.65,9.668-19.864,20.546c-0.184,9.343,5.735,17.328,14.04,20.243c0.051,0.018,0.101,0.026,0.151,0.026 c0.26,0,0.488-0.227,0.469-0.507l-0.224-3.156c-0.022-0.314-0.218-0.585-0.505-0.716c-6.316-2.89-10.556-9.535-9.86-17.08 c0.765-8.293,7.678-14.917,15.994-15.36C49.38,31.008,49.692,31,50,31c9.389,0,17,7.611,17,17c0,6.865-4.07,12.78-9.929,15.463 c-0.29,0.133-0.488,0.406-0.511,0.724l-0.224,3.147c-0.02,0.281,0.209,0.509,0.471,0.509c0.05,0,0.101-0.008,0.152-0.026 C65.136,64.946,71,57.158,71,48C71,36.403,61.597,27,50,27L50,27z"/></svg>