<svg xmlns="http://www.w3.org/2000/svg" width="48" height="48" viewBox="0 0 48 48"><path fill="#b0bec5" d="M35,5H7C4.789,5,3,6.789,3,9v17c0,2.207,1.789,4,4,4h28c2.211,0,4-1.793,4-4V9	C39,6.789,37.211,5,35,5z"/><path fill="#607d8b" d="M4.09,6.273C3.629,6.766,3.293,7.371,3.129,8.047L21,21L38.871,8.047	c-0.164-0.676-0.5-1.281-0.961-1.773L21,18.531L4.09,6.273z"/><path fill="#cfd8dc" d="M41,16H13c-2.211,0-4,1.789-4,4v17c0,2.207,1.789,4,4,4h28c2.211,0,4-1.793,4-4V20	C45,17.789,43.211,16,41,16z"/><path fill="#78909c" d="M10.09,17.273c-0.461,0.492-0.797,1.098-0.961,1.773L27,32l17.871-12.953	c-0.164-0.676-0.5-1.281-0.961-1.773L27,29.531L10.09,17.273z"/><path fill="#43a047" d="M48,38c0,5.5-4.5,10-10,10s-10-4.5-10-10s4.5-10,10-10S48,32.5,48,38"/><path fill="#fff" d="M44,36h-4v-4h-4v4h-4v4h4v4h4v-4h4V36z"/></svg>