<svg xmlns="http://www.w3.org/2000/svg" width="116" height="76" fill="none" viewBox="0 0 116 76"><path fill="#29AB70" d="M115.35 0.52002H90.5195V15.01H115.35V0.52002Z"/><path fill="url(#paint0_linear)" d="M115.35 20.7H90.5195V35.19H115.35V20.7Z"/><path fill="url(#paint1_linear)" d="M115.35 40.87H90.5195V55.36H115.35V40.87Z"/><path fill="url(#paint2_linear)" d="M25.3398 61.05H0.509766V75.54H25.3398V61.05Z"/><path fill="url(#paint3_linear)" d="M55.3398 61.05H30.5098V75.54H55.3398V61.05Z"/><path fill="url(#paint4_linear)" d="M85.3495 61.05H60.5195V75.54H85.3495V61.05Z"/><path fill="url(#paint5_linear)" d="M115.35 61.05H90.5195V75.54H115.35V61.05Z"/><path fill="url(#paint6_linear)" d="M85.3495 40.87H60.5195V55.36H85.3495V40.87Z"/><path fill="url(#paint7_linear)" d="M55.3398 40.87H30.5098V55.36H55.3398V40.87Z"/><path fill="url(#paint8_linear)" d="M55.3398 20.7H30.5098V35.19H55.3398V20.7Z"/><defs><linearGradient id="paint0_linear" x1="104.55" x2="101.32" y1="37.09" y2="18.79" gradientUnits="userSpaceOnUse"><stop stop-color="#2C8C9D"/><stop offset=".04" stop-color="#298E9A"/><stop offset=".39" stop-color="#129C83"/><stop offset=".72" stop-color="#05A475"/><stop offset="1" stop-color="#00A770"/></linearGradient><linearGradient id="paint1_linear" x1="90.15" x2="115.72" y1="54.63" y2="41.6" gradientUnits="userSpaceOnUse"><stop stop-color="#2839BA"/><stop offset="1" stop-color="#148CB3"/></linearGradient><linearGradient id="paint2_linear" x1=".51" x2="25.34" y1="68.29" y2="68.29" gradientUnits="userSpaceOnUse"><stop stop-color="#F6A500"/><stop offset="1" stop-color="#F29100"/></linearGradient><linearGradient id="paint3_linear" x1="30.51" x2="55.34" y1="68.29" y2="68.29" gradientUnits="userSpaceOnUse"><stop stop-color="#F29100"/><stop offset="1" stop-color="#D12F5F"/></linearGradient><linearGradient id="paint4_linear" x1="60.52" x2="85.35" y1="68.29" y2="68.29" gradientUnits="userSpaceOnUse"><stop stop-color="#B4197C"/><stop offset="1" stop-color="#472EAD"/></linearGradient><linearGradient id="paint5_linear" x1="90.519" x2="115.35" y1="68.29" y2="68.29" gradientUnits="userSpaceOnUse"><stop stop-color="#2839BA"/><stop offset="1" stop-color="#3072B7"/></linearGradient><linearGradient id="paint6_linear" x1="59.539" x2="86.32" y1="52.03" y2="44.2" gradientUnits="userSpaceOnUse"><stop stop-color="#B4197C"/><stop offset="1" stop-color="#373AAC"/></linearGradient><linearGradient id="paint7_linear" x1="29.64" x2="56.22" y1="43.28" y2="52.95" gradientUnits="userSpaceOnUse"><stop stop-color="#FFCB00"/><stop offset="1" stop-color="#D12F5F"/></linearGradient><linearGradient id="paint8_linear" x1="32.61" x2="53.24" y1="18.42" y2="37.46" gradientUnits="userSpaceOnUse"><stop stop-color="#FFCF00"/><stop offset="1" stop-color="#ED743B"/></linearGradient></defs></svg>