<?xml version="1.0" standalone="no"?>
<!DOCTYPE svg PUBLIC "-//W3C//DTD SVG 20010904//EN"
 "http://www.w3.org/TR/2001/REC-SVG-20010904/DTD/svg10.dtd">
<svg version="1.0" xmlns="http://www.w3.org/2000/svg"
 width="48.000000pt" height="48.000000pt" viewBox="0 0 48.000000 48.000000"
 preserveAspectRatio="xMidYMid meet">

<g transform="translate(0.000000,48.000000) scale(0.100000,-0.100000)"
fill="#000000" stroke="none">
<path d="M155 421 c-86 -40 -125 -110 -125 -226 0 -62 3 -75 16 -75 9 0 24
-10 34 -22 15 -19 22 -21 37 -12 15 9 24 7 46 -12 16 -13 39 -27 52 -30 34 -8
69 2 102 30 22 19 31 21 46 12 15 -9 22 -7 37 12 10 12 25 22 34 22 24 0 22
141 -3 195 -49 106 -173 154 -276 106z m152 -26 c50 -21 72 -42 94 -90 21 -45
26 -155 8 -155 -7 0 -18 -8 -25 -17 -20 -29 -25 -11 -12 50 9 43 9 60 0 69 -8
8 -15 8 -27 -2 -13 -11 -15 -8 -15 24 0 43 -15 46 -50 9 l-25 -26 -3 36 c-2
21 -7 37 -11 37 -4 0 -27 -18 -50 -40 -23 -22 -53 -43 -66 -46 -28 -7 -30 -20
-14 -77 12 -44 4 -61 -15 -34 -7 9 -18 17 -25 17 -17 0 -14 104 4 147 21 50
42 72 90 94 49 23 94 24 142 4z m-76 -175 c6 0 23 7 39 15 28 15 30 14 30 -5
0 -15 7 -20 26 -20 22 0 24 -3 19 -22 -16 -53 -40 -90 -66 -103 -41 -22 -64
-18 -96 14 -32 32 -62 113 -45 119 6 2 26 13 44 26 l33 22 3 -23 c2 -13 8 -23
13 -23z"/>
<path d="M168 184 c6 -3 12 -12 12 -21 0 -8 6 -13 13 -11 22 8 13 33 -13 35
-14 1 -19 0 -12 -3z"/>
<path d="M275 180 c-7 -12 2 -30 16 -30 5 0 9 6 9 14 0 8 6 17 13 19 6 3 2 6
-10 6 -12 1 -25 -3 -28 -9z"/>
</g>
</svg>
