<?xml version="1.0" standalone="no"?>
<!DOCTYPE svg PUBLIC "-//W3C//DTD SVG 20010904//EN"
 "http://www.w3.org/TR/2001/REC-SVG-20010904/DTD/svg10.dtd">
<svg version="1.0" xmlns="http://www.w3.org/2000/svg"
 width="48.000000pt" height="48.000000pt" viewBox="0 0 48.000000 48.000000"
 preserveAspectRatio="xMidYMid meet">

<g transform="translate(0.000000,48.000000) scale(0.100000,-0.100000)"
fill="#000000" stroke="none">
<path d="M90 392 c0 -10 -9 -25 -20 -35 -30 -25 -30 -209 0 -234 11 -10 20
-25 20 -35 0 -10 7 -18 15 -18 8 0 15 9 15 20 0 13 7 20 20 20 13 0 20 -7 20
-20 0 -11 7 -20 15 -20 8 0 15 9 15 20 0 13 7 20 20 20 13 0 20 -7 20 -20 0
-11 7 -20 15 -20 8 0 15 9 15 20 0 13 7 20 20 20 13 0 20 -7 20 -20 0 -11 7
-20 15 -20 8 0 15 9 15 20 0 13 7 20 20 20 13 0 20 -7 20 -20 0 -11 7 -20 15
-20 9 0 15 9 15 21 0 11 7 27 15 35 21 22 21 206 0 228 -8 8 -15 24 -15 35 0
12 -6 21 -15 21 -8 0 -15 -9 -15 -20 0 -13 -7 -20 -20 -20 -13 0 -20 7 -20 20
0 11 -7 20 -15 20 -8 0 -15 -9 -15 -20 0 -13 -7 -20 -20 -20 -13 0 -20 7 -20
20 0 11 -7 20 -15 20 -8 0 -15 -9 -15 -20 0 -13 -7 -20 -20 -20 -13 0 -20 7
-20 20 0 11 -7 20 -15 20 -8 0 -15 -9 -15 -20 0 -13 -7 -20 -20 -20 -13 0 -20
7 -20 20 0 11 -7 20 -15 20 -8 0 -15 -8 -15 -18z m310 -152 l0 -100 -160 0
-160 0 0 100 0 100 160 0 160 0 0 -100z"/>
<path d="M110 295 c0 -8 7 -15 15 -15 8 0 15 7 15 15 0 8 -7 15 -15 15 -8 0
-15 -7 -15 -15z"/>
</g>
</svg>
