<?xml version="1.0" standalone="no"?>
<!DOCTYPE svg PUBLIC "-//W3C//DTD SVG 20010904//EN"
 "http://www.w3.org/TR/2001/REC-SVG-20010904/DTD/svg10.dtd">
<svg version="1.0" xmlns="http://www.w3.org/2000/svg"
 width="32.000000pt" height="32.000000pt" viewBox="0 0 32.000000 32.000000"
 preserveAspectRatio="xMidYMid meet">

<g transform="translate(0.000000,32.000000) scale(0.100000,-0.100000)"
fill="#000000" stroke="none">
<path d="M64 267 c-2 -7 -3 -60 -2 -118 l3 -104 98 -3 c62 -2 97 1 97 8 0 6
-35 10 -90 10 -53 0 -90 4 -90 10 0 6 37 10 90 10 l90 0 0 100 0 100 -95 0
c-70 0 -97 -4 -101 -13z m176 -87 l0 -80 -80 0 -80 0 0 80 0 80 80 0 80 0 0
-80z"/>
<path d="M150 220 c0 -5 -7 -10 -16 -10 -10 0 -14 -6 -11 -14 3 -7 0 -19 -6
-25 -8 -8 -8 -11 1 -11 7 0 12 -6 12 -13 0 -8 12 -14 30 -14 18 0 30 6 30 14
0 7 5 13 12 13 9 0 9 3 1 11 -6 6 -9 18 -6 25 3 8 -1 14 -11 14 -9 0 -16 5
-16 10 0 6 -4 10 -10 10 -5 0 -10 -4 -10 -10z"/>
</g>
</svg>
