<?xml version="1.0" standalone="no"?>
<!DOCTYPE svg PUBLIC "-//W3C//DTD SVG 20010904//EN"
 "http://www.w3.org/TR/2001/REC-SVG-20010904/DTD/svg10.dtd">
<svg version="1.0" xmlns="http://www.w3.org/2000/svg"
 width="48.000000pt" height="48.000000pt" viewBox="0 0 48.000000 48.000000"
 preserveAspectRatio="xMidYMid meet">

<g transform="translate(0.000000,48.000000) scale(0.100000,-0.100000)"
fill="#000000" stroke="none">
<path d="M89 423 c-15 -17 -26 -263 -15 -309 6 -24 7 -24 151 -24 90 0 145 -4
145 -10 0 -6 -55 -10 -145 -10 -122 0 -145 -2 -145 -15 0 -24 292 -22 311 2
11 12 14 56 14 183 0 127 -3 171 -14 183 -20 25 -282 25 -302 0z m281 -158 l0
-145 -130 0 -130 0 0 145 0 145 130 0 130 0 0 -145z"/>
<path d="M227 326 c-4 -9 -14 -12 -28 -9 -18 5 -21 3 -16 -12 5 -11 1 -22 -10
-31 -17 -12 -17 -13 0 -19 12 -5 16 -13 11 -28 -5 -17 -3 -19 15 -14 13 3 25
-1 31 -11 9 -16 11 -16 20 0 6 10 18 14 31 11 18 -5 20 -3 15 14 -5 15 -1 23
11 28 17 6 17 7 0 19 -11 9 -15 20 -10 31 5 15 2 17 -16 12 -14 -3 -24 0 -28
9 -3 8 -9 14 -13 14 -4 0 -10 -6 -13 -14z"/>
</g>
</svg>
