<?xml version="1.0" standalone="no"?>
<!DOCTYPE svg PUBLIC "-//W3C//DTD SVG 20010904//EN"
 "http://www.w3.org/TR/2001/REC-SVG-20010904/DTD/svg10.dtd">
<svg version="1.0" xmlns="http://www.w3.org/2000/svg"
 width="48.000000pt" height="48.000000pt" viewBox="0 0 48.000000 48.000000"
 preserveAspectRatio="xMidYMid meet">

<g transform="translate(0.000000,48.000000) scale(0.100000,-0.100000)"
fill="#000000" stroke="none">
<path d="M175 416 c-57 -26 -95 -85 -95 -147 0 -19 -5 -29 -15 -29 -12 0 -15
-15 -15 -78 0 -113 -1 -112 192 -112 189 0 188 -1 188 113 0 59 -3 77 -14 77
-9 0 -15 16 -19 46 -9 79 -65 134 -144 141 -28 2 -61 -2 -78 -11z m141 -41
c28 -18 54 -71 54 -110 0 -23 -4 -25 -44 -25 -40 0 -43 2 -39 23 5 27 -19 57
-47 57 -28 0 -52 -30 -47 -57 4 -21 1 -23 -41 -23 l-45 0 6 40 c3 23 13 52 22
66 34 53 124 67 181 29z m-66 -105 c0 -5 -4 -10 -10 -10 -5 0 -10 5 -10 10 0
6 5 10 10 10 6 0 10 -4 10 -10z m148 -122 l-3 -63 -155 0 -155 0 -3 63 -3 62
161 0 161 0 -3 -62z"/>
<path d="M165 345 c-22 -21 -34 -55 -20 -55 3 0 21 16 40 35 19 19 35 37 35
40 0 14 -34 2 -55 -20z"/>
</g>
</svg>
