<svg xmlns="http://www.w3.org/2000/svg" xmlns:xlink="http://www.w3.org/1999/xlink" version="1.1" viewBox="0 0 128 128"><metadata/><g><g style="fill:maroon;stroke-linecap:round;stroke-linejoin:round;stroke-width:1.6;stroke:#fff"><path d="m448 669c-80.6-57-80.6-57-80.6-200 34.6 0 46.1 0 80.6-28.5m0 228c80.6-57 80.6-57 80.6-200-34.6 0-46.1 0-80.6-28.5" transform="matrix(-.695 0 0 .561 375 -247)" style="fill:maroon;stroke-linecap:round;stroke-linejoin:round;stroke-width:1.6;stroke:#fff"/></g></g><g transform="translate(-17.9 -17.3)"><ellipse cx="102" cy="81.3" rx="12" ry="12" transform="matrix(1.33 0 0 1.33 -42.3 -31.1)" style="fill:none;stroke-width:6;stroke:#fff"/><g style="fill:#fff;stroke-width:2;stroke:#fff"><path d="m81.7 81.5c0 11-4.99 16-16 16s-16-5.01-16-16v-24h7.99v24c0 7.01 0.998 8.01 7.99 8.01 6.99 0 7.99-1 7.99-8.01v-24h7.99z" transform="scale(1 .998)" style="fill:#fff;stroke-width:0"/></g></g></svg>