<svg xmlns="http://www.w3.org/2000/svg"  viewBox="0 0 100 100" width="100px" height="100px"><path fill="#fefdef" d="M88,34v32c0,5.52-4.48,10-10,10H22c-5.52,0-10-4.48-10-10V34c0-3.49,1.79-6.56,4.5-8.35 C18.08,24.61,19.97,24,22,24h56c2.03,0,3.92,0.61,5.5,1.65C86.21,27.44,88,30.51,88,34z"/><path fill="#1f212b" d="M78,77H22c-6.065,0-11-4.935-11-11V34c0-6.065,4.935-11,11-11h56c6.065,0,11,4.935,11,11v32 C89,72.065,84.065,77,78,77z M22,25c-4.963,0-9,4.037-9,9v32c0,4.963,4.037,9,9,9h56c4.963,0,9-4.037,9-9V34c0-4.963-4.037-9-9-9H22 z"/><path fill="#1f212b" d="M50 55c-.114 0-.228-.039-.32-.116l-33.5-28c-.212-.177-.24-.492-.063-.704.178-.213.495-.239.704-.063L50 53.849l33.18-27.732c.209-.177.527-.15.704.063.177.212.148.527-.063.704l-33.5 28C50.228 54.961 50.114 55 50 55zM83.5 74c-.113 0-.228-.038-.32-.116l-22.732-19c-.212-.177-.24-.492-.063-.704.178-.213.495-.239.704-.063l22.732 19c.212.177.24.492.063.704C83.785 73.939 83.643 74 83.5 74zM16.5 74c-.143 0-.285-.061-.384-.18-.177-.212-.148-.527.063-.704l22.732-19c.209-.177.526-.15.704.063.177.212.148.527-.063.704l-22.732 19C16.728 73.962 16.613 74 16.5 74z"/></svg>